<?xml version="1.0" encoding="utf-8"?>
<!-- Generator: Adobe Illustrator 21.0.2, SVG Export Plug-In . SVG Version: 6.00 Build 0)  -->
<svg version="1.1" id="OBJECTS" xmlns="http://www.w3.org/2000/svg" xmlns:xlink="http://www.w3.org/1999/xlink" x="0px" y="0px"
	 viewBox="0 0 71.1 112.6" style="enable-background:new 0 0 71.1 112.6;" xml:space="preserve">
<style type="text/css">
	.st0{fill:#222221;}
</style>
<path class="st0" d="M9.2,112.1c4.7-7,10.1-13.4,16.2-19.2c0.6-0.5,0.4-1.7-0.4-1.8c-1.8-0.4-5.1-0.3-6.2-1.9
	c-0.8-1.1,1-6.1,1.3-7.6c0.8-3.7,1.8-7.3,3-10.8c2.7-7.7,6.4-15.1,10.9-21.9c9.3-14.1,22-24.9,36.8-33c0.6-0.3,0.4-1,0-1.3
	c0-0.3,0-0.6-0.3-0.8c-4.4-4.5-8.7-9-13.1-13.5C57,0,56.4-0.1,56,0.1C35.9,14.4,21.1,35.1,13.8,58.3c-0.2,0-0.3,0-0.5,0
	c-0.9,0-0.9,1.3,0,1.3c0,0,0.1,0,0.1,0c-2.7,8.9-4.3,18.2-4.6,27.6C6.4,86.1,4,85,1.6,83.9c-0.8-0.4-1.9,0.2-1.6,1.2l5.1,19
	c-0.4,0.3-0.3,1.1,0.3,1.1l1.8,6.7C7.5,112.7,8.7,112.9,9.2,112.1z M57.1,3.2c1.5,0.4,4.1,4.2,5.2,5.4c0.8,0.8,1.6,1.7,2.4,2.5
	c-5.7-0.8-12-1.4-17.8-1.1C49.7,7.1,54.4,2.4,57.1,3.2z M45.4,11.5c0.1-0.1,0.3-0.3,0.5-0.5c0,0,0.1,0,0.1,0
	c6.2,0.7,12.8,0.6,19.1,0.8c0.1,0,0.2-0.1,0.3-0.1c1.1,1.1,2.2,2.3,3.4,3.4c-3.3,1.6-6.5,3.4-9.5,5.3c-8,0.6-15.9,1.5-23.9,1.8
	C38.5,18.5,41.8,14.9,45.4,11.5z M34.4,23.5c0.1,0.1,0.2,0.1,0.4,0.1c7.3-0.1,15-0.5,22.3-1.8c-3.8,2.7-7.5,5.6-10.9,8.9
	c-5.5-0.3-11.1-0.2-16.7-0.1c-0.2,0-0.3,0.1-0.4,0.2C30.8,28.4,32.6,25.9,34.4,23.5z M27.3,33.7c0.5-0.9,1.1-1.7,1.6-2.6
	c-0.1,0.4,0.1,0.9,0.6,0.9c5.3-0.1,10.6-0.1,15.9-0.4c-3.1,3-6,6.3-8.7,9.7c-4.4-0.3-9.2-0.6-13.6-0.2
	C24.4,38.6,25.8,36.1,27.3,33.7z M22.5,42.4c4.4,0.4,9.2,0.1,13.6-0.2c-1.8,2.3-3.4,4.7-5,7.2c0,0,0,0-0.1,0c-1.6,1-4.3,0.5-6.2,0.4
	c-1.9,0-3.8-0.1-5.7-0.1C20.2,47.2,21.3,44.8,22.5,42.4z M18.7,50.9c2.7,0.1,5.4,0,8.1-0.1c1.1,0,2.4,0.1,3.5-0.2
	c-0.4,0.6-0.8,1.3-1.2,1.9c-1.1,1.9-2.2,3.9-3.2,5.9c-2-0.2-4.1,0-6.2,0c-1.2,0-2.5,0-3.7-0.1C16.8,55.8,17.7,53.4,18.7,50.9z
	 M13.4,68.2c2.6-0.1,5.4,0,7.8-0.5c0.4-0.1,0.5-0.8,0-0.8c-2.4-0.4-5.1-0.2-7.6-0.1c0.6-2.4,1.2-4.7,1.9-7.1c1.5,0,3-0.1,4.5-0.1
	c1.8-0.1,3.7-0.1,5.5-0.4c-2.6,5.3-4.7,10.8-6.3,16.5c-2.4-0.3-4.9-0.1-7.3,0.4C12.4,73.3,12.8,70.8,13.4,68.2z M11.9,77
	c2.4-0.5,4.8-0.7,7.3-0.7c-0.1,0.5-0.3,1-0.4,1.6c-0.3,1.1-0.8,2.8-1.3,4.7c-1.1,0-2.2,0.1-3.2,0.2c-1,0.1-2,0.1-2.9,0.2
	C11.4,80.9,11.6,79,11.9,77z M2.7,86.8c2.2,1,4.4,2,6.5,3.1c0.7,0.3,1.6,0,1.6-0.9c0-1.6,0.1-3.3,0.2-4.9c1,0,2.1-0.2,3.1-0.3
	c1-0.1,2-0.2,2.9-0.3c-0.7,2.6-1.1,5.4-0.4,7.1c-4.3,0.1-8.6,0.4-12.8,0.8C3.5,89.8,3.1,88.3,2.7,86.8z M4.3,92.6
	c4.3-0.2,8.8-0.7,13.1-1.2c1.1,1.1,3.2,1.4,4.9,1.5c-1.5,1.5-2.9,3-4.3,4.5c-3.9,0-7.8,0.3-11.6,0.5c-0.3,0-0.4,0.2-0.5,0.4
	C5.3,96.4,4.8,94.5,4.3,92.6z M6.3,99.2c3.6-0.2,7.2-0.4,10.7-0.8c-1.6,1.8-3.1,3.6-4.6,5.5c-1.7-0.1-3.5-0.2-5.2-0.2
	c-0.4-1.5-0.8-3-1.2-4.6C6.1,99.2,6.2,99.2,6.3,99.2z M7.6,105c1.4-0.1,2.8-0.1,4.2-0.2c-1.1,1.4-2.1,2.8-3.1,4.2
	C8.3,107.7,8,106.3,7.6,105z"/>
</svg>
