<?xml version="1.0" encoding="utf-8"?>
<!-- Generator: Adobe Illustrator 21.0.2, SVG Export Plug-In . SVG Version: 6.00 Build 0)  -->
<svg version="1.1" id="OBJECTS" xmlns="http://www.w3.org/2000/svg" xmlns:xlink="http://www.w3.org/1999/xlink" x="0px" y="0px"
	 viewBox="0 0 115.9 26.2" style="enable-background:new 0 0 115.9 26.2;" xml:space="preserve">
<style type="text/css">
	.st0{fill:#222221;}
</style>
<path class="st0" d="M115.5,0.9c0-0.8-1-1.2-1.6-0.7c-4,4-8.1,8-12.1,12c-0.8,0.8,0.2,1.9,1.1,1.5c1.9-0.9,3.8-1.7,5.7-2.7
	c-1.8,3.6-2.5,8.1-6.1,10.3c-4.9,3-10.9,0.4-14-3.9c-3-4.2-3.2-11-9-12.5c-4.9-1.3-10.5,1.6-14.3,4.4c-5.8,4.3-9.9,12.8-17.2,14.7
	c-9.3,2.3-15-4.8-19.9-11.2c-2.9-3.8-6.6-6.5-11.5-7C6,4.8-2.4,14.8,0.6,25c0.2,0.7,1.1,0.4,1-0.3c-1.6-9.6,5.7-19,16-16.8
	c7.4,1.5,9.5,8.6,14.4,13.3c7.9,7.5,18.3,6.3,25.3-1.3C62.3,14.6,67.1,8.5,74.6,7C84,5.2,84.1,17.5,90,22c3.4,2.6,7.9,3.5,11.9,1.9
	c4.9-2,6.2-6.9,8-11.3c1.4,1.4,2.9,2.7,4.4,4.1c0.5,0.5,1.7,0.2,1.6-0.7C115.4,10.9,115.3,5.9,115.5,0.9z M110.3,9.9
	c0-0.4-0.3-0.8-0.7-0.6c-1.1,0.4-2.3,0.8-3.4,1.2c2.5-2.4,4.9-4.9,7.4-7.3c-0.1,3.5,0,6.9,0.3,10.4c-1.1-1-2.1-2-3.2-2.9
	C110.7,10.3,110.5,10.1,110.3,9.9z"/>
</svg>
