<?xml version="1.0" encoding="utf-8"?>
<!-- Generator: Adobe Illustrator 21.0.2, SVG Export Plug-In . SVG Version: 6.00 Build 0)  -->
<svg version="1.1" id="OBJECTS" xmlns="http://www.w3.org/2000/svg" xmlns:xlink="http://www.w3.org/1999/xlink" x="0px" y="0px"
	 viewBox="0 0 59.2 65.4" style="enable-background:new 0 0 59.2 65.4;" xml:space="preserve">
<style type="text/css">
	.st0{fill:#FFFFFF;}
</style>
<path class="st0" d="M30.9,19.9c-8,3.8-13.6,15.3-13.7,25.4c-0.5-0.3-1.1-0.6-1.6-1c-13.2-9.4-9-27.6-4.9-40.5
	c0.1-0.2,0.1-0.3,0-0.4c0.1-0.1,0.2-0.1,0.3-0.2c-0.1,2.7,0.1,5.2,0.7,7.9c0.3,1.3,2.4,1,2.1-0.3c-0.8-3.2-0.9-6.3-0.5-9.6
	c0.1-1-1-1.4-1.7-1C7.7,2.8,4,5.6,0.4,8.8c-1.1,0.9,0.2,2.5,1.3,1.7c2-1.4,4.1-2.9,6.1-4.3C4,18.9,1.6,34,12.2,44.2
	c1.5,1.4,3.2,2.5,5.1,3.4c0.2,3.1,1,5.9,2.5,8.3c8.8,14.5,28.2,10.6,39.1,1.2c0.8-0.7-0.2-2-1-1.3c-10.8,8.1-30.7,12.9-37.4-3.2
	c-0.5-1.3-0.9-2.7-1-4.2c10.3,3.1,23.6-1.7,28.6-11C54.6,25.4,42.8,14.2,30.9,19.9z M38.6,43.5c-5.7,3.1-13,5-19.2,2.7
	c0-5.1,1.9-10.6,3.9-14.8c3.4-7.1,12.3-14.6,20.4-9.3C52.9,28,45.6,39.7,38.6,43.5z"/>
</svg>
