<?xml version="1.0" encoding="utf-8"?>
<!-- Generator: Adobe Illustrator 21.0.2, SVG Export Plug-In . SVG Version: 6.00 Build 0)  -->
<svg version="1.1" id="Layer_1" xmlns="http://www.w3.org/2000/svg" xmlns:xlink="http://www.w3.org/1999/xlink" x="0px" y="0px"
	 viewBox="0 0 161.6 92.2" style="enable-background:new 0 0 161.6 92.2;" xml:space="preserve">
<style type="text/css">
	.st0{fill:#FFFFFF;}
</style>
<g>
	<path class="st0" d="M0,41.9c1.4-0.6,2.1-1.4,1.7-5.1l-0.9-8.2L12.2,26l2.8,12.3l1.4-0.3l1.5,6.5l-3.9,0.9l-0.7-2.9l-8.5,1.9
		l0.7,2.9l-3.9,0.9L0,41.9z M4.9,40.5l6.1-1.4l-2-8.7l-3.9,0.9l0.5,4.9C5.9,38,5.6,39.4,4.9,40.5"/>
	<path class="st0" d="M16.7,35.6c-0.7-3.3,1.1-6.5,4.5-7.3c3.3-0.7,6.2,1.2,7.1,5.1l0.2,0.8l-7.8,1.8c0.4,1,1.6,1.8,3.2,1.4
		c0.8-0.2,2-0.8,2.5-1.6l2,1.9c-0.9,1.3-2.6,2.2-4.3,2.6C20.6,41,17.5,39.3,16.7,35.6 M21.8,31.1c-1.5,0.3-1.9,1.6-1.8,2.5l4.5-1
		C24.2,31.7,23.4,30.7,21.8,31.1"/>
	<polygon class="st0" points="33.2,37.9 31.4,29.6 28.4,30.3 27.7,27.1 37.1,25 37.9,28.1 34.9,28.8 36.7,37.1 	"/>
	<path class="st0" d="M47.8,34.6l-0.3-1.1c-0.5,1-1.7,1.9-3.1,2.2c-1.7,0.4-4-0.3-4.6-2.9c-0.6-2.8,1.3-4.1,2.9-4.5
		c1.5-0.3,2.9-0.1,3.7,0.6l-0.3-1.4c-0.2-1-1.2-1.5-2.6-1.2c-1.1,0.2-2.1,0.9-2.8,1.9l-1.8-2c1.1-1.6,2.9-2.5,4.6-2.9
		c2.6-0.6,5.3-0.1,6.1,3.4l1.6,7.2L47.8,34.6z M47.2,31.6l-0.2-1c-0.5-0.4-1.4-0.5-2.1-0.4c-0.9,0.2-1.7,0.8-1.5,1.7
		c0.2,0.9,1.1,1.1,2,0.9C46.2,32.7,46.9,32.3,47.2,31.6"/>
	<path class="st0" d="M52.4,30.7c0.8-0.2,1.2-1.1,1-3.6l-0.5-5.7l9.4-2.1l2.6,11.4l-3.5,0.8l-1.9-8.3l-2.9,0.6l0.3,2.9
		c0.4,3.8-0.6,6.2-3.8,6.9L52.4,30.7z"/>
	<path class="st0" d="M63.9,15.6c-0.3-1.2,0.4-2.3,1.5-2.5c1.1-0.3,2.2,0.5,2.5,1.6c0.3,1.2-0.4,2.3-1.5,2.6
		C65.2,17.6,64.1,16.8,63.9,15.6 M67.4,30.2l-2.6-11.4l3.5-0.8l2.6,11.4L67.4,30.2z"/>
	<path class="st0" d="M85.7,26l-0.3-1.1c-0.5,1-1.7,1.9-3.1,2.2c-1.7,0.4-4-0.3-4.6-2.9c-0.6-2.8,1.3-4.1,2.9-4.5
		c1.5-0.3,2.9-0.1,3.7,0.6l-0.3-1.4c-0.2-1-1.2-1.5-2.6-1.2c-1.1,0.2-2.1,0.9-2.8,1.9l-1.8-2c1.1-1.6,2.9-2.5,4.6-2.9
		c2.6-0.6,5.3-0.1,6.1,3.4l1.6,7.2L85.7,26z M85.1,23.1l-0.2-1c-0.5-0.4-1.4-0.5-2.1-0.4c-0.9,0.2-1.7,0.8-1.5,1.7
		c0.2,0.9,1.1,1.1,2,0.9C84.1,24.2,84.8,23.7,85.1,23.1"/>
	<polygon class="st0" points="98.8,23.1 95.4,19.6 94.7,21.1 95.3,23.9 91.8,24.7 89.2,13.2 92.7,12.4 93.8,17 96.1,11.7 
		100.3,10.7 97.4,16.9 103.1,22.1 	"/>
	<polygon class="st0" points="112.9,19.9 104.2,21.9 101.6,10.4 105.1,9.6 107,17.9 110.9,17 109.1,8.8 112.6,8 114.4,16.2 
		115.7,16 117,22.1 113.5,22.8 	"/>
	<path class="st0" d="M114.5,4.3c-0.3-1.2,0.4-2.3,1.5-2.5c1.1-0.3,2.2,0.5,2.5,1.6c0.3,1.2-0.4,2.3-1.5,2.6
		C115.8,6.2,114.7,5.4,114.5,4.3 M118,18.8l-2.6-11.4l3.5-0.8l2.6,11.4L118,18.8z"/>
	<path class="st0" d="M120.5,4.9c-1,0.2-2-0.4-2.2-1.5c-0.2-1,0.4-2,1.4-2.2c1-0.2,2,0.4,2.2,1.4C122.1,3.7,121.5,4.6,120.5,4.9
		 M124,17.4L121.5,6l3.5-0.8l2.6,11.4L124,17.4z M125.4,3.8c-1,0.2-2-0.4-2.2-1.5c-0.2-1,0.4-2,1.4-2.2c1-0.2,2,0.4,2.2,1.4
		C127,2.6,126.4,3.5,125.4,3.8"/>
	<path class="st0" d="M137.9,11.9c6.3,2.9,11.9,8.3,15.6,14.1c11.4,17.9,1.8,39.2-8.8,54.9c-0.7,1,0,5.3,1,3.9
		c11.3-16.7,20.7-38.7,11.3-58.4c-3.7-7.8-10.5-15.2-18.5-18.9C137,6.9,136.6,11.3,137.9,11.9"/>
	<path class="st0" d="M139.8,65.9v22.1c0,0.9,0.4,5.1,2.4,4.1c6-3,12.1-6.1,18.1-9.1c2.3-1.2,1.5-9.5-1-8.2c-6,3-12.1,6.1-18.1,9.1
		c0.8,1.4,1.6,2.7,2.4,4.1V65.9c0-1.1-0.2-4.3-1.9-4.3C140.1,61.6,139.8,64.9,139.8,65.9"/>
</g>
</svg>
