<?xml version="1.0" encoding="utf-8"?>
<!-- Generator: Adobe Illustrator 21.0.2, SVG Export Plug-In . SVG Version: 6.00 Build 0)  -->
<svg version="1.1" id="Capa_1" xmlns="http://www.w3.org/2000/svg" xmlns:xlink="http://www.w3.org/1999/xlink" x="0px" y="0px"
	 viewBox="0 0 469.8 469.8" style="enable-background:new 0 0 469.8 469.8;" xml:space="preserve">
<style type="text/css">
	.st0{fill:#2196F3;}
	.st1{fill:#4CAF50;}
	.st2{fill:#FFC107;}
	.st3{fill:#F44336;}
</style>
<path class="st0" d="M270.3,235L34.4,462.2c-11-7.6-17.6-20.1-17.5-33.5V41.3c-0.1-13.4,6.4-25.9,17.5-33.5L270.3,235z"/>
<path class="st1" d="M352.9,155.6L270.3,235L34.4,7.8c0.9-0.7,1.8-1.3,2.8-1.9c12.5-7.6,28-7.8,40.7-0.6L352.9,155.6z"/>
<path class="st2" d="M453,235c0.2,15.1-8.1,29.1-21.3,36.3l-78.7,43.1L270.3,235l82.6-79.4l78.7,43.1
	C444.9,205.9,453.1,219.9,453,235z"/>
<path class="st3" d="M352.9,314.3l-275,150.4c-12.7,7.1-28.2,6.8-40.7-0.6c-1-0.6-1.9-1.2-2.8-1.9L270.3,235L352.9,314.3z"/>
</svg>
