<?xml version="1.0" encoding="utf-8"?>
<!-- Generator: Adobe Illustrator 21.0.2, SVG Export Plug-In . SVG Version: 6.00 Build 0)  -->
<svg version="1.1" id="Слой_1" xmlns="http://www.w3.org/2000/svg" xmlns:xlink="http://www.w3.org/1999/xlink" x="0px" y="0px"
	 viewBox="0 0 200 50" style="enable-background:new 0 0 200 50;" xml:space="preserve">
<style type="text/css">
	.st0{fill:none;}
	.st1{fill:#E2532D;}
	.st2{fill:#D62722;}
	.st3{fill:none;stroke:#DB954C;stroke-width:0;stroke-linecap:round;stroke-linejoin:round;}
	.st4{fill:#DB954C;}
	.st5{fill:#F28625;}
	.st6{fill:#FFFFFF;}
</style>
<g>
	<path class="st0" d="M129.7,20c-1.8,0-2.8,1.1-3,2.7h5.8C132.2,20.9,131.3,20,129.7,20z"/>
	<path class="st0" d="M184.4,20.1c-2.1,0-3.4,1.6-3.4,3.6s1.3,3.6,3.4,3.6c2,0,3.3-1.5,3.3-3.6S186.3,20.1,184.4,20.1z"/>
	<path class="st0" d="M162.1,20.1c-2.1,0-3.4,1.6-3.4,3.6s1.3,3.6,3.4,3.6c2,0,3.3-1.5,3.3-3.6S164,20.1,162.1,20.1z"/>
	<path class="st0" d="M94.3,20.1c-2.1,0-3.4,1.6-3.4,3.6s1.2,3.6,3.4,3.6c2,0,3.3-1.5,3.3-3.6S96.2,20.1,94.3,20.1z"/>
	<path class="st0" d="M30.8,10.5c-0.3,0.3-0.7,0.6-1,0.9C30.2,11.1,30.5,10.8,30.8,10.5z"/>
	<path class="st0" d="M192.9,28.9c0,0,0,0.1-0.1,0.2l0.1,0.1L192.9,28.9z"/>
	<path class="st0" d="M192.5,29.2C192.5,29.2,192.4,29.2,192.5,29.2c-0.2-0.2-0.2-0.2-0.2-0.2c0,0,0,0,0,0.1
		C192.3,29.2,192.3,29.3,192.5,29.2C192.5,29.3,192.5,29.3,192.5,29.2L192.5,29.2z"/>
	<path class="st0" d="M192.6,29.3L192.6,29.3L192.6,29.3c0.1,0.1,0.1,0.1,0.2,0.1L192.6,29.3C192.7,29.3,192.7,29.3,192.6,29.3z"/>
	<path class="st0" d="M193.3,28.7C193.3,28.7,193.3,28.7,193.3,28.7C193.3,28.7,193.3,28.8,193.3,28.7c0,0.2,0,0.3,0,0.3
		c0,0.1-0.1,0.2-0.1,0.2c-0.1,0.1-0.2,0.1-0.2,0.1c0,0-0.1,0-0.1,0l0.1,0.1h0c0.1,0,0.2,0,0.2-0.1c0-0.1,0.1-0.1,0.1-0.2
		c0.1-0.1,0-0.1,0-0.2S193.3,28.8,193.3,28.7z"/>
	<path class="st0" d="M193.2,28.9l-0.2-0.2h0.1v-0.1v-0.1c-0.1,0-0.1,0-0.2,0h-0.3v0.2h0.2c0.1,0,0.2,0,0.2,0v0.2H193.2z"/>
	<path class="st1" d="M37.2,23.6c0-5.2-2.5-9.9-6.4-13c-0.3,0.3-0.7,0.6-1,0.9c-3.3,3-5.4,7.3-5.4,12.2c0,5.3,2.4,10,6.4,13
		C34.7,33.6,37.2,28.8,37.2,23.6z"/>
	<path class="st2" d="M24.5,23.6c0-4.9,2.1-9.2,5.4-12.2c0.3-0.3,0.7-0.6,1-0.9C28,8.3,24.5,7,20.6,7C11.4,7,4,14.4,4,23.6
		s7.4,16.6,16.6,16.6c3.8,0,7.4-1.3,10.2-3.6C26.9,33.6,24.5,28.9,24.5,23.6z"/>
	<line class="st3" x1="57.1" y1="33.4" x2="57.1" y2="33.9"/>
	<polygon class="st4" points="56.8,33.7 56.6,33.2 56.4,33.2 56.4,33.9 56.6,33.9 56.6,33.4 56.8,33.8 56.9,33.8 57.1,33.4 
		57.1,33.2 57,33.2 	"/>
	<polygon class="st4" points="55.8,33.3 55.9,33.3 55.9,33.9 56,33.9 56,33.3 56.3,33.3 56.3,33.2 55.8,33.2 	"/>
	<path class="st5" d="M41,7c-3.8,0-7.4,1.3-10.2,3.6c3.8,3.1,6.4,7.8,6.4,13c0,5.2-2.5,10-6.4,13c2.8,2.2,6.4,3.6,10.2,3.6
		c9.2,0,16.6-7.4,16.6-16.6S50.2,7,41,7z"/>
	<path class="st6" d="M173.1,19.5v-1.3h-2.4v11.1h2.4v-6.2c0-1.9,0.7-2.9,2.3-2.9c0.5,0,1,0.1,1.5,0.3l0.7-2.2
		c-0.5-0.2-1.2-0.3-1.7-0.3C174.7,17.8,173.8,18.5,173.1,19.5z"/>
	<path class="st6" d="M129.7,17.8c-3.2,0-5.5,2.3-5.5,5.8c0,3.5,2.3,5.8,5.7,5.8c1.7,0,3.2-0.4,4.5-1.6l-1.2-1.8
		c-0.9,0.7-2.2,1.1-3.2,1.1c-1.6,0-3-0.7-3.3-2.7h8.2c0-0.3,0-0.6,0-0.9C134.9,20.2,132.7,17.8,129.7,17.8z M126.7,22.7
		c0.2-1.6,1.2-2.7,3-2.7c1.6,0,2.5,0.9,2.8,2.7H126.7z"/>
	<path class="st6" d="M119.8,27.2c-1.2,0-1.6-0.7-1.6-1.9v-5.1h3.9v-2.2h-3.8v-3.4h-2.4v3.4h-2.2v2.2h2.2v5.1c0,2.6,1,4.1,3.8,4.1
		c1,0,2.2-0.3,3-0.8l-0.7-2.1C121.1,26.9,120.4,27.2,119.8,27.2z"/>
	<path class="st6" d="M81.9,17.8c-1.4,0-2.9,0.4-3.8,2c-0.7-1.2-2-2-3.7-2c-1.2,0-2.3,0.4-3.2,1.7v-1.4h-2.4v11.1h2.4V23
		c0-2,1-3,2.7-3c1.6,0,2.4,1,2.4,2.9v6.2h2.4V23c0-2,1.1-3,2.7-3c1.7,0,2.4,1,2.4,2.9v6.2h2.3v-6.9C86.2,19.6,84.6,17.8,81.9,17.8z"
		/>
	<path class="st6" d="M193.4,28.6c0-0.1-0.1-0.2-0.1-0.2s-0.1-0.1-0.2-0.1c0,0-0.1,0-0.1,0c0,0-0.1,0-0.2,0h0c-0.1,0-0.1,0-0.2,0
		c0,0-0.1,0-0.1,0c-0.1,0-0.2,0.1-0.2,0.1c0,0.1-0.1,0.1-0.1,0.2c0,0.1,0,0.2,0,0.3s0,0.2,0,0.3c0,0.1,0.1,0.2,0.1,0.2
		s0.1,0.1,0.2,0.1s0.2,0,0.3,0c0.1,0,0.2,0,0.3,0c0.1,0,0.2-0.1,0.2-0.1c0-0.1,0.1-0.1,0.1-0.2s0-0.2,0-0.3S193.4,28.7,193.4,28.6z
		 M192.9,28.9l0,0.2l-0.1-0.1C192.8,29,192.9,29,192.9,28.9z M192.8,28.7h-0.2v-0.2h0.3c0.1,0,0.1,0,0.2,0v0.1v0.1H193l0.2,0.2H193
		v-0.2C193,28.7,192.9,28.7,192.8,28.7z M192.3,29.1C192.3,29,192.3,29,192.3,29.1C192.3,29,192.3,29.1,192.3,29.1
		c0.1,0.1,0.1,0.1,0.2,0.2v0.1c0,0,0,0-0.1,0C192.3,29.3,192.3,29.2,192.3,29.1z M192.6,29.4L192.6,29.4L192.6,29.4
		C192.7,29.3,192.7,29.3,192.6,29.4h0.2C192.7,29.4,192.7,29.4,192.6,29.4z M193.3,29.1c0,0.1-0.1,0.1-0.1,0.2
		c0,0.1-0.1,0.1-0.2,0.1h0l-0.1-0.1c0,0,0,0,0.1,0C193,29.3,193.1,29.3,193.3,29.1C193.2,29.2,193.3,29.1,193.3,29.1
		c0-0.1,0-0.2,0-0.3c0,0,0-0.1,0-0.1c0,0,0,0,0,0c0,0.1,0,0.1,0,0.2S193.4,29,193.3,29.1z"/>
	<path class="st6" d="M139.8,19.5v-1.3h-2.4v11.1h2.4v-6.2c0-1.9,0.7-2.9,2.3-2.9c0.5,0,1,0.1,1.5,0.3l0.7-2.2
		c-0.5-0.2-1.2-0.3-1.7-0.3C141.3,17.8,140.3,18.5,139.8,19.5z"/>
	<path class="st6" d="M108,22.6l-1.1-0.2c-1-0.1-1.9-0.4-1.9-1.1c0-0.8,0.7-1.3,2.2-1.3s2.8,0.6,3.5,0.9l1.1-2
		c-1.1-0.7-2.8-1.1-4.5-1.1c-2.8,0-4.6,1.3-4.6,3.6c0,1.8,1.3,2.9,3.8,3.3l1.1,0.2c1.3,0.2,2,0.6,2,1.1c0,0.8-0.8,1.3-2.5,1.3
		s-2.9-0.6-3.7-1.1l-1.1,1.9c1.3,0.9,3,1.4,4.8,1.4c3.2,0,5.1-1.5,5.1-3.6C111.9,24,110.5,23,108,22.6z"/>
	<path class="st6" d="M187.5,19.5c-0.7-1-2-1.6-3.5-1.6c-3.1,0-5.5,2.4-5.5,5.8c0,3.4,2.4,5.8,5.5,5.8c1.6,0,2.7-0.7,3.5-1.6v1.3
		h2.4v-5.6v-9.9h-2.4V19.5z M184.4,27.2c-2.1,0-3.4-1.6-3.4-3.6s1.3-3.6,3.4-3.6c2,0,3.3,1.5,3.3,3.6S186.3,27.2,184.4,27.2z"/>
	<path class="st6" d="M97.3,19.4c-0.7-1-2-1.6-3.5-1.6c-3.1,0-5.5,2.4-5.5,5.8c0,3.4,2.4,5.8,5.5,5.8c1.6,0,2.7-0.7,3.5-1.6v1.3h2.4
		v-5.5v-5.5h-2.4V19.4z M94.3,27.2c-2.2,0-3.4-1.6-3.4-3.6s1.3-3.6,3.4-3.6c2,0,3.3,1.5,3.3,3.6S96.2,27.2,94.3,27.2z"/>
	<path class="st6" d="M150.9,20.1c1,0,2,0.4,2.9,1l1.1-2c-1.2-0.9-2.3-1.3-3.9-1.3c-3.6,0-5.9,2.5-5.9,5.8c0,3.4,2.3,5.8,5.9,5.8
		c1.7,0,2.8-0.4,3.9-1.3l-1.1-2c-0.9,0.7-1.9,1-2.9,1c-2,0-3.3-1.4-3.3-3.6C147.6,21.5,149,20.1,150.9,20.1z"/>
	<path class="st6" d="M165.3,19.4c-0.7-1-2-1.6-3.5-1.6c-3.1,0-5.5,2.4-5.5,5.8c0,3.4,2.4,5.8,5.5,5.8c1.6,0,2.7-0.7,3.5-1.6v1.3
		h2.4v-5.5v-5.5h-2.4V19.4z M162.1,27.2c-2.1,0-3.4-1.6-3.4-3.6s1.3-3.6,3.4-3.6c2,0,3.3,1.5,3.3,3.6S164,27.2,162.1,27.2z"/>
</g>
</svg>
