<?xml version="1.0" encoding="utf-8"?>
<!-- Generator: Adobe Illustrator 21.0.2, SVG Export Plug-In . SVG Version: 6.00 Build 0)  -->
<svg version="1.1" id="Слой_1" xmlns="http://www.w3.org/2000/svg" xmlns:xlink="http://www.w3.org/1999/xlink" x="0px" y="0px"
	 viewBox="0 0 200 50" style="enable-background:new 0 0 200 50;" xml:space="preserve">
<style type="text/css">
	.st0{fill:#FFFFFF;}
	.st1{fill:#E74816;}
	.st2{fill:#DB001B;}
	.st3{fill:#EF8B06;}
</style>
<g>
	<path class="st0" d="M64.5,25.9c0-1.4,0.9-2.6,2.5-2.6c1.5,0,2.5,1.1,2.5,2.6s-1,2.6-2.5,2.6S64.5,27.3,64.5,25.9z M71.2,25.9v-4.1
		h-1.8v1c-0.6-0.8-1.6-1.2-2.6-1.2c-2.3,0-4.1,1.8-4.1,4.3s1.8,4.3,4.1,4.3c1,0,2-0.4,2.6-1.2v1h1.8V25.9L71.2,25.9z M131.4,25.9
		c0-1.4,0.9-2.6,2.5-2.6c1.5,0,2.5,1.1,2.5,2.6s-1,2.6-2.5,2.6C132.3,28.5,131.4,27.3,131.4,25.9z M140,29.6L140,29.6L140,29.6
		c0.1,0.1,0.1,0.1,0.2,0.1l0,0l0,0C140.2,29.7,140.2,29.7,140,29.6L140,29.6z M140.1,29.5C140.2,29.5,140.2,29.5,140.1,29.5
		C140.2,29.5,140.3,29.6,140.1,29.5l0.1,0.2h-0.1l0.2,0.2h-0.1l-0.1-0.2l0,0v0.2H140L140.1,29.5L140.1,29.5z M140.1,30.1
		c0.1,0,0.2,0,0.3-0.1l0.1-0.1c0,0,0-0.1,0-0.2c0-0.1,0-0.1,0-0.2c0-0.1-0.1-0.2-0.2-0.2c0,0-0.1,0-0.2,0c-0.1,0-0.1,0-0.2,0
		c0,0-0.1,0-0.1,0.1l-0.1,0.1c0,0.1,0,0.1,0,0.2c0,0.2,0.1,0.3,0.2,0.4C140,30.1,140,30.1,140.1,30.1z M140.1,29.2
		c0.1,0,0.1,0,0.2,0c0.1,0,0.1,0.1,0.2,0.1c0,0,0.1,0.1,0.1,0.2c0.1,0.1,0.1,0.3,0,0.4c0,0.1-0.1,0.1-0.1,0.2c0,0-0.1,0.1-0.2,0.1
		c-0.1,0.1-0.3,0.1-0.4,0c-0.1,0-0.1-0.1-0.2-0.1c0,0-0.1-0.1-0.1-0.2c-0.1-0.1-0.1-0.3,0-0.4c0-0.1,0.1-0.1,0.1-0.2
		C139.8,29.3,140,29.2,140.1,29.2z M138,25.9v-7.4h-1.8v4.3c-0.6-0.8-1.6-1.2-2.6-1.2c-2.3,0-4.1,1.8-4.1,4.3s1.8,4.3,4.1,4.3
		c1,0,2-0.4,2.6-1.2v1h1.8V25.9L138,25.9z M93.3,23.2c1.1,0,1.9,0.7,2.1,2h-4.3C91.3,24,92,23.2,93.3,23.2L93.3,23.2z M93.3,21.6
		c-2.4,0-4.1,1.7-4.1,4.3s1.7,4.3,4.2,4.3c1.2,0,2.4-0.4,3.4-1.1l-0.9-1.3c-0.7,0.5-1.5,0.8-2.4,0.9c-1.1,0-2.2-0.5-2.5-2h6.1
		c0-0.2,0-0.4,0-0.7C97.2,23.3,95.6,21.6,93.3,21.6L93.3,21.6z M114.8,25.9c0-1.4,0.9-2.6,2.5-2.6c1.5,0,2.5,1.1,2.5,2.6
		s-1,2.6-2.5,2.6S114.8,27.3,114.8,25.9z M121.5,25.9v-4.1h-1.8v1c-0.6-0.8-1.6-1.2-2.6-1.2c-2.3,0-4.1,1.8-4.1,4.3s1.8,4.3,4.1,4.3
		c1,0,2-0.4,2.6-1.2v1h1.8V25.9L121.5,25.9z M104.8,25.9c0,2.5,1.7,4.3,4.4,4.3c1.1,0.1,2.1-0.3,2.9-1l-0.9-1.4
		c-0.6,0.5-1.4,0.7-2.1,0.7c-1.4,0-2.5-1-2.5-2.6s1-2.6,2.5-2.6c0.8,0,1.5,0.3,2.1,0.7l0.9-1.4c-0.8-0.7-1.9-1-2.9-1
		C106.5,21.6,104.8,23.4,104.8,25.9z M127.7,21.6c-0.9,0-1.7,0.4-2.2,1.2v-1h-1.8V30h1.8v-4.6c0-1.4,0.6-2.1,1.7-2.1
		c0.4,0,0.8,0.1,1.1,0.2l0.6-1.7C128.6,21.6,128.2,21.6,127.7,21.6L127.7,21.6z M80,22.4c-1-0.6-2.2-0.9-3.3-0.9
		c-2.1,0-3.4,1-3.4,2.6c0,1.3,1,2.2,2.8,2.4l0.8,0.1c1,0.1,1.4,0.4,1.4,0.9c0,0.6-0.7,1-1.9,1c-1,0-1.9-0.3-2.7-0.9L72.9,29
		c1,0.7,2.3,1.1,3.5,1.1c2.4,0,3.7-1.1,3.7-2.7c0-1.4-1.1-2.2-2.9-2.5l-0.8-0.1C75.6,24.7,75,24.5,75,24c0-0.6,0.6-1,1.6-1
		c0.9,0,1.8,0.3,2.6,0.7L80,22.4L80,22.4z M103,21.6c-0.9,0-1.7,0.4-2.2,1.2v-1H99V30h1.8v-4.6c0-1.4,0.6-2.1,1.7-2.1
		c0.4,0,0.8,0.1,1.1,0.2l0.5-1.7C103.8,21.6,103.4,21.6,103,21.6z M87.8,21.8h-2.9v-2.5h-1.8v2.5h-1.7v1.6h1.7v3.7
		c0,1.9,0.7,3,2.8,3c0.8,0,1.6-0.2,2.2-0.6L87.6,28c-0.5,0.3-1,0.4-1.6,0.5c-0.9,0-1.2-0.5-1.2-1.4v-3.7h2.9L87.8,21.8L87.8,21.8z
		 M61.1,30v-5.1c0-1.9-1.2-3.2-3.2-3.3c-1.2-0.1-2.3,0.5-2.9,1.5c-0.6-0.9-1.6-1.5-2.7-1.5c-1,0-1.9,0.4-2.4,1.2v-1h-1.8V30h1.8
		v-4.6c0-1.4,0.8-2.2,2-2.2s1.8,0.8,1.8,2.2V30h1.8v-4.5c0-1.4,0.8-2.2,2-2.2s1.8,0.8,1.8,2.2v4.6L61.1,30z"/>
	<polygon class="st1" points="25.4,35.5 14.6,35.5 14.6,16.1 25.4,16.1 	"/>
	<path class="st2" d="M15.3,25.8c0-3.8,1.7-7.4,4.7-9.7c-5.3-4.2-13.1-3.3-17.3,2.1c-4.2,5.3-3.3,13.1,2.1,17.3
		C9.3,39,15.6,39,20,35.5C17,33.2,15.3,29.6,15.3,25.8z"/>
	<path class="st3" d="M39.5,33.5V33h-0.1l-0.1,0.3L39.2,33h-0.1v0.5h0.1v-0.4l0.1,0.3h0.1l0.1-0.3V33.5L39.5,33.5z M38.8,33.5v-0.4
		H39V33h-0.4v0.1h0.2V33.5L38.8,33.5z"/>
	<path class="st3" d="M39.9,25.8c0,6.8-5.5,12.3-12.3,12.3c-2.8,0-5.4-0.9-7.6-2.6c5.3-4.2,6.3-12,2.1-17.3
		c-0.6-0.8-1.3-1.5-2.1-2.1c5.4-4.2,13.1-3.3,17.3,2.1C39,20.4,39.9,23.1,39.9,25.8z"/>
	<path class="st0" d="M158.7,25.9c0-1.7-1.1-3.5-3.3-3.5c-1.9-0.1-3.4,1.4-3.5,3.3c0,0.1,0,0.1,0,0.2c0,0.8,0.3,1.7,0.8,2.3
		c0.6,0.8,1.6,1.2,2.5,1.2C157.7,29.4,158.7,27.5,158.7,25.9L158.7,25.9z M151.9,23.8c0.6-1.5,2.2-2.1,3.6-2.1
		c2.5,0,4.1,1.7,4.1,4.2c0,2.7-1.9,4.3-4.3,4.3c-1,0-2.1-0.3-2.8-1c-1.3-1.3-1.4-3.2-1.4-4.3c0-1.8,0.3-5,2.5-6.5
		c1-0.6,2.1-0.8,3.1-1c1.2-0.3,1.6-0.6,1.8-1.1h1c-0.6,1.4-1.9,1.7-2.9,1.9c-0.8,0.2-1.9,0.4-2.8,1.1
		C152.4,20.3,151.9,22.3,151.9,23.8L151.9,23.8z"/>
	<path class="st0" d="M162.4,21.9V30h-0.8v-8.1H162.4z M161.3,19.2c0-0.4,0.3-0.7,0.7-0.7s0.7,0.3,0.7,0.7l0,0
		c0,0.4-0.3,0.7-0.7,0.7S161.3,19.6,161.3,19.2L161.3,19.2z"/>
	<path class="st0" d="M170.7,30h-0.8v-7.3h-3.7v4.7c0,0.5,0,1.3-0.5,2c-0.4,0.5-0.9,0.8-1.5,0.7c-0.1,0-0.3,0-0.4,0v-0.8
		c0.1,0,0.2,0,0.3,0c0.4,0,0.8-0.2,1.1-0.5c0.2-0.4,0.3-0.9,0.3-1.4V22h5.3L170.7,30L170.7,30z"/>
	<path class="st0" d="M176,29.2c0.5,0,0.9-0.1,1.3-0.4c0.4-0.3,0.6-0.8,0.6-1.2c0-0.5-0.2-0.9-0.6-1.3c-0.4-0.2-0.8-0.4-1.3-0.3
		h-1.9v3.2H176z M174.1,21.9v3.4h1.9c0.6,0,1.5,0.1,2.1,0.8c0.4,0.4,0.6,1,0.6,1.6c0,0.7-0.2,1.3-0.7,1.7c-0.5,0.5-1.2,0.7-1.9,0.6
		h-2.7v-8.1H174.1z"/>
	<polygon class="st0" points="180.2,21.9 181,21.9 181,29.2 184.7,29.2 184.7,21.9 185.5,21.9 185.5,29.2 189.3,29.2 189.3,21.9 
		190.1,21.9 190.1,30 180.2,30 	"/>
	<path class="st0" d="M199.1,25.3c-0.2-1.6-1.4-2.8-3-2.8s-2.8,1.2-3,2.8H199.1z M193,26c0,2.1,1.5,3.4,3.2,3.4
		c1.2,0,2.3-0.7,2.8-1.8l0.7,0.4c-0.7,1.4-2,2.2-3.6,2.2c-2.5,0-4-1.9-4-4.2c0-2.8,1.9-4.3,3.9-4.3c2.2,0,3.8,1.7,3.8,4.3L193,26z"
		/>
</g>
</svg>
