<?xml version="1.0" encoding="utf-8"?>
<!-- Generator: Adobe Illustrator 21.0.2, SVG Export Plug-In . SVG Version: 6.00 Build 0)  -->
<svg version="1.1" id="Layer_1" xmlns="http://www.w3.org/2000/svg" xmlns:xlink="http://www.w3.org/1999/xlink" x="0px" y="0px"
	 viewBox="0 0 123.2 173.9" style="enable-background:new 0 0 123.2 173.9;" xml:space="preserve">
<style type="text/css">
	.st0{fill:#5B7BBB;}
	.st1{fill:#FFFFFF;}
	.st2{fill:#D17074;}
	.st3{fill:#91CBD4;}
	.st4{fill:#4D4D4D;}
	.st5{fill:#444762;}
	.st6{fill:none;stroke:#5B7BBB;stroke-width:0;stroke-linecap:round;stroke-linejoin:round;}
</style>
<g>
	<path class="st0" d="M56.7,171.4c-0.1,0.3-0.2,0.5-0.3,0.8c-0.2-0.3-0.4-0.7-0.6-1C56.1,171.2,56.4,171.3,56.7,171.4z"/>
	<path class="st0" d="M56.4,172.5c-0.1,0-0.2-0.1-0.3-0.2l-0.6-1c-0.1-0.1-0.1-0.3,0-0.4c0.1-0.1,0.2-0.1,0.3-0.1
		c0.3,0.1,0.5,0.2,0.8,0.3c0.1,0,0.2,0.1,0.2,0.2c0,0.1,0,0.2,0,0.3c-0.1,0.3-0.2,0.5-0.3,0.7C56.7,172.4,56.6,172.5,56.4,172.5
		C56.4,172.5,56.4,172.5,56.4,172.5z"/>
</g>
<g>
	<path class="st0" d="M25,170.2c-0.2,0.3-0.4,0.6-0.5,0.9c-0.2-0.4-0.3-0.8-0.5-1.2C24.3,170,24.7,170.1,25,170.2z"/>
	<path class="st0" d="M24.5,171.4C24.5,171.4,24.5,171.4,24.5,171.4c-0.1,0-0.2-0.1-0.3-0.2l-0.5-1.2c0-0.1,0-0.2,0.1-0.3
		c0.1-0.1,0.2-0.1,0.3-0.1c0.3,0.1,0.7,0.2,1,0.3c0.1,0,0.2,0.1,0.2,0.2c0,0.1,0,0.2,0,0.3c-0.2,0.3-0.3,0.6-0.5,0.9
		C24.7,171.3,24.6,171.4,24.5,171.4z"/>
</g>
<g>
	<path class="st1" d="M114.1,25.8c2-0.5,3.7-1.8,4.9-3.6c-0.5,0.3-0.9,0.4-1.4,0.4c0,0,0,0,0,0c-0.7,0-1.2-0.3-1.6-0.8
		c-0.9-1.2-0.7-3.5-0.3-4.6c0.4-1.1,1.4-2.6,2.7-3.2l0,0c0.6-0.5,1.3-0.6,2-0.4c-0.9-2.4-2.9-3.8-5.8-3.9c-2.1-0.1-4.2,0.3-6.3,1.2
		c0.2,0.2,0.3,0.5,0.4,0.7c0.1,0.5-0.2,0.9-0.6,1c-3.6,1.5-5.1,4.4-4,7.6C105.2,23.8,109.4,26.9,114.1,25.8z"/>
	<path class="st1" d="M78.5,59.6c0,0.1,0,0.2,0,0.4c-0.1,0.9-0.1,1.8,0.5,2.4c0.6,0.6,1.6,1.1,2.3,0.8c0.7-0.3,1.1-1.3,1.2-2.9
		l-0.1-1.4c-0.4,0.1-0.7,0.2-1.1,0.2C80.4,59.3,79.5,59.5,78.5,59.6z"/>
	<path class="st1" d="M85.8,19.8c1.8,0,3.4-0.6,4.5-1.7c3.1-3.2,2.9-7.4,1.6-10.2c-1.6-3.6-5.1-5.8-8.7-5.6c-1.8,0.1-3.6,0.8-5.2,2
		c0.3,0,0.5,0.2,0.7,0.3C79.1,5,79.1,5.5,78.8,6c-2.2,3-3.4,7.3-0.3,10.7C80.3,18.5,83.2,19.8,85.8,19.8z M86.7,9
		c0.5-0.2,1.1-0.2,1.6,0c0.4-0.1,0.8-0.2,1.2-0.2c0.6-0.1,1,0.3,1.1,0.8c0.1,0.5-0.1,1-0.5,1.3c0.4,1.3,0.1,3-0.4,4.1
		c-0.2,0.5-0.9,1.5-1.8,1.5c-0.2,0-0.5-0.1-0.7-0.2c-0.2,0.1-0.4,0.1-0.5,0.1c-0.3,0-0.6-0.1-0.9-0.2c-0.6-0.3-1-0.9-1.1-1.7
		c0-0.1-0.1-0.3-0.1-0.4c0,0,0,0,0,0c0,0,0,0,0,0c0,0,0,0,0,0c0,0,0,0,0,0c0,0,0,0,0,0c0,0,0,0,0,0c0,0,0,0,0,0
		C84.1,12.1,85,9.6,86.7,9z"/>
	<path class="st1" d="M80.8,86.2c0.6-0.5,0.3-1.6,0-2.5c-0.2-0.5-0.4-0.8-0.7-0.9c-0.3-0.1-0.6-0.1-1,0.2c-1.3,0.7-2.8,2.8-2.6,4.3
		c0.1,0.5-0.1,0.9-0.4,1.1c1.6-0.3,3.1-0.8,4.5-1.5C80.5,86.6,80.6,86.4,80.8,86.2z"/>
	<path class="st2" d="M63.5,122.6c0.1,2,0.4,4.1,0.6,6.1c0.1,0.6,0.1,1.1,0.2,1.7c0.2,1.5,0.5,3.3,0.9,5c0.3,1.5,1,2.8,2,3.9
		l2.5-0.4c0,0,0,0,0-0.1l0,0c0.5-1.3-0.4-4.9-0.8-6.8c-0.1-0.5-0.2-0.9-0.3-1.2c-0.1-0.3-0.1-0.6-0.2-0.9c-0.5-2.3-1.4-7.2-3.2-7.9
		c0,0,0,0,0,0c-0.5-0.2-0.8-0.7-0.7-1.3c-0.7,0.1-1.2,0.5-1.7,0.9C63.2,121.8,63.5,122.2,63.5,122.6z"/>
	<path class="st1" d="M60,84.1c-0.1-0.5-0.1-1-0.3-1.5c-0.1-0.2-0.1-0.5-0.2-0.7c0,0,0,0,0,0l0-0.1c0,0,0-0.1,0-0.1c0,0,0,0,0,0
		c-0.3,0.2-0.5,0.6-0.8,1c-0.1,0.1-0.2,0.2-0.3,0.4c0.5,0.4,1.1,0.9,1.7,1.3C60,84.2,60,84.2,60,84.1z"/>
	<path class="st1" d="M57.4,62.5c0.3,1.3,0.5,1.4,0.6,1.4c0,0,0.1,0,0.3-0.2c0,0,0,0,0,0c1.2-1.3,2-2.8,2.3-4.2
		c-1.2,0.2-2.3,0.4-3.4,0.8C57.2,61,57.3,61.8,57.4,62.5z"/>
	<path class="st3" d="M101.3,49.6C101.3,49.6,101.2,49.6,101.3,49.6c-0.6,0-1-0.3-1.1-0.8c-0.1-0.4,0-0.8,0.3-1.2
		c-1.1-1.4-2.2-2.8-3.2-3.9c-3.4-4-7.9-7.4-12.8-9.6l0,0c-0.2,0.3-0.5,0.4-0.8,0.4c-0.2,0-0.3,0-0.5-0.1c-0.4-0.2-0.6-0.6-0.7-1.1
		c-5.3-2-11.6-3.3-18.3-3.9c-3.4-0.3-6.8-0.3-9.9-0.3c-3.2,0-5.6,0.4-8.1,1.3c-0.1,0.1-0.1,0.1-0.2,0.2c-1.1,0.8-2.4,1.4-3.7,1.9
		c-1.3,0.6-2.6,1.1-3.8,2c-1.6,1.1-3.3,2.5-5,4h0c-1,0.9-2,1.8-3,2.8c-4.1,3.9-7.6,8.6-10.8,14.1c0,0,0,0,0,0
		c-0.6,1-1.1,2.1-1.7,3.2c-3.7,7.3-6.1,15.5-7.4,25.2l0,0c-0.7,5.3-1,10.8-1,17c0,7,0.2,12.9,0.9,19c0.1,1.1,0.4,2.3,0.7,3.6
		c0.8,3.4,2.2,6.8,3.5,10c0.4,1.1,0.9,2.2,1.3,3.3c2.4,6.2,6.3,11.7,11,15.3c1.8,1.4,4.1,2.4,6.8,3.2c3.6,1,7.6,1.4,11.3,1.7
		c8.9,0.6,21.5,0.7,29.4-6.1c0-0.3,0-0.5,0.1-0.7c0-0.5,0.3-0.8,0.7-1c0.3-0.1,0.7-0.1,1,0c1.4-1.5,2.5-3.2,3.4-5l0,0
		c0-0.2,0.1-0.4,0.2-0.5c1.6-3.7,2.2-7.9,1.8-12.2l0,0l0,0c-0.2-2.3-0.8-4.6-1.6-6.7v0c-0.8-2.2-2.2-4.3-3.5-6.3
		c-0.7-1.1-1.5-2.3-2.2-3.5c-0.5-0.1-1-0.2-1.5-0.3l-0.4-0.1c-0.4-0.1-0.7-0.3-0.8-0.7c-0.1-0.4,0-0.9,0.3-1.2
		c0.3-0.3,0.7-0.4,1.1-0.4c0,0,0,0,0,0c-0.4-1-0.7-2-0.9-3c-1.3-7.6,6.9-9.7,13.4-11.4c2.1-0.5,4-1,5.4-1.7
		c11.5-5,17.9-21.6,16.4-33.3c-0.1-0.5-0.2-1-0.3-1.5l0,0c0,0,0,0,0,0c-0.4-0.1-0.7-0.5-0.8-0.9c0-0.4,0.1-0.7,0.3-1
		c-0.3-1-0.7-1.9-1.2-3c-0.2,0-0.4,0-0.6-0.1c-0.7-0.1-1.1-0.7-1.1-1.3c0-0.4,0.2-0.7,0.5-0.9c-0.8-1.5-1.8-3-2.9-4.6L101.3,49.6z
		 M21.2,73.1c-0.2,0.2-0.5,0.4-0.8,0.4c-0.3,0-0.5-0.1-0.8-0.3c-0.1-0.1-0.3-0.3-0.4-0.4c-0.5-0.5-0.4-1.2,0-1.6
		c0.4-0.4,1.1-0.5,1.6,0c0.1,0.1,0.3,0.3,0.4,0.4c0,0,0,0,0,0C21.8,72.1,21.7,72.7,21.2,73.1z M24.2,140.5c-0.2,0.2-0.5,0.4-0.8,0.4
		c-0.7,0-1.1-0.6-1.1-1.2c0-0.3,0.1-0.6,0.3-0.8c0.2-0.2,0.5-0.4,0.8-0.4c0.7,0,1.1,0.6,1.1,1.2C24.5,140.1,24.4,140.3,24.2,140.5z
		 M25.5,100.8c-0.2,0.2-0.5,0.4-0.8,0.4c-0.7,0-1.1-0.6-1.1-1.2c0-0.3,0.1-0.6,0.3-0.8c0.2-0.2,0.5-0.4,0.8-0.4
		c0.7,0,1.1,0.6,1.1,1.2C25.8,100.3,25.7,100.6,25.5,100.8z M28.8,114.6c-0.2,0.2-0.5,0.4-0.8,0.4c-0.3,0-0.5-0.1-0.8-0.3
		c-0.1-0.1-0.3-0.3-0.4-0.4c-0.5-0.5-0.4-1.2,0-1.6c0.4-0.4,1.1-0.5,1.6,0c0.1,0.1,0.3,0.3,0.4,0.4c0,0,0,0,0,0
		C29.3,113.5,29.2,114.2,28.8,114.6z M32.2,87.4c-0.2,0.2-0.5,0.4-0.8,0.4c-0.7,0-1.1-0.6-1.1-1.2c0-0.3,0.1-0.6,0.3-0.8
		c0.2-0.2,0.5-0.4,0.8-0.4c0.7,0,1.1,0.6,1.1,1.2C32.5,86.9,32.4,87.2,32.2,87.4z M32.9,52.2c0,0.7-0.6,1.1-1.2,1.1
		c-0.6,0-1.2-0.4-1.2-1.1v-0.4c0-1.5,2.3-1.5,2.3,0V52.2z M38.9,45.3c0.4-0.2,0.9-0.1,1.2,0.2c0.1,0.1,0.2,0.2,0.2,0.2c0,0,0,0,0,0
		c0.2,0.2,0.3,0.5,0.3,0.8c0,0.5-0.3,0.9-0.8,1.1c-0.1,0.1-0.3,0.1-0.4,0.1c-0.3,0-0.6-0.1-0.8-0.3c-0.1-0.1-0.2-0.2-0.2-0.2
		c-0.2-0.2-0.3-0.5-0.3-0.8C38.1,46,38.5,45.5,38.9,45.3z M38,62.8c0.2-0.2,0.5-0.4,0.8-0.4c0.7,0,1.1,0.6,1.1,1.2
		c0,0.3-0.1,0.6-0.3,0.8c-0.2,0.2-0.5,0.4-0.8,0.4c-0.7,0-1.1-0.6-1.1-1.2C37.8,63.3,37.9,63,38,62.8z M40.7,142.5
		c-0.1,0-0.2,0-0.2,0c-2.5,0-4-3.4-4.7-5c-0.8-1.8-1.3-3.7-1.6-5.6c0,0,0,0,0,0l0,0c0,0,0,0,0,0v0l0-0.3c0-0.2-0.1-0.5-0.1-0.7
		c0-0.4-0.1-0.8-0.1-1.1c0-0.1,0-0.2,0-0.4h0c0,0,0,0,0-0.1c0,0,0,0,0,0c0,0,0,0,0,0h0c0,0,0,0,0,0c-0.1-1.9,0.1-3.8,0.6-5.7
		c0.1-0.4,0.3-0.6,0.6-0.7c0,0,0,0,0,0c0,0,0,0,0,0c0,0,0,0,0,0c0,0,0,0,0,0c0.1,0,0.2,0,0.2-0.1c0.1-0.3,0.2-0.6,0.4-0.9
		c0.2-0.5,0.6-0.7,1-0.9c0.1-0.3,0.3-0.6,0.4-0.9c0.5-0.9,2-1,2.4,0c0.1,0.2,0.1,0.4,0.2,0.6c0.1,0,0.2,0.1,0.3,0.2c0,0,0,0,0,0
		c0,0,0,0,0,0c0,0,0,0,0,0c0,0,0,0,0,0c0.1,0.1,0.2,0.2,0.3,0.3c2.2,3.1,3.4,7.8,3.5,14.2l0,0.2C43.8,137.7,43.9,142.2,40.7,142.5z
		 M44.3,102.9c-0.2,0.2-0.5,0.4-0.8,0.4c-0.7,0-1.1-0.6-1.1-1.2c0-0.3,0.1-0.6,0.3-0.8c0.2-0.2,0.5-0.4,0.8-0.4
		c0.7,0,1.1,0.6,1.1,1.2C44.6,102.4,44.5,102.6,44.3,102.9z M80.6,44.7c0,0.3-0.1,0.6-0.3,0.8c-0.2,0.2-0.5,0.4-0.8,0.4
		c-0.7,0-1.1-0.6-1.1-1.2c0-0.3,0.1-0.6,0.3-0.8c0.2-0.2,0.5-0.4,0.8-0.4C80.2,43.6,80.6,44.1,80.6,44.7z M77.1,35.1
		c0-1.5,2.3-1.5,2.3,0v0.4c0,0.7-0.6,1.1-1.2,1.1c-0.6,0-1.2-0.4-1.2-1.1V35.1z M69,39.3c0.2-0.2,0.5-0.4,0.8-0.4
		c0.7,0,1.1,0.6,1.1,1.2c0,0.3-0.1,0.6-0.3,0.8c-0.2,0.2-0.5,0.4-0.8,0.4c-0.7,0-1.1-0.6-1.1-1.2C68.7,39.8,68.8,39.5,69,39.3z
		 M62.7,51c0.2-0.2,0.5-0.4,0.8-0.4c0.7,0,1.1,0.6,1.1,1.2c0,0.3-0.1,0.6-0.3,0.8c-0.2,0.2-0.5,0.4-0.8,0.4c-0.7,0-1.1-0.6-1.1-1.2
		C62.5,51.5,62.6,51.3,62.7,51z M53.1,33.5c0.2-0.2,0.5-0.4,0.8-0.4c0.7,0,1.1,0.6,1.1,1.2c0,0.3-0.1,0.6-0.3,0.8
		c-0.2,0.2-0.5,0.4-0.8,0.4c-0.7,0-1.1-0.6-1.1-1.2C52.8,33.9,52.9,33.7,53.1,33.5z M51.9,39.3c0.2-0.2,0.5-0.4,0.8-0.4
		c0.7,0,1.1,0.6,1.1,1.2c0,0.3-0.1,0.6-0.3,0.8c-0.2,0.2-0.5,0.4-0.8,0.4c-0.7,0-1.1-0.6-1.1-1.2C51.6,39.8,51.7,39.5,51.9,39.3z
		 M50.7,53.5c0-1.5,2.3-1.5,2.3,0v0.4c0,0.7-0.6,1.1-1.2,1.1c-0.6,0-1.2-0.4-1.2-1.1V53.5z M47.7,85.7c-0.5-0.5-0.4-1.2,0-1.6
		c0.4-0.4,1.1-0.5,1.6,0c0.1,0.1,0.3,0.3,0.4,0.4c0,0,0,0,0,0c0.5,0.5,0.4,1.2,0,1.6c-0.2,0.2-0.5,0.4-0.8,0.4
		c-0.3,0-0.5-0.1-0.8-0.3C48,86,47.8,85.9,47.7,85.7z M49,110.4C49,110.4,49,110.4,49,110.4c-0.5-0.5-0.4-1.2,0-1.6
		c0.4-0.4,1.1-0.5,1.6,0c0.1,0.1,0.3,0.3,0.4,0.4c0.5,0.5,0.4,1.2,0,1.6c-0.2,0.2-0.5,0.4-0.8,0.4c-0.3,0-0.5-0.1-0.8-0.3
		C49.2,110.7,49.1,110.6,49,110.4z M52.2,131.8c0,0.7-0.6,1.1-1.2,1.1c-0.6,0-1.2-0.4-1.2-1.1v-0.4c0-1.5,2.3-1.5,2.3,0V131.8z
		 M57.6,150.5c0,0.5-0.2,0.8-0.6,1c-0.2,0.1-0.3,0.1-0.5,0.1c-0.3,0-0.6-0.1-0.8-0.3c-0.2-0.2-0.4-0.5-0.4-0.9v-0.3
		c0-0.5,0.3-0.9,0.7-1.1c0.5-0.2,1,0,1.3,0.4c0.1,0.2,0.2,0.4,0.2,0.7V150.5z M59.4,126.3c-0.2,0.2-0.5,0.4-0.8,0.4
		c-0.7,0-1.1-0.6-1.1-1.2c0-0.3,0.1-0.6,0.3-0.8c0.2-0.2,0.5-0.4,0.8-0.4c0.7,0,1.1,0.6,1.1,1.2C59.7,125.8,59.6,126.1,59.4,126.3z
		 M60.4,104.6c0-0.3,0.1-0.6,0.3-0.8c0.2-0.2,0.5-0.4,0.8-0.4c0.7,0,1.1,0.6,1.1,1.2c0,0.3-0.1,0.6-0.3,0.8
		c-0.2,0.2-0.5,0.4-0.8,0.4C60.8,105.7,60.4,105.2,60.4,104.6z M70.8,142.4c-0.5,0.4-1.1,0.6-1.6,0.6c-0.2,0-0.4,0-0.6-0.1
		c-2-0.4-3.8-3-4.5-4.2c-1.9-3.6-2.4-8.6-2.7-13.4l0,0c0,0,0,0,0,0c0-0.2,0-0.3,0-0.5c0,0,0-0.1,0-0.1l0-0.9c0-0.4,0-0.8-0.1-1.2
		c0-0.4,0.1-0.7,0.4-0.9c0.3-0.2,0.8-0.3,1.2-0.1c0,0,0,0,0,0c0,0,0,0,0,0c0,0,0,0,0,0c0,0,0,0,0,0c0,0,0.1,0,0.1,0.1
		c0.5-0.5,1.1-0.8,1.7-0.9c0,0,0-0.1,0-0.1c0,0,0,0,0,0c0,0,0,0,0,0c0,0,0,0,0,0c0,0,0,0,0,0c0.1-0.3,0.3-0.6,0.5-0.7
		c0.2-0.1,0.5-0.2,0.9,0c3.5,1.4,4.4,7,5,10.7c0.1,0.5,0.1,0.9,0.2,1.2c0.1,0.3,0.1,0.7,0.2,1.2C72,135.9,73,140.6,70.8,142.4z
		 M82.9,96.2c-0.2,0.2-0.5,0.4-0.8,0.4h-0.4c-0.7,0-1.1-0.6-1.1-1.2c0-0.3,0.1-0.6,0.3-0.8c0.2-0.2,0.5-0.4,0.8-0.4H82
		c0.7,0,1.1,0.6,1.1,1.2C83.1,95.7,83,95.9,82.9,96.2z M89.2,81.2c-1.9,2.9-4.2,5.2-7,6.8l0,0c0,0,0,0,0,0l0,0l0,0
		c-3.1,1.8-6.5,2.7-10,2.7c-3.9,0-8-1.2-11.7-3.5c0,0,0,0-0.1,0c-0.1,0-0.2,0-0.3,0c-0.5-0.1-0.9-0.4-1-0.8
		c-0.2-0.2-0.5-0.3-0.7-0.5c-6-4.5-9.2-9.3-9.8-14.5c-0.5-4.4-0.5-9.9,4.8-12.6c0.4-0.2,0.8-0.2,1.1,0c2.1-1.1,4.4-1.7,7.4-1.9l0,0
		c0.8,0,1.8-0.1,2.8,0c1.6,0,3.2,0.2,4.7,0.3c2.2,0.2,4.5,0.4,6.8,0.3c2.5-0.1,5-0.7,7.4-1.2c1.2-0.3,2.4-0.5,3.6-0.8
		c1.8-0.3,3.2-0.1,4.3,0.8c1.4,1.1,2.3,3.1,2.7,6.3C95.1,68.2,93.2,75.2,89.2,81.2z M95.1,69.8c0-0.3,0.1-0.6,0.3-0.8
		c0.2-0.2,0.5-0.4,0.8-0.4c0.7,0,1.1,0.6,1.1,1.2c0,0.3-0.1,0.6-0.3,0.8c-0.2,0.2-0.5,0.4-0.8,0.4C95.5,71,95.1,70.4,95.1,69.8z
		 M97.9,84.9c-0.2,0.2-0.5,0.4-0.8,0.4c-0.7,0-1.1-0.6-1.1-1.2c0-0.3,0.1-0.6,0.3-0.8c0.2-0.2,0.5-0.4,0.8-0.4
		c0.7,0,1.1,0.6,1.1,1.2C98.2,84.4,98.1,84.6,97.9,84.9z M104.5,68.6V69c0,0.7-0.6,1.1-1.2,1.1c-0.6,0-1.2-0.4-1.2-1.1v-0.4
		C102.2,67.1,104.5,67.1,104.5,68.6z"/>
	<path class="st2" d="M85.7,80.2c-0.1,0-0.1,0-0.2,0c-0.4-0.1-0.8-0.4-0.8-0.8L84.6,79c-0.5-2.7-1-5.4-4.1-6.3
		c-1.3-0.3-3.3,0.1-4.7,0.4l-0.5,0.1c-0.3,0.1-0.6,0.1-0.9,0.2c-1.7,0.4-3.4,0.7-5.2,0.5c-1.6-0.2-2.9-0.8-4.3-1.4
		c-0.4-0.2-0.8-0.4-1.2-0.6c-5-2.1-8.1,1.4-9.9,4.7c-0.1,0.2-0.3,0.4-0.6,0.5c0.9,1.5,2.1,2.9,3.5,4.2c0.1-0.1,0.2-0.2,0.3-0.4
		c0.6-0.8,1.3-1.8,2.4-1.9c1.8-0.2,2.3,1.8,2.6,2.7c0.2,0.6,0.6,2.5,0.3,3.9c0.7,0.4,1.5,0.8,2.2,1.2c3.3,1.5,6.9,2,10.3,1.6
		c-0.1,0-0.1,0-0.2-0.1c-0.2-0.1-0.3-0.3-0.4-0.7c-0.2-1.6,0.5-3.6,1.7-5.2c1.1-1.3,2.4-2.1,3.7-2.2c0.8-0.1,1.7,0.3,2.3,0.9
		c0.8,0.8,1.4,2.1,1.5,3.4c1.4-1.3,2.7-2.9,3.9-4.8l-0.6-0.3C86.6,79.9,86.1,80.2,85.7,80.2z"/>
	<path class="st4" d="M90.3,59c-1.3-1.5-1.6-1.4-2.9-1.1c-0.3,0.1-0.6,0.1-1,0.2c-0.4,0.1-0.7,0.1-1.1,0.2l-0.6,0.1l0.1,1
		c0,0,0,0,0,0c0,0,0,0,0,0l0,0c0,0.1,0.1,0.2,0.1,0.3c0,0.1,0,0.3,0,0.5c0,0,0,0,0,0c0,0,0,0,0,0c0,0,0,0,0,0c0,0,0,0,0,0
		c-0.2,3-1.4,4.9-3.3,5.2c-0.2,0-0.4,0-0.5,0c-1.3,0-2.6-0.7-3.5-1.5c-1.3-1.2-1.3-2.7-1.2-4.2c-2.3,0.1-4.6-0.1-6.8-0.3
		c-2.2-0.2-4.4-0.3-6.5-0.3c-0.2,1.2-0.7,2.6-1.3,3.8c-1,1.8-2,2.9-3,3.2c-0.2,0.1-0.4,0.1-0.6,0.1c-1.1,0-2-1.1-2.5-2.2
		c-0.4-0.9-0.5-1.9-0.6-2.9c-1.3,0.8-2.5,1.8-3.5,3c0,0-0.1,0.1-0.1,0.1C50,67.7,50.7,72,52,75c1.2-2.1,3.5-5.1,6.9-6
		c2.4-0.7,4.5,0.3,6.5,1.2c1.5,0.7,3.1,1.4,4.9,1.4c0,0,0,0,0,0c1.4,0,2.8-0.3,4.4-0.7c2.7-0.6,5.6-1.3,8.1-0.1
		c2.9,1.4,3.6,5.2,4.1,7.9c0,0.3,0,0.5-0.1,0.7c0,0,0,0,0,0l0.6,0.3c0,0,0,0,0,0c0.9-1.5,1.7-3.1,2.5-5C92.1,69.2,93.9,63,90.3,59z"
		/>
	<path class="st2" d="M36.3,123c0.3,0.3,0.5,0.7,0.3,1.1c-0.8,3.3-0.7,6.8,0.4,10.2c0.4,1.2,0.8,2.2,1.2,3c0.1,0.2,0.2,0.4,0.3,0.6
		c0.5,1.1,0.7,1.5,1.9,1.1c2-0.7,1-6.4,0.6-8.5l-0.1-0.4c-0.5-3-1.1-5.7-2.7-7.9c-0.3-0.4-0.3-1,0.1-1.3c0.3-0.3,0.8-0.4,1.2-0.3
		c-0.1-0.2-0.1-0.4-0.2-0.6c-0.4-1-1.9-0.9-2.4,0c-0.2,0.3-0.3,0.6-0.4,0.9c-0.4,0.1-0.8,0.4-1,0.9c-0.1,0.3-0.2,0.6-0.4,0.9
		C35.6,122.7,36,122.8,36.3,123z"/>
	<path class="st0" d="M103.4,70.1c0.6,0,1.2-0.4,1.2-1.1v-0.4c0-1.5-2.3-1.5-2.3,0V69C102.2,69.7,102.8,70.1,103.4,70.1z"/>
	<path class="st0" d="M97.1,82.9c-0.3,0-0.6,0.1-0.8,0.4c-0.2,0.2-0.3,0.5-0.3,0.8c0,0.6,0.4,1.2,1.1,1.2c0.3,0,0.6-0.1,0.8-0.4
		c0.2-0.2,0.3-0.5,0.3-0.8C98.2,83.5,97.8,82.9,97.1,82.9z"/>
	<path class="st0" d="M97.1,70.6c0.2-0.2,0.3-0.5,0.3-0.8c0-0.6-0.4-1.2-1.1-1.2c-0.3,0-0.6,0.1-0.8,0.4c-0.2,0.2-0.3,0.5-0.3,0.8
		c0,0.6,0.4,1.2,1.1,1.2C96.6,71,96.9,70.9,97.1,70.6z"/>
	<path class="st5" d="M120.1,9.3c-3.5-3.1-8.5-1.8-12.4-0.4c-5,1.8-8.6,5.7-12.1,9.4c-3.1,3.3-6.1,6.8-9.1,10.2c-0.9,1-1.8,2-2.7,3
		c-1.7-0.7-3.6-1.3-5.6-1.9c0.3-0.3,0.6-0.5,0.9-0.7c0.7-0.5,1.4-1.1,1.9-1.8c0.5-0.6,0.3-1.3-0.2-1.7c-0.5-0.4-1.1-0.3-1.5,0.1
		c-0.5,0.6-1.2,1.1-1.9,1.7c-0.5,0.4-1,0.8-1.5,1.2c0,0,0,0,0,0c-0.2,0.2-0.3,0.4-0.3,0.6c-2.9-0.7-6.1-1.2-9.7-1.6
		c0.1-0.2,0.2-0.4,0.2-0.7c0.3-0.9,0.7-1.9,1.3-2.5c0.5-0.5,0.4-1.1,0.1-1.5c-0.4-0.4-1.1-0.6-1.7-0.1c-0.9,0.8-1.3,2-1.7,3
		c-0.2,0.5-0.4,1-0.6,1.4c0,0,0,0,0,0c0,0,0,0.1,0,0.1c-1-0.1-2.1-0.2-3.3-0.3c0,0,0-0.1,0-0.1c0.7-2,2.3-4.1,3.7-6
		c0.3-0.4,0.6-0.8,0.8-1.1c1-1.4,2.2-2.8,3.3-4.1c0.9-1,1.8-2,2.6-3.1c0.4-0.6,0.8-1.1,1.3-1.7c1.2-1.6,2.5-3.3,3.9-4.8
		c-1.8,3.1-2.1,6.5-0.8,9.5c1.5,3.6,5.1,6.1,9.4,6.6c3.2,0.4,6-0.8,8-3.4c2.4-3.2,3-7.8,1.5-11.6c-1.5-3.6-4.8-6.2-8.8-6.9
		c-4.2-0.7-8.5,0.9-11.1,4c-1.5,1.8-2.9,3.7-4.3,5.5c-1.3,1.8-2.7,3.6-4.2,5.3l-0.4,0.4c-2.6,3.2-5.9,7.1-7.2,11c0,0.1,0,0.2,0,0.3
		c-4.1-0.2-9.2,0-14.3,2.3c-0.1-0.2-0.3-0.4-0.5-0.5l-0.9-0.4c-1.1-0.5-2.3-0.9-3.4-1.3c-0.7-0.2-1.4-0.4-2.1-0.4
		c-0.1,0-0.3,0-0.5,0c-0.3,0-0.9,0-1-0.1c-0.5-0.5-1.2-0.4-1.6,0c-0.4,0.4-0.6,1.1-0.1,1.6c0.7,0.7,1.6,0.8,2.4,0.8
		c0.3,0,0.7,0,1,0.1c1.5,0.3,2.9,0.9,4.3,1.4l0.1,0c-0.1,0-0.2,0.1-0.2,0.1c-1,0.4-2,0.9-2.9,1.4c0,0-0.1,0-0.1,0
		c-1.3-0.1-2.6-0.4-3.9-0.6c-1.7-0.3-3.5-0.7-5.3-0.7c-0.7,0-1.1,0.6-1.1,1.2c0,0.6,0.4,1.2,1.1,1.2c1.7,0,3.5,0.3,5.2,0.6
		c0.5,0.1,1,0.2,1.5,0.3c-1.1,0.9-2.1,1.8-3,2.6c-2-0.7-4.4-1.3-6.9-0.7c-0.4,0.1-0.7,0.4-0.8,0.7c-0.1,0.4,0,0.9,0.3,1.2
		c0.3,0.3,0.7,0.4,1.1,0.3c1.5-0.4,3-0.1,4.2,0.2c-0.1,0.1-0.2,0.2-0.3,0.3c-4.7,4.1-8.9,9.3-12.3,15.4c0,0,0,0,0,0
		c-0.8,0.4-1.6,0.9-2.3,1.4c-1.1,0.7-2.3,1.4-3.5,2c-0.4,0.2-0.6,0.5-0.6,0.8c0,0.4,0.2,0.8,0.6,1.1c0.2,0.1,0.4,0.2,0.6,0.2
		c0.2,0,0.4,0,0.5-0.1c0.9-0.5,1.8-1,2.6-1.5c-1.4,2.8-2.6,5.3-3.5,7.8c-0.1-0.2-0.3-0.4-0.5-0.5c-0.3-0.2-0.7-0.1-1.1,0.1
		c-1.9,1.3-4.2,2.8-6.1,4.8c-0.5,0.5-0.4,1.2,0,1.6c0.2,0.2,0.5,0.3,0.8,0.3c0.3,0,0.5-0.1,0.8-0.3c1.6-1.7,3.5-3,5.3-4.2
		c-0.5,1.5-1,3-1.3,4.6c-0.3,1.1-0.5,2.3-0.8,3.6c0,0,0-0.1,0-0.1c-0.2-0.4-0.6-0.6-1-0.7c-0.4,0-0.8,0.1-1.1,0.5
		c-0.2,0.3-0.4,0.6-0.6,0.8c-0.8,1.1-1.6,2.2-2.6,3.1c-0.5,0.4-0.5,1-0.1,1.5C4.7,80.8,5,81,5.4,81c0.3,0,0.5-0.1,0.8-0.3
		c1.2-1,2-2.3,2.9-3.5c0.2-0.3,0.4-0.6,0.6-0.9c0,0,0,0,0,0c-0.3,1.9-0.6,4-0.9,6.3c-0.2,0.1-0.4,0.1-0.5,0.3l-0.5,0.5
		c-0.9,1-1.9,2-3.1,2.7c-0.4,0.2-0.6,0.6-0.5,1c0,0.4,0.3,0.8,0.6,1c0.2,0.1,0.3,0.1,0.5,0.1c0.2,0,0.4-0.1,0.6-0.2
		c0.9-0.6,1.8-1.3,2.5-2c-0.1,1.4-0.3,2.7-0.4,4.1C8,90.5,8,90.9,8,91.4c-0.1-0.2-0.3-0.4-0.5-0.5c-0.3-0.2-0.7-0.1-1,0.1
		c-2.1,1.5-3.9,2.9-5.6,4.3c-0.5,0.4-0.5,1-0.1,1.5c0.2,0.3,0.6,0.5,1,0.5c0.3,0,0.5-0.1,0.7-0.3c1.5-1.3,3.3-2.6,5.2-4
		c0.1,0,0.1-0.1,0.2-0.2c-0.5,5.4-0.6,11-0.4,16.4c0,0,0,0,0,0c-0.2-0.2-0.5-0.3-0.9-0.3c-0.3,0-0.6,0.1-0.8,0.3c0,0,0,0,0,0
		c-0.5,0.6-1.1,1.1-1.8,1.5c-0.4,0.2-0.6,0.5-0.6,0.9c0,0.4,0.2,0.8,0.6,1.1c0.2,0.1,0.4,0.2,0.6,0.2c0.2,0,0.4,0,0.6-0.1
		c0.9-0.5,1.7-1.1,2.4-1.9c0,0,0.1-0.1,0.1-0.2c0.1,1.4,0.2,2.7,0.3,4c-0.3,0-0.6,0.1-0.9,0.4c-0.3,0.4-0.7,0.8-1,1.2
		c-0.4,0.5-0.9,1.1-1.3,1.6c-0.3,0.4-0.6,0.8-0.8,1.2c-0.3,0.5-0.7,1-1,1.4c-0.5,0.6-0.3,1.3,0.1,1.7c0.2,0.2,0.5,0.3,0.7,0.3
		c0.3,0,0.6-0.1,0.8-0.4c0.4-0.5,0.8-1,1.1-1.5c0.2-0.4,0.5-0.7,0.7-1.1c0.5-0.6,1-1.2,1.5-1.8c0.1-0.2,0.3-0.3,0.4-0.5
		c0.3,1.9,0.6,3.8,1,5.7c-0.1,0.1-0.2,0.2-0.3,0.3c-0.6,1-1.2,1.9-1.8,2.9l-0.3,0.5c-0.1,0.1-0.2,0.3-0.3,0.4
		c-0.5,0.8-1,1.5-1.1,2.6c0,0.7,0.5,1.1,1.1,1.1c0,0,0,0,0,0c0.6,0,1.2-0.4,1.2-1.1c0-0.6,0.6-1.3,1-1.9c0.2-0.2,0.3-0.5,0.5-0.7
		c0.2-0.4,0.5-0.8,0.7-1.1c0.5,1.8,1.1,3.6,1.8,5.5c-0.1,0-0.2,0-0.3,0c-0.4,0-0.7,0.3-0.8,0.6c-0.3,0.6-0.5,1.1-0.8,1.7
		c-0.8,1.6-1.5,3.2-2.2,4.8c-0.2,0.4-0.1,0.7,0.1,1c0.2,0.3,0.6,0.4,1,0.4c0.1,0,0.1,0,0.2,0c0.4-0.1,0.8-0.3,1-0.7
		c0.6-1.4,1.3-2.8,1.9-4.2c0.3-0.5,0.5-1.1,0.8-1.6c0.1,0.2,0.2,0.4,0.3,0.7c0.4,0.9,0.7,1.9,1,2.8c0.3,0.9,0.7,1.8,1,2.7
		c-0.2-0.2-0.5-0.3-0.7-0.3c0,0,0,0,0,0c-0.4,0-0.7,0.2-0.9,0.6c-0.2,0.4-0.4,0.7-0.6,1.1c-0.4,0.7-0.8,1.3-1.2,2
		c-0.2,0.3-0.3,0.6-0.4,0.9c-0.3,0.6-0.5,1.2-1,1.7c-0.5,0.5-0.4,1.2,0,1.6c0.2,0.2,0.5,0.4,0.8,0.4c0.3,0,0.5-0.1,0.8-0.3
		c0.6-0.6,0.9-1.3,1.2-1.9c0.1-0.3,0.2-0.5,0.4-0.8c0.4-0.8,0.9-1.5,1.3-2.3c0.2-0.4,0.4-0.8,0.7-1.1c0.1-0.1,0.1-0.2,0.1-0.4
		c0.3,0.8,0.7,1.6,1.1,2.3c1.1,2,2.7,3.7,4.2,5.4c0.4,0.5,0.9,1,1.3,1.5c3,3.5,6.4,5.7,10.7,7.1c-0.3,0.7-0.8,1.3-1.4,1.9
		c-0.2,0.2-0.4,0.4-0.6,0.6c-1.2,1.4-2.3,2.8-3.2,3.9l-0.3,0.4c-1.6,2-3.2,4.1-4.3,6.3c-0.2,0.3-0.2,0.7-0.1,1
		c0.1,0.3,0.4,0.6,0.8,0.7c1.9,0.7,3.8,0.9,5.7,1.1c0.7,0.1,1.3,0.2,1.9,0.3c1.3,0.2,2.6,0.4,3.9,0.4c0.2,0,0.4,0,0.6,0
		c0.8,0,1.1-0.7,1.1-1.3c0-0.5-0.4-1.1-1.1-1c-2.9,0.1-6.9-0.4-10-1.3c1.7-2.7,3.9-5.4,5.7-7.5c0.3-0.4,0.7-0.8,1.1-1.2
		c1-1.1,2.1-2.2,2.5-3.5c0.3,0.1,0.7,0.2,1,0.2c1.1,0.2,2.2,0.4,3.5,0.6c-0.2,0.4-0.4,0.7-0.6,1.1c-0.5,1.1-1.1,2.3-1.9,3.1
		c-0.5,0.5-0.4,1.2,0.1,1.6c0.2,0.2,0.5,0.3,0.8,0.3c0.3,0,0.5-0.1,0.8-0.4c1-1.1,1.6-2.4,2.3-3.6c0.3-0.6,0.5-1.1,0.8-1.7
		c0.1-0.1,0.1-0.2,0.1-0.3c1.8,0.2,3.7,0.3,5.7,0.4c-0.1,0.4-0.2,0.9-0.4,1.3c-0.1,0.4-0.3,0.9-0.4,1.3c-0.1,0.2-0.1,0.5-0.1,0.7
		c-0.1,0.5-0.2,1.1-0.5,1.5c-0.5,0.6-0.3,1.3,0.2,1.7c0.2,0.2,0.4,0.3,0.7,0.3c0.3,0,0.6-0.1,0.8-0.4c0.5-0.7,0.7-1.4,0.9-2.1
		l0.1-0.2c0.2-0.7,0.4-1.4,0.6-2.1c0.1-0.5,0.3-1,0.4-1.5c0-0.1,0-0.3,0-0.4c0.8,0,1.7,0,2.6,0c0.5,0,1.1,0,1.7,0
		c-0.2,0.6-0.4,1.3-0.6,1.9c-0.1,0.2-0.1,0.4-0.1,0.7c-0.1,0.5-0.2,1-0.4,1.2c-0.5,0.6-0.3,1.3,0.2,1.7c0.2,0.2,0.5,0.3,0.7,0.3
		c0.3,0,0.6-0.1,0.8-0.4c0.5-0.6,0.7-1.3,0.9-2l0.1-0.2c0.2-0.8,0.5-1.7,0.8-2.5l0.3-0.7c0.3,0,0.5,0,0.8,0
		c5.2-0.1,9.9-1.2,13.9-3.2c-0.4,1.4-0.8,2.7-1.4,4c-0.2,0.4-0.1,0.8,0.1,1.2c0.2,0.3,0.6,0.5,1,0.5c0,0,0.1,0,0.1,0
		c0.4,0,0.7-0.3,0.8-0.6c0.7-1.6,1.2-3.3,1.7-4.9c0.2-0.5,0.3-1.1,0.5-1.6c0-0.1,0-0.2,0.1-0.3c0.2-0.1,0.3-0.2,0.5-0.3
		c0,0.3-0.1,0.5-0.1,0.8l-0.1,0.5c-0.1,0.4,0,0.8,0.4,1.1c0.2,0.2,0.5,0.3,0.8,0.3c0.1,0,0.2,0,0.4-0.1c0.3-0.1,0.6-0.4,0.7-0.8
		l0.1-0.4c0.2-1.2,0.5-2.5,0.7-3.7c0.7-0.7,1.4-1.4,2-2.2c-0.1,0.1-0.1,0.3-0.2,0.4c-0.2,0.3-0.3,0.7-0.1,1c0.2,0.4,0.6,0.6,1,0.7
		c0,0,0.1,0,0.1,0c0.4,0,0.7-0.2,1-0.5c0.5-0.8,0.7-1.6,0.8-2.5c0-0.2,0.1-0.4,0.1-0.6c0.3-1.4,0.4-2.5,0.5-3.7
		c0.4-0.9,0.8-1.9,1.1-2.8v4.4c0,0.7,0.6,1.1,1.2,1.1c0.6,0,1.2-0.4,1.2-1.1v-6.3c0-0.9-0.9-1.3-1.6-1c0.2-1.3,0.4-2.6,0.4-3.9
		c0.1,0.1,0.2,0.3,0.3,0.4c0.2,0.4,0.4,0.9,0.5,1.5c0.2,0.7,0.3,1.3,0.8,1.9c0.2,0.3,0.6,0.5,1,0.5c0,0,0.1,0,0.1,0
		c0.4,0,0.8-0.3,1-0.7c0.1-0.3,0.1-0.7-0.1-1c-0.3-0.4-0.3-0.8-0.4-1.2c-0.1-0.2-0.1-0.5-0.2-0.7c-0.2-0.6-0.5-1.2-0.8-1.8
		c-0.6-0.9-1.3-1.8-2-2.6l-0.3-0.3c-0.2-2.1-0.7-4.1-1.4-6.2l2.9,2.9c0.2,0.2,0.5,0.3,0.8,0.3c0.3,0,0.6-0.1,0.8-0.4
		c0.4-0.4,0.5-1.1,0-1.6c-1.8-1.8-3.6-3.6-5.4-5.4c-0.3-0.3-0.7-0.4-1.1-0.3c-0.7-1.3-1.5-2.5-2.1-3.6c-0.1-0.1-0.2-0.3-0.3-0.4
		c1.1,0.6,2.1,1.4,3,2.2c0.3,0.3,0.6,0.5,0.9,0.8c0.2,0.2,0.5,0.3,0.7,0.3c0.4,0,0.8-0.2,1-0.5c0.4-0.5,0.3-1.1-0.2-1.5
		c-0.4-0.3-0.8-0.6-1.1-0.9c-1.2-1-2.4-2.1-3.9-2.7c-0.7-0.3-1.5-0.6-2.4-0.9c-0.3-0.5-0.6-1.1-0.8-1.6c-0.8-1.7-0.9-2.1-0.7-4.1
		c0.2-2.3,1-3,3.1-4.3c2.5-1.5,5.4-2.3,8.3-3c3.2-0.8,6.5-1.6,9.4-3.6c9.1-6.4,14.7-18.9,14.5-31.8c0-0.8-0.1-1.6-0.2-2.4
		c0.1,0.1,0.3,0.1,0.4,0.2c0.2,0.1,0.3,0.1,0.5,0.2c0.7,0.2,1.5,0.5,1.9,1c0,0,0,0,0,0c0.2,0.2,0.5,0.4,0.8,0.4
		c0.3,0,0.6-0.1,0.8-0.3c0.4-0.4,0.6-1.1,0.1-1.6c-0.7-0.7-1.5-1-2.3-1.3l-0.3-0.1c-0.8-0.3-1.6-0.6-2.4-0.9c-0.3-1-0.6-2-1.1-3
		c1.2,0.1,2.5,0.2,3.7,0.5c0.1,0,0.2,0,0.3,0c0.6,0,1-0.4,1.1-0.9c0.1-0.5-0.1-1.2-0.8-1.3c-1.8-0.4-3.7-0.6-5.4-0.7
		c-0.8-1.6-1.8-3.2-2.9-4.8c1-0.1,2-0.2,3-0.2c0.3,0,0.6-0.1,0.8-0.4c0.2-0.2,0.3-0.5,0.3-0.8c0-0.3-0.1-0.6-0.3-0.8
		c-0.2-0.2-0.5-0.4-0.8-0.4c-1.3,0-2.7,0.1-4,0.2l-0.6,0.1c-0.4-0.6-0.9-1.1-1.3-1.7c-2.3-2.9-4.6-5.3-7-7.4
		c0.1-0.1,0.2-0.1,0.3-0.2c1.1-1.1,2.2-2.2,3.3-3.3c0.5-0.5,0.4-1.2,0-1.6c-0.4-0.4-1.1-0.5-1.6,0c-1.1,1.1-2.2,2.2-3.3,3.3
		c-0.1,0.1-0.2,0.3-0.3,0.4c-0.4-0.3-0.7-0.6-1.1-0.8c0.1-0.1,0.2-0.2,0.3-0.3c0.1-0.2,0.2-0.4,0.4-0.6c0.6-1.1,1.2-2.2,1-3.6
		c-0.1-0.4-0.3-0.7-0.6-0.8c-0.4-0.1-0.8-0.1-1.2,0.2c-0.3,0.3-0.5,0.7-0.4,1.1c0.1,0.5-0.3,1.2-0.7,1.8c-0.2,0.2-0.3,0.5-0.4,0.7
		c0,0.1-0.1,0.2-0.1,0.2c-1.3-0.8-2.6-1.6-4.1-2.3l0.9-1c3.4-3.8,6.8-7.8,10.3-11.5c1.6-1.7,3.3-3.6,5.3-5.3
		c-0.9,1.7-1.3,3.8-0.9,5.8c0.5,2.9,2.4,5.4,5.2,6.7c3.3,1.6,7.4,1.5,10.7-0.3c3.2-1.7,5.3-4.7,5.6-8.2
		C123.5,15.6,122.7,11.5,120.1,9.3z M108.1,12.6c0.4-0.2,0.7-0.6,0.6-1c0-0.3-0.2-0.5-0.4-0.7c2.1-0.9,4.2-1.3,6.3-1.2
		c2.9,0.1,4.9,1.5,5.8,3.9c-0.7-0.2-1.4-0.1-2,0.4l0,0c-1.3,0.6-2.3,2-2.7,3.2c-0.4,1.2-0.6,3.4,0.3,4.6c0.4,0.5,0.9,0.8,1.6,0.8
		c0,0,0,0,0,0c0.5,0,1-0.1,1.4-0.4c-1.2,1.9-3,3.2-4.9,3.6c-4.7,1.1-8.9-2-10-5.5C103,17,104.5,14.2,108.1,12.6z M104.3,55.1
		c0,0.6,0.3,1.2,1.1,1.3c0.2,0,0.4,0,0.6,0.1c0.5,1.1,0.9,2,1.2,3c-0.2,0.3-0.3,0.6-0.3,1c0.1,0.4,0.3,0.8,0.8,0.9c0,0,0,0,0,0l0,0
		c0.1,0.5,0.2,1,0.3,1.5c1.4,11.7-4.9,28.3-16.4,33.3c-1.4,0.6-3.4,1.1-5.4,1.7c-6.6,1.7-14.7,3.8-13.4,11.4c0.2,1,0.5,2,0.9,3
		c0,0,0,0,0,0c-0.4-0.1-0.8,0-1.1,0.4c-0.3,0.3-0.4,0.8-0.3,1.2c0.1,0.4,0.4,0.6,0.8,0.7l0.4,0.1c0.5,0.1,1,0.2,1.5,0.3
		c0.7,1.2,1.4,2.4,2.2,3.5c1.3,2,2.7,4.2,3.5,6.3v0c0.8,2.1,1.3,4.4,1.6,6.7l0,0l0,0c0.5,4.3-0.2,8.6-1.8,12.2
		c-0.1,0.1-0.2,0.3-0.2,0.5l0,0c-0.9,1.9-2,3.6-3.4,5c-0.3-0.1-0.7-0.1-1,0c-0.4,0.2-0.7,0.5-0.7,1c0,0.2,0,0.4-0.1,0.7
		c-7.9,6.7-20.6,6.7-29.4,6.1c-3.7-0.3-7.7-0.7-11.3-1.7c-2.8-0.8-5.1-1.8-6.8-3.2c-4.7-3.6-8.6-9.1-11-15.3
		c-0.4-1.1-0.9-2.2-1.3-3.3c-1.3-3.2-2.7-6.6-3.5-10c-0.3-1.3-0.5-2.5-0.7-3.6c-0.8-6.2-0.9-12.1-0.9-19c0-6.2,0.3-11.8,1-17l0,0
		c1.2-9.7,3.7-17.9,7.4-25.2c0.6-1.1,1.2-2.2,1.7-3.2c0,0,0,0,0,0c3.2-5.5,6.7-10.1,10.8-14.1c1.1-1,2-1.9,3-2.8h0
		c1.7-1.5,3.4-2.9,5-4c1.2-0.8,2.5-1.4,3.8-2c1.2-0.6,2.5-1.1,3.7-1.9c0.1,0,0.1-0.1,0.2-0.2c2.4-0.9,4.8-1.3,8.1-1.3
		c3,0,6.5,0,9.9,0.3c6.7,0.6,13,2,18.3,3.9c0,0.4,0.3,0.8,0.7,1.1c0.2,0.1,0.3,0.1,0.5,0.1c0.3,0,0.6-0.1,0.8-0.4l0,0
		c4.8,2.2,9.4,5.5,12.8,9.6c1,1.2,2.1,2.5,3.2,3.9c-0.3,0.3-0.4,0.8-0.3,1.2c0.1,0.5,0.5,0.8,1,0.8c0,0,0,0,0.1,0l0.6,0
		c1.2,1.6,2.1,3.1,2.9,4.6C104.6,54.3,104.4,54.6,104.3,55.1z M78.8,6c0.3-0.4,0.3-1-0.1-1.3c-0.2-0.2-0.5-0.3-0.7-0.3
		c1.6-1.2,3.4-1.8,5.2-2c3.7-0.2,7.1,2,8.7,5.6c1.3,2.8,1.6,7-1.6,10.2c-1.1,1.1-2.7,1.8-4.5,1.7c-2.6,0-5.5-1.3-7.3-3.2
		C75.3,13.3,76.6,8.9,78.8,6z"/>
	<line class="st6" x1="85.2" y1="13.9" x2="85.2" y2="13.9"/>
	<path class="st5" d="M84.6,13.9C84.6,13.9,84.6,13.9,84.6,13.9C84.6,13.9,84.6,13.9,84.6,13.9C84.6,14,84.6,14,84.6,13.9
		C84.6,14,84.6,14,84.6,13.9c0,0.1,0,0.1,0,0.1c0,0,0,0,0,0c0,0.1,0,0.3,0.1,0.4c0.2,0.8,0.6,1.4,1.1,1.7c0.3,0.2,0.6,0.2,0.9,0.2
		c0.2,0,0.4,0,0.5-0.1c0.2,0.1,0.4,0.2,0.7,0.2c1,0,1.6-1.1,1.8-1.5c0.5-1.1,0.8-2.7,0.4-4.1c0.4-0.3,0.6-0.8,0.5-1.3
		c-0.1-0.5-0.6-0.9-1.1-0.8c-0.4,0-0.8,0.1-1.2,0.2c-0.5-0.2-1.1-0.2-1.6,0C85,9.6,84.1,12.1,84.6,13.9
		C84.6,13.9,84.6,13.9,84.6,13.9z M85.2,13.9L85.2,13.9L85.2,13.9z"/>
	<path class="st0" d="M82,94.2h-0.4c-0.3,0-0.6,0.1-0.8,0.4c-0.2,0.2-0.3,0.5-0.3,0.8c0,0.6,0.4,1.2,1.1,1.2H82
		c0.3,0,0.6-0.1,0.8-0.4c0.2-0.2,0.3-0.5,0.3-0.8C83.1,94.8,82.7,94.2,82,94.2z"/>
	<path class="st0" d="M78.4,44.7c0,0.6,0.4,1.2,1.1,1.2c0.3,0,0.6-0.1,0.8-0.4c0.2-0.2,0.3-0.5,0.3-0.8c0-0.6-0.4-1.2-1.1-1.2
		c-0.3,0-0.6,0.1-0.8,0.4C78.5,44.1,78.4,44.4,78.4,44.7z"/>
	<path class="st0" d="M78.2,36.6c0.6,0,1.2-0.4,1.2-1.1v-0.4c0-1.5-2.3-1.5-2.3,0v0.4C77.1,36.2,77.7,36.6,78.2,36.6z"/>
	<path class="st5" d="M72.9,21.4c-0.1,0.4-0.6,1-0.9,1.4c-0.2,0.2-0.4,0.4-0.5,0.6c-0.4,0.5-0.7,1-1,1.6c-0.2,0.4-0.5,0.7-0.7,1.1
		c-0.2,0.3-0.3,0.7-0.1,1c0.2,0.4,0.6,0.6,1,0.7c0,0,0.1,0,0.1,0c0.4,0,0.7-0.2,1-0.5c0.3-0.4,0.6-0.9,0.9-1.3
		c0.4-0.6,0.7-1.1,1.1-1.7c0.1-0.2,0.3-0.4,0.5-0.6c0.4-0.5,0.9-1.1,1-1.8c0.1-0.7-0.4-1.3-1-1.4C73.5,20.5,73,20.8,72.9,21.4z"/>
	<path class="st0" d="M69.9,41.3c0.3,0,0.6-0.1,0.8-0.4c0.2-0.2,0.3-0.5,0.3-0.8c0-0.6-0.4-1.2-1.1-1.2c-0.3,0-0.6,0.1-0.8,0.4
		c-0.2,0.2-0.3,0.5-0.3,0.8C68.7,40.7,69.1,41.3,69.9,41.3z"/>
	<path class="st0" d="M63.6,53c0.3,0,0.6-0.1,0.8-0.4c0.2-0.2,0.3-0.5,0.3-0.8c0-0.6-0.4-1.2-1.1-1.2c-0.3,0-0.6,0.1-0.8,0.4
		c-0.2,0.2-0.3,0.5-0.3,0.8C62.5,52.4,62.8,53,63.6,53z"/>
	<path class="st5" d="M91.7,56.2c-1.1-0.8-2.6-1.1-4.3-0.8c-1.2,0.2-2.4,0.5-3.6,0.8c-2.4,0.5-4.9,1.1-7.4,1.2
		c-2.3,0.1-4.6-0.1-6.8-0.3c-1.5-0.1-3.1-0.3-4.7-0.3c-1.1,0-2,0-2.8,0l0,0c-3,0.2-5.3,0.8-7.4,1.9c-0.3-0.2-0.7-0.2-1.1,0
		c-5.3,2.8-5.3,8.2-4.8,12.6c0.6,5.2,3.9,10,9.8,14.5c0.2,0.2,0.5,0.4,0.7,0.5c0.1,0.5,0.5,0.8,1,0.8c0.1,0,0.2,0,0.3,0
		c0,0,0,0,0.1,0c3.7,2.3,7.8,3.5,11.7,3.5c3.5,0,6.9-0.9,10-2.7l0,0l0,0c0,0,0,0,0,0h0c2.8-1.6,5.1-3.9,7-6.8c3.9-6,5.8-13,5.1-18.7
		C94,59.3,93.1,57.3,91.7,56.2z M87.4,79.9c-1.2,1.9-2.5,3.5-3.9,4.8c-0.1-1.3-0.7-2.6-1.5-3.4c-0.7-0.7-1.5-1-2.3-0.9
		c-1.3,0.1-2.6,0.9-3.7,2.2c-1.3,1.6-1.9,3.6-1.7,5.2c0.1,0.4,0.2,0.6,0.4,0.7c0,0,0.1,0.1,0.2,0.1c-3.4,0.4-7-0.1-10.3-1.6
		c-0.7-0.3-1.5-0.7-2.2-1.2c0.3-1.4-0.2-3.3-0.3-3.9c-0.3-0.9-0.8-2.8-2.6-2.7c-1.1,0.1-1.8,1.1-2.4,1.9c-0.1,0.1-0.2,0.3-0.3,0.4
		c-1.4-1.3-2.5-2.7-3.5-4.2c0.2-0.1,0.4-0.3,0.6-0.5c1.8-3.3,4.9-6.8,9.9-4.7c0.4,0.2,0.8,0.4,1.2,0.6c1.4,0.6,2.6,1.2,4.3,1.4
		c1.8,0.2,3.5-0.2,5.2-0.5c0.3-0.1,0.6-0.1,0.9-0.2l0.5-0.1c1.4-0.3,3.4-0.7,4.7-0.4c3.2,0.9,3.7,3.6,4.1,6.3l0.1,0.4
		c0.1,0.5,0.4,0.8,0.8,0.8c0.1,0,0.1,0,0.2,0c0.5,0,0.9-0.3,1.1-0.7c0,0,0,0,0,0c0.1-0.2,0.1-0.5,0.1-0.7c-0.5-2.7-1.1-6.5-4.1-7.9
		c-2.5-1.2-5.4-0.6-8.1,0.1c-1.6,0.4-3,0.7-4.4,0.7c0,0,0,0,0,0c-1.7,0-3.3-0.7-4.9-1.4c-2-0.9-4.1-1.9-6.5-1.2
		c-3.5,0.9-5.7,4-6.9,6c-1.3-3-2-7.3-0.7-10.6c0,0,0.1-0.1,0.1-0.1c1.1-1.3,2.3-2.3,3.5-3c0.1,1,0.2,2,0.6,2.9
		c0.4,1.1,1.3,2.2,2.5,2.2c0.2,0,0.4,0,0.6-0.1c1-0.3,2-1.4,3-3.2c0.7-1.2,1.1-2.5,1.3-3.8c2.1-0.1,4.2,0.1,6.5,0.3
		c2.2,0.2,4.6,0.3,6.8,0.3c0,1.5-0.1,3,1.2,4.2c0.9,0.8,2.2,1.5,3.5,1.5c0.2,0,0.4,0,0.5,0c1.9-0.3,3.2-2.2,3.3-5.2c0,0,0,0,0,0
		c0,0,0,0,0,0c0,0,0,0,0,0c0,0,0,0,0,0c0-0.2,0-0.3,0-0.5c0-0.1,0-0.2-0.1-0.3l0,0c0,0,0,0,0,0c0,0,0,0,0,0l-0.1-1l0.6-0.1
		c0.4-0.1,0.7-0.1,1.1-0.2c0.4-0.1,0.7-0.1,1-0.2c1.3-0.3,1.6-0.4,2.9,1.1c3.6,4,1.8,10.3-0.4,15.8C89.1,76.7,88.3,78.4,87.4,79.9
		C87.4,79.8,87.4,79.8,87.4,79.9z M76.4,87.2c-0.2-1.5,1.3-3.6,2.6-4.3c0.4-0.2,0.8-0.3,1-0.2c0.3,0.1,0.5,0.4,0.7,0.9
		c0.3,1,0.6,2,0,2.5c-0.2,0.2-0.3,0.4-0.4,0.6C79,87.5,77.5,88,76,88.3C76.3,88,76.5,87.6,76.4,87.2z M58.6,82.6
		c0.2-0.4,0.5-0.7,0.8-1c0,0,0,0,0,0c0,0,0,0.1,0,0.1l0,0.1c0,0,0,0,0,0c0.1,0.2,0.1,0.5,0.2,0.7c0.1,0.6,0.2,1.1,0.3,1.5
		c0,0.1,0,0.1,0,0.2c-0.6-0.4-1.1-0.8-1.7-1.3C58.4,82.9,58.5,82.7,58.6,82.6z M58.3,63.7C58.3,63.7,58.3,63.7,58.3,63.7
		c-0.2,0.2-0.2,0.2-0.3,0.2c0,0-0.3-0.1-0.6-1.4c-0.2-0.7-0.2-1.5-0.2-2.2c1-0.4,2.1-0.6,3.4-0.8C60.2,60.8,59.4,62.3,58.3,63.7z
		 M82.5,60.2c-0.1,1.6-0.5,2.6-1.2,2.9c-0.6,0.3-1.6-0.2-2.3-0.8c-0.7-0.6-0.6-1.5-0.5-2.4c0-0.1,0-0.2,0-0.4c1-0.1,1.9-0.3,2.8-0.5
		c0.4-0.1,0.7-0.2,1.1-0.2L82.5,60.2z"/>
	<path class="st5" d="M71.2,131.8c-0.1-0.4-0.1-0.8-0.2-1.2c-0.6-3.7-1.5-9.3-5-10.7c-0.4-0.2-0.7-0.1-0.9,0
		c-0.3,0.1-0.5,0.4-0.5,0.7c0,0,0,0,0,0c0,0,0,0,0,0c0,0,0,0,0,0c0,0,0,0,0,0c0,0,0,0.1,0,0.1c-0.1,0.6,0.2,1.1,0.7,1.3c0,0,0,0,0,0
		c1.8,0.7,2.7,5.6,3.2,7.9c0.1,0.4,0.1,0.7,0.2,0.9c0.1,0.3,0.2,0.7,0.3,1.2c0.5,1.9,1.4,5.4,0.8,6.8l0,0c0,0,0,0,0,0.1l-2.5,0.4
		c-1-1.1-1.6-2.4-2-3.9c-0.5-1.7-0.8-3.4-0.9-5c-0.1-0.6-0.1-1.1-0.2-1.7c-0.3-2-0.5-4.1-0.6-6.1c0-0.4-0.2-0.7-0.6-0.9
		c0,0-0.1,0-0.1-0.1c0,0,0,0,0,0c0,0,0,0,0,0c0,0,0,0,0,0c0,0,0,0,0,0c-0.4-0.2-0.9-0.1-1.2,0.1c-0.3,0.2-0.5,0.5-0.4,0.9
		c0,0.4,0,0.8,0.1,1.2l0,0.9c0,0,0,0.1,0,0.1c0,0.2,0,0.3,0,0.5c0,0,0,0,0,0l0,0c0.3,4.8,0.8,9.8,2.7,13.4c0.7,1.3,2.5,3.8,4.5,4.2
		c0.2,0,0.4,0.1,0.6,0.1c0.6,0,1.1-0.2,1.6-0.6c2.3-1.7,1.3-6.5,0.7-9.4C71.3,132.5,71.3,132.1,71.2,131.8z"/>
	<path class="st0" d="M62.3,105.4c0.2-0.2,0.3-0.5,0.3-0.8c0-0.6-0.4-1.2-1.1-1.2c-0.3,0-0.6,0.1-0.8,0.4c-0.2,0.2-0.3,0.5-0.3,0.8
		c0,0.6,0.4,1.2,1.1,1.2C61.8,105.7,62.1,105.6,62.3,105.4z"/>
	<path class="st0" d="M58.6,124.4c-0.3,0-0.6,0.1-0.8,0.4c-0.2,0.2-0.3,0.5-0.3,0.8c0,0.6,0.4,1.2,1.1,1.2c0.3,0,0.6-0.1,0.8-0.4
		c0.2-0.2,0.3-0.5,0.3-0.8C59.7,125,59.3,124.4,58.6,124.4z"/>
	<path class="st0" d="M56.1,149.2c-0.5,0.2-0.7,0.6-0.7,1.1v0.3c0,0.3,0.1,0.6,0.4,0.9c0.2,0.2,0.5,0.3,0.8,0.3c0.2,0,0.4,0,0.5-0.1
		c0.4-0.2,0.6-0.6,0.6-1v-0.3c0-0.3-0.1-0.5-0.2-0.7C57.1,149.2,56.6,149,56.1,149.2z"/>
	<path class="st5" d="M63.1,160l-0.3,0c-0.3,0-0.7,0.1-0.9,0.3c-0.2,0.2-0.3,0.5-0.3,0.8c-0.5,0.6-0.9,1.2-1.4,1.8
		c-0.9,1.1-1.8,2.2-2.6,3.4c-0.2,0.4-0.5,0.8-0.8,1.2c-0.9,1.3-2,2.8-2.3,4.2c-0.1,0.6,0.2,1.2,0.8,1.4c1.5,0.5,3.1,0.8,4.7,0.8
		c1,0,2-0.1,3.1-0.3c0.4-0.1,0.7-0.3,0.8-0.7c0.1-0.4,0-0.9-0.3-1.2c-0.3-0.3-0.7-0.4-1.1-0.4c-1.8,0.4-3.6,0.3-5.4-0.1
		c0.6-1.2,1.5-2.5,2.3-3.5c0.2-0.3,0.4-0.6,0.6-0.9c0.7-1,1.4-1.9,2.2-2.8c0.6-0.7,1.2-1.5,1.8-2.3c0.2-0.3,0.3-0.7,0.1-1
		C64,160.3,63.5,160,63.1,160z"/>
	<path class="st0" d="M54,35.4c0.3,0,0.6-0.1,0.8-0.4c0.2-0.2,0.3-0.5,0.3-0.8c0-0.6-0.4-1.2-1.1-1.2c-0.3,0-0.6,0.1-0.8,0.4
		c-0.2,0.2-0.3,0.5-0.3,0.8C52.8,34.8,53.2,35.4,54,35.4z"/>
	<path class="st0" d="M52.7,41.3c0.3,0,0.6-0.1,0.8-0.4c0.2-0.2,0.3-0.5,0.3-0.8c0-0.6-0.4-1.2-1.1-1.2c-0.3,0-0.6,0.1-0.8,0.4
		c-0.2,0.2-0.3,0.5-0.3,0.8C51.6,40.7,52,41.3,52.7,41.3z"/>
	<path class="st0" d="M51.9,55c0.6,0,1.2-0.4,1.2-1.1v-0.4c0-1.5-2.3-1.5-2.3,0v0.4C50.7,54.7,51.3,55,51.9,55z"/>
	<path class="st0" d="M49.9,131.4v0.4c0,0.7,0.6,1.1,1.2,1.1c0.6,0,1.2-0.4,1.2-1.1v-0.4C52.2,129.9,49.9,129.9,49.9,131.4z"/>
	<path class="st0" d="M51,110.8c0.4-0.4,0.5-1.1,0-1.6c-0.1-0.1-0.3-0.3-0.4-0.4c-0.5-0.5-1.2-0.4-1.6,0c-0.4,0.4-0.5,1.1,0,1.6
		c0,0,0,0,0,0c0.1,0.1,0.3,0.3,0.4,0.4c0.2,0.2,0.5,0.3,0.8,0.3C50.5,111.2,50.8,111,51,110.8z"/>
	<path class="st0" d="M49.7,86.1c0.4-0.4,0.5-1.1,0-1.6c0,0,0,0,0,0c-0.1-0.1-0.3-0.3-0.4-0.4c-0.5-0.5-1.2-0.4-1.6,0
		c-0.4,0.4-0.5,1.1,0,1.6c0.1,0.1,0.3,0.3,0.4,0.4c0.2,0.2,0.5,0.3,0.8,0.3C49.2,86.5,49.5,86.3,49.7,86.1z"/>
	<path class="st0" d="M43.5,100.9c-0.3,0-0.6,0.1-0.8,0.4c-0.2,0.2-0.3,0.5-0.3,0.8c0,0.6,0.4,1.2,1.1,1.2c0.3,0,0.6-0.1,0.8-0.4
		c0.2-0.2,0.3-0.5,0.3-0.8C44.6,101.5,44.2,100.9,43.5,100.9z"/>
	<path class="st0" d="M38.7,47.5c0.2,0.2,0.5,0.3,0.8,0.3c0.1,0,0.3,0,0.4-0.1c0.5-0.2,0.8-0.6,0.8-1.1c0-0.3-0.1-0.6-0.3-0.8
		c0,0,0,0,0,0c-0.1-0.1-0.2-0.2-0.2-0.2c-0.3-0.3-0.8-0.4-1.2-0.2c-0.5,0.2-0.8,0.6-0.8,1.1c0,0.3,0.1,0.6,0.3,0.8
		C38.6,47.3,38.7,47.4,38.7,47.5z"/>
	<path class="st0" d="M38.9,64.7c0.3,0,0.6-0.1,0.8-0.4c0.2-0.2,0.3-0.5,0.3-0.8c0-0.6-0.4-1.2-1.1-1.2c-0.3,0-0.6,0.1-0.8,0.4
		c-0.2,0.2-0.3,0.5-0.3,0.8C37.8,64.1,38.1,64.7,38.9,64.7z"/>
	<path class="st5" d="M43.8,135.3c-0.1-6.4-1.3-11-3.5-14.2c-0.1-0.1-0.1-0.2-0.3-0.3c0,0,0,0,0,0c0,0,0,0,0,0c0,0,0,0,0,0
		c0,0,0,0,0,0c-0.1-0.1-0.2-0.1-0.3-0.2c-0.5-0.1-0.9,0-1.2,0.3c-0.4,0.4-0.4,0.9-0.1,1.3c1.6,2.2,2.1,4.9,2.7,7.9l0.1,0.4
		c0.4,2.1,1.4,7.7-0.6,8.5c-1.2,0.4-1.4,0-1.9-1.1c-0.1-0.2-0.2-0.4-0.3-0.6c-0.4-0.8-0.8-1.8-1.2-3c-1.1-3.4-1.2-6.9-0.4-10.2
		c0.1-0.4,0-0.8-0.3-1.1c-0.3-0.2-0.7-0.3-1-0.3c-0.1,0-0.2,0-0.2,0.1c0,0,0,0,0,0c0,0,0,0,0,0c0,0,0,0,0,0c0,0,0,0,0,0
		c-0.3,0.1-0.5,0.4-0.6,0.7c-0.5,1.9-0.7,3.8-0.6,5.7c0,0,0,0,0,0h0c0,0,0,0,0,0c0,0,0,0,0,0c0,0,0,0,0,0.1h0c0,0.1,0,0.2,0,0.4
		c0,0.4,0,0.7,0.1,1.1c0,0.2,0.1,0.5,0.1,0.7l0,0.3v0c0,0,0,0,0,0l0,0c0,0,0,0,0,0c0.3,1.9,0.9,3.8,1.6,5.6c0.7,1.7,2.2,5,4.7,5
		c0.1,0,0.1,0,0.2,0c3.3-0.3,3.2-4.8,3.1-7L43.8,135.3z"/>
	<path class="st0" d="M30.6,51.8v0.4c0,0.7,0.6,1.1,1.2,1.1c0.6,0,1.2-0.4,1.2-1.1v-0.4C32.9,50.4,30.6,50.4,30.6,51.8z"/>
	<path class="st0" d="M31.3,85.4c-0.3,0-0.6,0.1-0.8,0.4c-0.2,0.2-0.3,0.5-0.3,0.8c0,0.6,0.4,1.2,1.1,1.2c0.3,0,0.6-0.1,0.8-0.4
		c0.2-0.2,0.3-0.5,0.3-0.8C32.5,86,32.1,85.4,31.3,85.4z"/>
	<path class="st0" d="M28.8,113c-0.1-0.1-0.3-0.3-0.4-0.4c-0.5-0.5-1.2-0.4-1.6,0c-0.4,0.4-0.5,1.1,0,1.6c0.1,0.1,0.3,0.3,0.4,0.4
		c0.2,0.2,0.5,0.3,0.8,0.3c0.3,0,0.6-0.1,0.8-0.4C29.2,114.2,29.3,113.5,28.8,113C28.8,113,28.8,113,28.8,113z"/>
	<path class="st0" d="M24.6,98.8c-0.3,0-0.6,0.1-0.8,0.4c-0.2,0.2-0.3,0.5-0.3,0.8c0,0.6,0.4,1.2,1.1,1.2c0.3,0,0.6-0.1,0.8-0.4
		c0.2-0.2,0.3-0.5,0.3-0.8C25.8,99.4,25.4,98.8,24.6,98.8z"/>
	<path class="st0" d="M23.4,138.6c-0.3,0-0.6,0.1-0.8,0.4c-0.2,0.2-0.3,0.5-0.3,0.8c0,0.6,0.4,1.2,1.1,1.2c0.3,0,0.6-0.1,0.8-0.4
		c0.2-0.2,0.3-0.5,0.3-0.8C24.5,139.2,24.1,138.6,23.4,138.6z"/>
	<path class="st5" d="M23.3,158.6c-0.2-0.2-0.2-0.5-0.2-0.9l0-0.4c0-0.5-0.1-1.1-0.3-1.6c-0.1-0.4-0.5-0.7-0.9-0.8
		c-0.4-0.1-0.9,0.1-1.2,0.4c-0.2,0.3-0.3,0.7-0.2,1c0.1,0.4,0.2,0.9,0.2,1.3c0.1,0.9,0.1,1.8,0.9,2.5c0.2,0.2,0.5,0.3,0.8,0.3
		c0.4,0,0.7-0.2,0.9-0.4C23.9,159.7,23.8,159,23.3,158.6z"/>
	<path class="st0" d="M21.3,71.5c-0.1-0.1-0.3-0.3-0.4-0.4c-0.5-0.5-1.2-0.4-1.6,0c-0.4,0.4-0.5,1.1,0,1.6c0.1,0.1,0.3,0.3,0.4,0.4
		c0.2,0.2,0.5,0.3,0.8,0.3c0.3,0,0.6-0.1,0.8-0.4C21.7,72.7,21.8,72.1,21.3,71.5C21.3,71.5,21.3,71.5,21.3,71.5z"/>
	<path class="st5" d="M16.6,147.1c-0.4,0.1-0.8,0.3-1,0.7c-0.3,0.8-0.7,1.6-1.1,2.4c-0.3,0.7-0.6,1.3-0.9,2
		c-0.2,0.4-0.1,0.8,0.1,1.2c0.2,0.3,0.6,0.5,1,0.5c0,0,0.1,0,0.1,0c0.4,0,0.6-0.3,0.8-0.6c0.3-0.7,0.6-1.3,0.9-2
		c0.4-0.9,0.9-1.9,1.3-2.8c0.2-0.4,0.1-0.7-0.1-1C17.4,147.2,17,147,16.6,147.1z"/>
	<path class="st5" d="M4.9,101.2c0.3-0.3,0.6-0.5,0.9-0.8c0.5-0.5,0.4-1.1,0.1-1.6c-0.4-0.4-1.1-0.6-1.7-0.1
		c-0.3,0.2-0.5,0.5-0.8,0.7c-1.1,1-2.2,2-3.1,3.3c-0.2,0.3-0.3,0.7-0.1,1c0.2,0.4,0.6,0.6,1,0.7c0,0,0.1,0,0.1,0
		c0.4,0,0.7-0.2,1-0.5C2.9,102.9,3.9,102,4.9,101.2z"/>
</g>
</svg>
