<?xml version="1.0" encoding="utf-8"?>
<!-- Generator: Adobe Illustrator 21.0.2, SVG Export Plug-In . SVG Version: 6.00 Build 0)  -->
<svg version="1.1" id="Layer_1" xmlns="http://www.w3.org/2000/svg" xmlns:xlink="http://www.w3.org/1999/xlink" x="0px" y="0px"
	 viewBox="0 0 80.1 154.1" style="enable-background:new 0 0 80.1 154.1;" xml:space="preserve">
<style type="text/css">
	.st0{fill:#E3969B;}
	.st1{fill:#FFFFFF;}
	.st2{fill:#444762;}
	.st3{fill:none;stroke:#5B7BBB;stroke-width:0;stroke-linecap:round;stroke-linejoin:round;}
</style>
<g>
	<path class="st0" d="M73.4,64c0.9-2.3,1.5-4.8,2.1-7.2c0.1-0.6,0.3-1.1,0.4-1.7c1.3-5.2,1.9-10.3,1.7-15.9
		c-0.3-8.3-1.5-20.2-5.8-29.9c-0.8-1.8-2.9-6-5.3-6.2c-1.1-0.1-2.1,0.7-3.1,2.2c-0.6,1-0.9,3.2-1,4.9c-0.1,0.6-0.1,1.1-0.2,1.5
		c-0.8,5.3-0.4,10.7,0,15.5c0.7,9.4,1.1,19.7,1.2,31.6c0,0.3-0.1,0.6-0.3,0.8c-0.1,0.1-0.2,0.1-0.2,0.2c2.8,2.5,5.4,5.7,7.7,9.6
		c0-0.1,0-0.2,0.1-0.3c0.4-0.9,0.8-1.7,1.3-2.4C72.5,65.8,73,64.9,73.4,64z M74.7,37.1C74.7,37.1,74.7,37.1,74.7,37.1
		c0,1-0.1,1.9-0.2,2.9l-0.1,0.8c-0.1,0.7-0.7,1.1-1.2,1.1c0,0-0.1,0-0.1,0c-0.6-0.1-1-0.5-1-1.1l0.1-0.8c0.1-0.9,0.2-1.9,0.2-2.8
		c0-0.8,0.7-1.1,1.3-1.1C74.2,36,74.7,36.4,74.7,37.1z M72.8,23.4c0.6,0,1.1,0.4,1.1,1.1v0c-0.1,2.1-0.3,3.7-0.6,5.3
		c-0.1,0.4-0.3,0.6-0.5,0.7c-0.2,0.1-0.3,0.1-0.5,0.1c-0.1,0-0.2,0-0.2,0c-0.6-0.1-1.1-0.7-1-1.4c0.3-1.4,0.4-2.8,0.5-4.7
		C71.6,23.7,72.3,23.4,72.8,23.4z M69.8,13.9c0.6,0,1.2,0.3,1.3,1.1c0,0.9,0.1,1.8,0.2,2.7l0,0.3c0,0.3-0.1,0.6-0.3,0.8
		c-0.2,0.2-0.6,0.4-0.9,0.4c-0.6,0-1.1-0.5-1.2-1.1l0,0l0-0.3c-0.1-0.9-0.2-1.8-0.2-2.8C68.7,14.3,69.3,13.9,69.8,13.9z M69.4,36.8
		C69.4,36.8,69.4,36.8,69.4,36.8c0,0.5-0.1,1-0.1,1.4c-0.1,0.8-0.2,1.6-0.2,2.4c0,0.3-0.1,0.6-0.4,0.8c-0.2,0.2-0.5,0.3-0.8,0.3
		c0,0,0,0,0,0c-0.3,0-0.6-0.1-0.8-0.3c-0.2-0.2-0.4-0.5-0.4-0.8c0-0.8,0.1-1.7,0.2-2.5c0-0.5,0.1-0.9,0.1-1.4c0-0.8,0.7-1.1,1.3-1.1
		C68.9,35.7,69.5,36.1,69.4,36.8z M67.7,27.1c-0.1,0.7-0.2,1.5-0.3,2.2c-0.1,0.7-0.7,1.1-1.2,1.1c0,0-0.1,0-0.1,0
		c-0.6,0-1-0.5-1-1.1c0.1-0.8,0.2-1.5,0.3-2.2c0.1-0.9,0.2-1.9,0.3-2.8c0-0.8,0.7-1.1,1.3-1.1c0.3,0,0.5,0.1,0.7,0.3
		c0.2,0.1,0.3,0.4,0.3,0.8C68,25.2,67.8,26.2,67.7,27.1z M65.6,9.3c0-0.3,0.1-0.7,0.1-1c0.1-0.7,0.5-1.1,1.1-1.1
		c0.3,0,0.6,0.1,0.9,0.4C67.9,7.8,68,8.1,68,8.3c0,0,0,0,0,0c0,0.4-0.1,0.7-0.1,1c-0.1,0.4-0.1,0.8-0.1,1.2
		c-0.1,0.7-0.5,1.1-1.2,1.1c-0.3,0-0.7-0.2-0.9-0.4c-0.2-0.2-0.3-0.5-0.3-0.8C65.5,10.1,65.5,9.7,65.6,9.3z M64,17.5v-3.9
		c0-1.5,2.3-1.5,2.3,0v3.9c0,0.7-0.6,1.1-1.1,1.1C64.6,18.7,64,18.3,64,17.5z M67.3,53c-0.1,0.6-0.2,1.2-0.6,1.7
		c-0.3,0.3-0.6,0.5-1,0.5c-0.3,0-0.6-0.1-0.8-0.3c-0.5-0.4-0.6-1-0.2-1.4c0.3-0.4,0.4-0.9,0.5-1.5c0.1-0.3,0.1-0.7,0.2-1
		c0.3-1,0.8-1.9,1.2-2.8c0.2-0.4,0.5-0.6,0.9-0.6c0.4,0,0.8,0.2,1.1,0.6c0.2,0.3,0.2,0.8,0,1.1c-0.5,1-1,1.9-1.2,2.9
		C67.4,52.5,67.4,52.8,67.3,53z M71.6,59.7c-0.5,1.2-0.8,2.4-1.1,3.6c-0.1,0.6-0.6,0.8-1.1,0.8c-0.1,0-0.2,0-0.3,0
		c-0.6-0.1-1.1-0.7-0.9-1.4c0.3-1.2,0.7-2.4,1.1-3.7l0,0c0.3-0.7,1-0.9,1.6-0.7c0.3,0.1,0.5,0.3,0.6,0.5
		C71.7,59.1,71.7,59.3,71.6,59.7z M71.5,54.9c-0.1,0-0.2,0.1-0.3,0.1c-0.3,0-0.6-0.1-0.8-0.3c-0.3-0.3-0.4-0.7-0.4-1.1
		c0.2-0.8,0.4-1.6,0.7-2.3c0.1-0.4,0.3-0.9,0.4-1.3c0.2-0.7,0.9-0.9,1.4-0.8c0.5,0.2,1,0.7,0.8,1.4l0,0c-0.1,0.5-0.3,0.9-0.4,1.4
		c-0.3,0.7-0.5,1.5-0.7,2.3C72.1,54.5,71.8,54.8,71.5,54.9z"/>
	<path class="st0" d="M67.6,138.4c0.4-0.3,0.8-0.3,1.2,0c0.4,0.3,0.7,0.8,0.6,1.3c-0.1,0.6-0.5,1.4-0.9,2.1c0.1,0.3,0.3,0.6,0.6,0.6
		c0.2,0,0.5-0.2,0.7-0.7c0.2-0.4,0.4-2.7,0.1-3c-0.3-0.3-0.4-0.8-0.3-1.2c0,0,0-0.1,0-0.1c2.1-4.9,4-9.6,4.3-15
		c0.2-3.4,0.1-7.1-0.3-10.8c-0.7,1.5-1.4,2.8-2.2,4c0.8,3,0.3,7.6-1.6,13.4c-1,3.1-2.1,6.2-3.8,8.6c-0.1,0.2-0.2,0.3-0.3,0.5
		c0.2,0,0.3,0.1,0.5,0.2c0.4,0.3,0.6,0.8,0.4,1.2c0,0.1-0.1,0.2-0.2,0.4c0,0,0,0,0,0l-0.1,0.2c-0.2,0.4-0.6,1.1-0.6,1.3
		c0,0,0,0.1,0,0.1c0,0,0.2-0.1,0.6-0.7C66.5,139.7,67,138.8,67.6,138.4z"/>
	<path class="st1" d="M54.7,74.2c0,0.2,0.1,0.4,0.1,0.6c0.1,0.8,0.3,1.8,0.4,2.1c0.8,1.6,2.4,3,4,2.5c0,0,0,0,0-0.1
		c-0.2-0.7-0.2-2.1,0.5-3c0.3-0.4,0.7-0.7,1.2-0.7c0.1,0,0.2,0,0.2,0c0.4-0.1,0.8-0.1,1.2,0c0.4-1.2,0.7-2.4,0.8-3.3
		c-1.9,0.8-3.8,1.5-6,1.8C56.4,74.2,55.6,74.2,54.7,74.2z"/>
	<path class="st0" d="M53.2,56.3c-5.5-2.6-16.1-6.5-25.7-4.5c-5.2,1.1-11.2,4.4-15.7,8.6c0,0.2-0.1,0.4-0.2,0.6
		C1.2,74.4,0.2,96.8,9.4,111c4.3,6.6,11.6,11.7,19.1,13.2l0.1,0c6.9,1.4,14.8,3,21.8,1.5c7.5-1.5,14.4-5.5,18.4-10.6
		c0,0,0-0.1,0-0.1c0-0.4,0.4-0.8,0.8-1c1.6-2.3,2.5-4.9,3.3-7.7l0,0l0.1-0.5c0.2-0.8,0.5-1.5,0.7-2.3c1.3-4.1,1.9-7,1.9-10.2
		C75.9,78.3,66.3,62.4,53.2,56.3z M71.3,102.7c0.1-0.1,0.1-0.3,0.2-0.5c0-0.1,0.1-0.3,0.1-0.4c0.1-0.4,0.4-0.7,0.9-0.8
		c0.4-0.1,0.9,0.1,1.2,0.4c0.2,0.3,0.3,0.7,0.2,1l-0.1,0.3c-0.2,0.5-0.3,1.1-0.7,1.5c-0.2,0.2-0.4,0.3-0.7,0.4c0,0,0,0-0.1,0
		c-0.3,0-0.6-0.1-0.8-0.3C70.9,103.9,70.9,103.2,71.3,102.7z M39.8,84.5c0.1-0.1,0.3-0.2,0.4-0.3c0.6-0.5,1.2-1.1,2.1-1
		c1.1,0,2.1,1,2.2,2c0.1,1.1-0.7,2.2-1.5,2.6C42.7,88,42.5,88,42.2,88c-0.8,0-1.4-0.8-1.7-1.2c-0.1-0.1-0.1-0.2-0.2-0.3
		c-0.2,0-0.4-0.2-0.5-0.3c-0.2-0.2-0.4-0.6-0.3-0.9C39.5,85,39.6,84.7,39.8,84.5z M14.2,75.9c-0.4,0-0.7-0.2-0.9-0.4
		c-0.3-0.3-0.4-0.8-0.2-1.2c0.1-0.3,0.4-0.6,0.8-0.6c1.9-0.3,3.9-0.3,5.8-0.3l0.6,0c0.2-0.1,0.4-0.1,0.5,0c0.9,0,1.8,0,2.7-0.1
		c2.4-0.2,4.7-0.4,6.7-1.4c0.2-0.1,0.4-0.2,0.6-0.3c0.4-0.3,0.9-0.5,1.4-0.6c0.4-0.1,0.9,0.1,1.1,0.3c0.2,0.2,0.3,0.5,0.3,0.8
		c-0.5,3.9-1.4,6.8-2.7,8.7c0,0,0,0,0,0c-1.1,1.5-2.4,2.3-3.9,2.3c-0.5,0-1.1-0.1-1.6-0.3c-1.6-0.5-5.9-4.4-6.3-7.2
		c-1.6,0-3.2,0.1-4.8,0.3C14.3,75.9,14.2,75.9,14.2,75.9z M18.8,115.2c-0.1,0-0.2,0-0.3,0c-0.5,0-0.9-0.3-1.1-0.8
		c-0.3-1.2-0.2-2.3-0.1-3.4l0.1-0.5c0.1-0.8,0.7-1.2,1.3-1.1c0.3,0,0.5,0.1,0.7,0.3c0.1,0.1,0.3,0.4,0.3,0.8c0,0.2,0,0.4-0.1,0.7
		c-0.1,0.9-0.2,1.8,0,2.6C19.9,114.5,19.4,115.1,18.8,115.2z M25.3,119.9c-0.1,0.4-0.5,0.8-0.9,0.9c-0.1,0-0.2,0-0.3,0
		c-0.3,0-0.6-0.1-0.8-0.3c-0.5-0.5-0.7-1-1-1.6l0.3-0.2l-0.3,0.1c-0.3-0.6-0.1-1.2,0.4-1.6c0.3-0.2,0.6-0.2,0.9-0.1
		c0.3,0.1,0.5,0.3,0.6,0.5l0.1,0.2c0.2,0.3,0.3,0.7,0.5,0.9C25.3,119.2,25.4,119.6,25.3,119.9z M25.4,113.1
		c-0.1,0.4-0.2,0.8-0.1,1.1c0.1,0.7-0.2,1.2-0.8,1.4c-0.1,0-0.2,0-0.3,0c-0.2,0-0.5-0.1-0.7-0.2c-0.3-0.2-0.4-0.4-0.5-0.7
		c-0.1-0.6,0-1.2,0.1-1.7c0.1-0.3,0.1-0.5,0.1-0.8c0.1-0.7,0.5-1.1,1.2-1.1c0.3,0,0.6,0.1,0.9,0.4c0.2,0.2,0.3,0.5,0.3,0.8
		C25.6,112.5,25.5,112.8,25.4,113.1z M29.8,114.4c0,0.7-0.6,1.1-1.2,1.1c-0.6,0-1.2-0.4-1.2-1.1v-1.7c0-1.5,2.3-1.5,2.3,0V114.4z
		 M33.3,125c0,0-0.1,0-0.1,0c-0.6,0-1.2-0.4-1.2-1.1c0-0.3-0.2-0.6-0.4-0.9c-0.1-0.1-0.2-0.2-0.2-0.4c-0.3-0.7-0.5-1.3-0.5-1.9
		c0-1.5,2.3-1.5,2.3,0c0,0.4,0.2,0.7,0.4,1.1l0.1,0.2c0.3,0.6,0.5,1.2,0.6,1.7C34.3,124.5,33.9,124.9,33.3,125z M33.6,115.3
		c-0.1,0-0.3,0.1-0.4,0.1c-0.4,0-0.7-0.2-0.9-0.6l-0.2-0.4c-0.1-0.3-0.2-0.5-0.1-0.8c0-0.1,0-0.2,0-0.3c0-0.3,0.1-0.6,0.3-0.8
		c0.2-0.2,0.6-0.4,0.9-0.4c0.6,0,1.1,0.5,1.2,1.1c0,0.2,0.1,0.4,0.1,0.7C34.5,114.6,34.1,115.1,33.6,115.3z M39.1,124.5
		c-0.2,0.2-0.5,0.3-0.8,0.3c-0.1,0-0.3,0-0.4-0.1c-0.3-0.1-0.6-0.4-0.6-0.8c-0.2-1-0.4-1.8-0.7-2.5c-0.3-0.6-0.1-1.2,0.4-1.5
		c0.3-0.2,0.6-0.2,1-0.1c0.3,0.1,0.5,0.3,0.6,0.5c0.5,1,0.8,2,0.9,3.1C39.6,123.8,39.4,124.2,39.1,124.5z M39.2,115.5
		c-0.2,0.2-0.5,0.3-0.9,0.3c0,0,0,0-0.1,0c-0.3,0-0.6-0.1-0.7-0.4c-0.6-0.7-0.8-1.5-0.9-2.4c0-0.2-0.1-0.4-0.2-0.6
		c-0.1-0.4,0-0.8,0.3-1.1c0.3-0.3,0.8-0.4,1.2-0.3c0.4,0.1,0.7,0.4,0.8,0.8c0.1,0.2,0.1,0.5,0.1,0.7c0.1,0.5,0.2,1,0.4,1.3
		C39.6,114.4,39.6,115.1,39.2,115.5z M42.3,113c-0.1-0.4-0.1-0.8,0.2-1c0.3-0.3,0.7-0.5,1.2-0.4c0.4,0.1,0.7,0.4,0.9,0.8
		c0,0.1,0.1,0.2,0.1,0.3c0.1,0.3,0.2,0.7,0.4,0.9c0.2,0.2,0.3,0.5,0.3,0.8c0,0.3-0.1,0.6-0.3,0.9c-0.2,0.2-0.5,0.3-0.8,0.3
		c-0.3,0-0.6-0.1-0.8-0.3c-0.6-0.5-0.8-1.3-1.1-2L42.3,113z M45.8,124.7c-0.2,0.2-0.5,0.3-0.8,0.3c-0.3,0-0.7-0.1-1-0.5
		c-0.3-0.4-0.5-0.9-0.6-1.4c0-0.2-0.1-0.3-0.1-0.5l-0.1-0.4c-0.2-0.6-0.4-1.2-0.4-2c0-0.7,0.5-1.1,1.1-1.1c0.6,0,1.2,0.4,1.2,1.1
		c0,0.4,0.2,0.8,0.3,1.2c0.1,0.2,0.1,0.3,0.2,0.5c0.1,0.2,0.1,0.3,0.1,0.5c0.1,0.3,0.2,0.6,0.3,0.9
		C46.4,123.8,46.3,124.4,45.8,124.7z M50.2,121.3c0.2,0.2,0.2,0.5,0.2,0.8c-0.1,0.3-0.3,0.7-0.6,0.8c-0.2,0.1-0.4,0.2-0.6,0.2
		c-0.4,0-0.7-0.2-1-0.5c-0.7-0.9-0.7-2.2,0-3.2c0.2-0.4,0.6-0.6,1-0.5c0.4,0,0.8,0.3,1,0.7c0.2,0.3,0.1,0.7-0.1,1.1
		C50,120.9,50.1,121.1,50.2,121.3z M47.6,111.4c0-0.3,0.1-0.6,0.3-0.8c0.2-0.3,0.6-0.4,0.9-0.4c0.6,0,1.1,0.5,1.1,1.1
		c0,0.4,0.2,0.8,0.4,1.1c0.2,0.4,0.2,0.8,0,1.1c-0.2,0.4-0.6,0.6-1,0.6c0,0,0,0,0,0c-0.4,0-0.7-0.2-0.9-0.6
		C47.9,112.8,47.6,112.1,47.6,111.4z M52.7,111.9l-0.1-0.3c-0.1-0.3-0.3-0.6-0.4-0.9c-0.3-0.7,0-1.3,0.6-1.6
		c0.6-0.3,1.2-0.1,1.5,0.5l0.1,0.3c0.1,0.3,0.3,0.6,0.4,0.8c0,0,0,0,0,0c0.3,0.7,0,1.3-0.6,1.6c-0.2,0.1-0.4,0.1-0.5,0.1
		C53.3,112.5,52.9,112.3,52.7,111.9z M56.4,118.6c-0.1,0.3-0.2,0.7-0.3,1c-0.1,0.5-0.2,1-0.6,1.5c-0.2,0.4-0.6,0.5-1,0.5
		c-0.3,0-0.5-0.1-0.7-0.2c-0.5-0.3-0.7-0.9-0.3-1.5c0.2-0.4,0.4-0.8,0.5-1.3c0.1-0.4,0.2-0.8,0.3-1.1c0.1-0.3,0.3-0.4,0.6-0.5
		c0.3-0.1,0.7-0.1,1,0.1c0,0,0,0,0,0C56.5,117.3,56.7,118,56.4,118.6z M60.6,116.9C60.6,116.9,60.6,116.9,60.6,116.9
		c-0.4,0.7-0.7,1.3-0.8,2c0,0.1-0.1,0.2-0.1,0.3c-0.1,0.5-0.2,1-0.7,1.5c-0.2,0.3-0.5,0.4-0.8,0.4c-0.1,0-0.1,0-0.2,0
		c-0.4-0.1-0.8-0.4-0.9-0.8c-0.2-0.4-0.1-0.8,0.2-1.2c0.1-0.1,0.1-0.3,0.1-0.4c0-0.1,0-0.2,0-0.2c0.1-0.3,0.2-0.7,0.3-0.9
		c0.2-0.6,0.5-1.2,0.8-1.8c0.4-0.6,1-0.7,1.5-0.4C60.6,115.6,61,116.3,60.6,116.9z M60.3,112.8c-0.2,0.1-0.4,0.2-0.7,0.2
		c-0.4,0-0.7-0.2-0.9-0.5c-0.5-0.8-0.6-1.8-0.7-2.8c0-0.3,0.1-0.6,0.3-0.8c0.2-0.2,0.6-0.4,0.9-0.4c0.6,0,1.1,0.5,1.2,1.1
		c0,0,0,0,0,0c0,0.6,0.1,1.2,0.4,1.7C61,111.9,60.7,112.5,60.3,112.8z M55.1,100.1C55.1,100.1,55.1,100.1,55.1,100.1
		c-3.7,1.4-7.8,2.1-10.8,2.6l-0.1,0c-1.8,0.3-4,0.5-6.4,0.5c-6,0-13.1-1.3-17-5.9c-0.5-0.6-0.3-1.3,0.2-1.7c0.5-0.4,1.1-0.4,1.5,0.1
		c1.1,1.3,2.5,2.3,4.3,3.1c0.5-2.3,1.2-5.7,4.1-6c1.6-0.2,3,0.7,3.7,2.4c0.4,0.9,0.5,1.8,0.4,2.6c0,0.6-0.2,1.2-0.4,1.7
		c-0.1,0.3-0.2,0.7-0.3,1c0,0.1-0.1,0.1-0.1,0.2c3.5,0.4,6.8,0.1,8.9-0.2c1.2-0.1,2.3-0.3,3.4-0.5c0-0.6,0.1-1.2,0.1-1.7
		c0.1-0.5,0.1-0.9,0.1-1.3c0-0.8,0.1-1.8,0.4-2.7c0.6-1.9,1.9-3,3.4-2.9c1.6,0.1,2.6,1.4,3.3,2.9l0,0c0.1,0.3,0.3,0.5,0.4,0.8
		c0.4,0.8,0.9,1.6,1.1,2.4c3-1.4,5-3.1,5.6-4.7c0.3-0.7,1-0.9,1.6-0.7c0.6,0.2,0.9,0.8,0.7,1.4c0,0,0,0,0,0
		C62.2,96.1,59.5,98.4,55.1,100.1z M62.4,109.1v-2.2c0-1.5,2.3-1.5,2.3,0v2.2c0,0.7-0.6,1.1-1.2,1.1
		C62.9,110.2,62.4,109.8,62.4,109.1z M66.8,104.3c0-1.5,2.3-1.5,2.3,0v2.5c0,0.7-0.6,1.1-1.2,1.1s-1.2-0.4-1.2-1.1V104.3z
		 M65.9,112.7c0.6,0.1,1.1,0.6,1,1.4c0,0,0,0,0,0c-0.2,1-0.7,1.8-1.1,2.6c-0.2,0.4-0.5,0.8-0.7,1.3c-0.2,0.4-0.4,0.6-0.8,0.6
		c0,0-0.1,0-0.1,0c-0.4,0-0.8-0.2-1-0.5c-0.3-0.4-0.3-0.8-0.1-1.2c0.2-0.4,0.4-0.8,0.6-1.2c0.4-0.7,0.8-1.4,0.9-2.2
		C64.8,112.9,65.3,112.6,65.9,112.7z M64.6,69.6c0.3,0.2,0.5,0.4,0.6,0.7c0,0,0,0,0,0c0.5,2-0.3,5.2-1.3,7.4c0,0,0,0,0,0
		c-0.1,0.3-0.2,0.5-0.4,0.7c-1.2,2.2-3,3.4-4.9,3.4c-0.3,0-0.5,0-0.8-0.1c-1.4-0.2-2.9-1.3-4.1-3c-1.1-1.6-1.7-3.3-1.5-4.8
		c-1.5-0.1-3.1-0.2-4.6,0.1c-0.1,0-0.2,0-0.3,0c-0.3,0-0.6-0.1-0.8-0.4c-0.3-0.3-0.4-0.8-0.3-1.2c0.1-0.4,0.4-0.6,0.8-0.7
		c1.6-0.3,3.3-0.2,4.9-0.1c0.4,0,0.7,0.1,1.1,0.1c0.2-0.2,0.4-0.4,0.6-0.6c0.3-0.2,0.9-0.3,1.2,0l0.3,0.2c0.1,0.1,0.2,0.2,0.3,0.4
		c2.7-0.2,4.8-1,7.3-2l1-0.4C64,69.4,64.3,69.5,64.6,69.6z"/>
	<path class="st1" d="M49,97.2c-0.1,0.8-0.2,1.6-0.2,2.3c1.2-0.3,2.4-0.6,3.5-0.9c0.3-0.1,0.6-0.2,1-0.3c0,0,0-0.1,0.1-0.1
		c-0.1-0.6-0.5-1.1-0.8-1.7c-0.1-0.2-0.2-0.4-0.3-0.6c-0.1-0.1-0.2-0.3-0.2-0.5c-0.3-0.7-0.8-1.7-1.4-1.8c-0.2,0-0.4,0-0.6,0.1
		c-0.3,0.2-0.7,0.9-0.9,2.7C49,96.6,49,96.9,49,97.2z"/>
	<path class="st1" d="M29,99.1c0,0.2-0.1,0.4-0.1,0.5c0.9,0.3,2,0.5,3,0.7c0-0.2,0-0.3,0-0.5c0.1-0.3,0.2-0.7,0.3-1
		c0.3-0.9,0.5-1.7,0.2-2.6c-0.2-0.6-0.6-1-1-1.2c-0.3-0.1-0.6-0.1-0.9,0.1c0,0,0,0,0,0C29.6,95.9,29.3,97.8,29,99.1z"/>
	<path class="st1" d="M26.5,75.2L26,75.3c-1.6,0.2-3.1,0.2-4.6,0.2c0.7,1.1,3.4,4.1,3.7,4.4c0.8,0.5,1.5,0.6,2.1,0.4
		c0-0.1-0.1-0.1-0.1-0.2c-0.2-1.1,0.2-2.4,0.7-3.2c0.4-0.6,0.9-1,1.5-1c0.3,0,0.7,0.1,0.9,0.4c0.2-0.7,0.5-1.4,0.6-2.2
		c-0.2,0.1-0.3,0.2-0.5,0.2C29.2,74.9,27.8,75.1,26.5,75.2z"/>
	<path class="st0" d="M5.7,108.9c-1.1,5.2-1.6,11-1.5,17.2c0.1-1,0.1-2,0.2-3.1c0.3-3.8,1-6.9,2.2-9.6c0.2-0.4,0.5-0.7,0.9-0.7
		c0.2,0,0.4,0,0.5,0C7.2,111.5,6.4,110.2,5.7,108.9z"/>
	<path class="st0" d="M8.5,139.7C8.5,139.7,8.6,139.7,8.5,139.7c0.5,0.5,0.8,0.7,0.9,0.7c0-0.2,0-0.6-0.4-1.8
		c-0.6-1.5-1.7-2.4-3.4-3c0,0-0.1,0-0.1-0.1c-0.3-0.2-0.4-0.3-0.6-0.4c-0.1-0.1-0.2-0.1-0.3-0.2c0,0.2-0.1,0.5-0.3,0.6
		c-0.1,0.1-0.3,0.2-0.5,0.3c0,0,0,0,0,0c0,0.3,0,0.7,0,1.1c0,1.6,0,3.5,0.6,4.7c0.7,1.4,1,1.5,1,1.5c0,0,0.1-0.1,0.1-0.3
		c0.3-0.8-0.6-2.9-1-4.1l-0.1-0.4c0,0,0-0.1-0.1-0.1c-0.2-0.6,0-1.1,0.5-1.4c0.5-0.2,1.2-0.2,1.6,0.4C7,138.3,7.8,139.3,8.5,139.7z"
		/>
	<path class="st0" d="M13.3,29.8c0.5-4.5,0.8-9.3,0.8-14.6c0-0.5,0-1,0.1-1.6c0.1-2.2,0.2-5.2-0.8-6.6c-1-1.3-2-2-3.1-1.9
		C7.8,5.1,5.7,8.1,4.8,9.4c-2.5,4-2.4,8.9-2.2,13.7c0,0.7,0,1.5,0.1,2.2C2.8,30.5,3,35.7,3.4,41.1c0.2,2.1,0.2,4.3,0.2,6.4
		c0,2.6,0,5.2,0.3,7.8c0.3,2.4,0.9,4.8,1.5,7.2c0.3,1,0.5,2.1,0.7,3.1c0.6-1.1,1.2-2.1,1.8-3.2C7.6,62,7.6,61.5,8,61.1
		c0.6-0.8,1.3-1.5,2-2.1c1-7.2,1.8-14.6,2.6-21.7C12.8,34.8,13,32.3,13.3,29.8z M11.3,16.2c0,0.4-0.1,0.8-0.1,1.1
		c-0.1,0.6-0.2,1.3-0.1,1.9c0,0.6-0.4,1.1-1,1.1c0,0-0.1,0-0.1,0c-0.6,0-1.2-0.4-1.2-1.1c-0.1-0.7,0-1.4,0.1-2C9,16.8,9,16.5,9,16.1
		c0,0,0,0,0,0c0-0.4,0.3-0.8,0.7-1c0.4-0.2,0.9-0.2,1.2,0.1C11.2,15.4,11.4,15.8,11.3,16.2z M8.2,11.4c0.2-1,0.3-1.9,0.5-2.9L8.8,8
		v0c0.1-0.8,0.8-1.1,1.4-1.1c0.6,0.1,1,0.5,0.9,1.1L11,8.9c-0.1,1-0.2,2-0.5,3.1c-0.1,0.4-0.4,0.7-0.7,0.8c-0.1,0-0.2,0-0.3,0
		c-0.3,0-0.6-0.1-0.9-0.3C8.3,12.2,8.1,11.8,8.2,11.4z M3.6,13.1c0-0.4,0.1-0.8,0.1-1.2c0.1-0.8,0.7-1.1,1.3-1.1
		c0.3,0,0.5,0.1,0.7,0.3C5.9,11.3,6.1,11.6,6,12c0,0,0,0,0,0c0,0.4-0.1,0.8-0.1,1.2c-0.1,0.8-0.2,1.6-0.2,2.4c0,0.3-0.1,0.6-0.4,0.8
		c-0.2,0.2-0.5,0.3-0.8,0.3c0,0,0,0,0,0c-0.3,0-0.6-0.1-0.8-0.3c-0.2-0.2-0.4-0.5-0.4-0.8C3.4,14.7,3.5,13.9,3.6,13.1z M3.5,28.1
		c0-0.6,0.1-1.1,0.2-1.7c0-0.2,0.1-0.4,0.1-0.6c0.1-0.9,0.3-1.7,0.5-2.5c0.2-0.7,0.9-0.9,1.4-0.8c0.6,0.2,1,0.7,0.8,1.4c0,0,0,0,0,0
		c-0.2,0.7-0.3,1.4-0.5,2.1c0,0.2-0.1,0.4-0.1,0.6c-0.1,0.5-0.2,1-0.2,1.5c0,0.4-0.2,0.7-0.3,0.8c-0.2,0.2-0.5,0.3-0.7,0.3
		c0,0,0,0,0,0C4.1,29.3,3.5,28.9,3.5,28.1z M4,39l0.1-0.7c0.1-0.6,0.2-1.2,0.2-1.8c0.1-0.8,0.7-1.1,1.3-1.1c0.3,0,0.5,0.1,0.7,0.3
		c0.1,0.1,0.3,0.4,0.3,0.8c0,0.6-0.1,1.2-0.2,1.8l-0.1,0.7c-0.1,0.7-0.5,1.1-1.1,1.1c-0.3,0-0.7-0.2-0.9-0.4C4.1,39.5,4,39.3,4,39z
		 M8,48C8,48,8,48,8,48l-0.1,0.4c-0.2,0.8-0.4,1.6-0.4,2.4c-0.1,0.7-0.7,1.1-1.2,1.1c0,0-0.1,0-0.1,0c-0.6-0.1-1-0.5-1-1.1
		c0.1-1.1,0.3-2.1,0.5-3.1l0.1-0.2c0.1-0.4,0.3-0.7,0.7-0.8c0.4-0.1,0.9,0,1.2,0.3C7.9,47.1,8,47.5,8,48z M10.5,34.6
		C10.5,34.6,10.5,34.6,10.5,34.6c-0.1,0.3-0.1,0.5-0.2,0.8c-0.2,0.9-0.4,1.7-0.3,2.5C10,38.5,9.6,39,9,39c0,0-0.1,0-0.1,0
		c-0.6,0-1.2-0.4-1.2-1.1c-0.1-1.1,0.1-2.1,0.4-3.1c0.1-0.3,0.1-0.6,0.2-0.9c0.1-0.6,0.7-1,1.3-0.8C10.1,33.3,10.6,33.8,10.5,34.6z
		 M11.8,26.2c-0.4,1-0.9,2.2-1,3.4c-0.1,0.7-0.7,1.1-1.2,1.1c0,0-0.1,0-0.1,0c-0.6-0.1-1-0.5-1-1.1c0.2-1.6,0.7-3.1,1.3-4.4
		c0.2-0.4,0.4-0.6,0.8-0.6c0.4,0,0.8,0.2,1.1,0.5C11.9,25.3,11.9,25.8,11.8,26.2z"/>
	<path class="st2" d="M72.4,37.1c0,0.9-0.1,1.9-0.2,2.8l-0.1,0.8c-0.1,0.6,0.3,1.1,1,1.1c0,0,0.1,0,0.1,0c0.6,0,1.2-0.4,1.2-1.1
		l0.1-0.8c0.1-0.9,0.2-1.9,0.2-2.9c0,0,0,0,0,0c0-0.7-0.5-1.1-1.1-1.1C73.1,35.9,72.4,36.3,72.4,37.1z"/>
	<path class="st2" d="M72.2,104.7C72.2,104.7,72.2,104.7,72.2,104.7c0.4,0,0.6-0.1,0.8-0.4c0.4-0.5,0.6-1,0.7-1.5l0.1-0.3
		c0.1-0.4,0.1-0.8-0.2-1c-0.3-0.3-0.7-0.5-1.2-0.4c-0.4,0.1-0.7,0.4-0.9,0.8c0,0.1-0.1,0.3-0.1,0.4c0,0.2-0.1,0.5-0.2,0.5
		c-0.4,0.5-0.4,1.2,0,1.6C71.6,104.5,71.9,104.7,72.2,104.7z"/>
	<path class="st2" d="M72,30.6c0.1,0,0.2,0,0.2,0c0.2,0,0.4,0,0.5-0.1c0.2-0.1,0.4-0.3,0.5-0.7c0.3-1.6,0.5-3.2,0.6-5.3v0
		c0-0.7-0.5-1.1-1.1-1.1c-0.6,0-1.2,0.4-1.2,1.1c-0.1,1.9-0.2,3.4-0.5,4.7C70.9,30,71.4,30.5,72,30.6z"/>
	<path class="st2" d="M72.8,51.8c0.2-0.4,0.3-0.9,0.4-1.4l0,0c0.2-0.7-0.2-1.2-0.8-1.4c-0.6-0.2-1.2,0-1.4,0.8
		c-0.1,0.4-0.3,0.9-0.4,1.3c-0.3,0.8-0.5,1.5-0.7,2.3c-0.1,0.4,0,0.8,0.4,1.1c0.2,0.2,0.5,0.3,0.8,0.3c0.1,0,0.2,0,0.3-0.1
		c0.4-0.1,0.6-0.4,0.7-0.8C72.3,53.3,72.6,52.6,72.8,51.8z"/>
	<path class="st2" d="M69.1,18.1L69.1,18.1c0.1,0.7,0.5,1.1,1.2,1.1c0.3,0,0.6-0.2,0.9-0.4c0.2-0.2,0.3-0.5,0.3-0.8l0-0.3
		c-0.1-0.9-0.2-1.8-0.2-2.7c0-0.8-0.7-1.1-1.3-1.1c-0.5,0-1.1,0.4-1,1.1c0,0.9,0.1,1.9,0.2,2.8L69.1,18.1z"/>
	<path class="st2" d="M71,58.4c-0.6-0.2-1.3,0-1.6,0.7l0,0c-0.5,1.3-0.8,2.5-1.1,3.7c-0.2,0.7,0.3,1.3,0.9,1.4c0.1,0,0.2,0,0.3,0
		c0.5,0,0.9-0.3,1.1-0.8c0.3-1.2,0.7-2.4,1.1-3.6c0.1-0.4,0.1-0.7,0-0.9C71.4,58.7,71.2,58.5,71,58.4z"/>
	<path class="st2" d="M68,108c0.6,0,1.2-0.4,1.2-1.1v-2.5c0-1.5-2.3-1.5-2.3,0v2.5C66.8,107.6,67.4,108,68,108z"/>
	<path class="st2" d="M67.1,36.8c0,0.5-0.1,0.9-0.1,1.4c-0.1,0.8-0.2,1.7-0.2,2.5c0,0.3,0.1,0.6,0.4,0.8c0.2,0.2,0.5,0.3,0.8,0.3
		c0,0,0,0,0,0c0.3,0,0.6-0.1,0.8-0.3c0.2-0.2,0.4-0.5,0.4-0.8c0-0.8,0.1-1.6,0.2-2.4c0-0.5,0.1-1,0.1-1.4c0,0,0,0,0,0
		c0-0.7-0.5-1.1-1-1.1C67.8,35.7,67.2,36,67.1,36.8z"/>
	<path class="st2" d="M66.6,11.7c0.6,0,1.1-0.5,1.2-1.1c0-0.4,0.1-0.8,0.1-1.2c0-0.3,0.1-0.7,0.1-1c0,0,0,0,0,0
		c0-0.3-0.1-0.6-0.3-0.8c-0.2-0.3-0.6-0.4-0.9-0.4c-0.6,0-1.1,0.5-1.1,1.1c0,0.3-0.1,0.7-0.1,1c-0.1,0.4-0.1,0.8-0.1,1.2
		c0,0.3,0.1,0.6,0.3,0.8C65.9,11.5,66.3,11.7,66.6,11.7z"/>
	<path class="st2" d="M67,23.1c-0.6,0-1.2,0.3-1.3,1.1c-0.1,0.9-0.2,1.9-0.3,2.8c-0.1,0.7-0.2,1.5-0.3,2.2c0,0.6,0.4,1.1,1,1.1
		c0,0,0.1,0,0.1,0c0.6,0,1.2-0.4,1.2-1.1c0.1-0.7,0.2-1.5,0.3-2.2c0.1-0.9,0.3-1.9,0.3-2.8c0-0.4-0.2-0.7-0.3-0.8
		C67.5,23.2,67.3,23.1,67,23.1z"/>
	<path class="st2" d="M68.7,48.2c-0.2-0.4-0.6-0.6-1.1-0.6c-0.4,0-0.7,0.2-0.9,0.6c-0.4,0.9-0.9,1.8-1.2,2.8c-0.1,0.3-0.2,0.7-0.2,1
		c-0.1,0.5-0.2,1.1-0.5,1.5c-0.4,0.5-0.3,1.1,0.2,1.4c0.2,0.2,0.5,0.3,0.8,0.3c0.3,0,0.7-0.1,1-0.5c0.4-0.5,0.5-1.1,0.6-1.7
		c0-0.2,0.1-0.5,0.1-0.7c0.3-1,0.7-2,1.2-2.9C68.9,49,68.9,48.6,68.7,48.2z"/>
	<path class="st2" d="M64.6,113.6c-0.2,0.8-0.5,1.4-0.9,2.2c-0.2,0.4-0.4,0.8-0.6,1.2c-0.2,0.4-0.1,0.8,0.1,1.2
		c0.2,0.3,0.6,0.5,1,0.5c0,0,0.1,0,0.1,0c0.4,0,0.6-0.3,0.8-0.6c0.2-0.4,0.4-0.9,0.7-1.3c0.5-0.8,0.9-1.6,1.1-2.6c0,0,0,0,0,0
		c0.2-0.7-0.4-1.3-1-1.4C65.3,112.6,64.8,112.9,64.6,113.6z"/>
	<path class="st2" d="M66.3,17.5v-3.9c0-1.5-2.3-1.5-2.3,0v3.9c0,0.7,0.6,1.1,1.2,1.1C65.8,18.7,66.3,18.3,66.3,17.5z"/>
	<path class="st2" d="M64.7,109.1v-2.2c0-1.5-2.3-1.5-2.3,0v2.2c0,0.7,0.6,1.1,1.2,1.1C64.1,110.2,64.7,109.8,64.7,109.1z"/>
	<path class="st2" d="M71.9,70.5c0.5,0,0.9-0.3,1.1-0.7c0.4-1,0.9-2,1.4-2.9c0.8-1.5,1.6-3.1,2.1-4.9c1.1-3.8,2-7.3,2.7-10.5
		c1.5-6.6,0.8-13.8,0.2-18.6c-0.7-5.8-1.6-12.1-3.3-18.1c-1.2-4.1-2.7-9.3-6.4-12.8c-1.8-1.7-3.4-2.2-4.8-1.6
		c-4.9,2.1-5.4,17.3-5.4,17.4c-0.1,3.9,0.2,7.8,0.5,11.6c0.2,2.8,0.4,5.6,0.5,8.4c0.1,2.5,0.2,5,0.3,7.6c0.2,4.3,0.3,8.7,0.4,13.1
		c-0.7-0.6-1.5-1.1-2.3-1.6c-8.2-5.1-18.5-7.9-28-7.6c-5.9,0.2-12.7,3-18.4,7.6c0.6-5,1.1-10,1.5-14.3c0.2-2.8,0.6-5.6,1-8.4
		c0.5-3.6,1-7.3,1.2-11c0-0.4,0.1-0.9,0.1-1.5c0.4-5.1,1.1-15.6-2.9-18.4c-1.3-0.9-2.9-1-4.9-0.1c-9.7,4-8.7,17.8-8.1,27
		c0.1,1.3,0.2,2.4,0.2,3.5c0.1,2.6,0.2,5.2,0.3,7.8C1,45.1,1.1,49.1,1.3,53c0.2,3.3,1,6.5,1.7,9.6c0.5,2,1,4.2,1.3,6.3
		c0,0,0,0.1,0,0.1c-4.9,11.9-4.7,26.4,0.4,38c0.1,0.1,0.1,0.3,0.2,0.4c-0.2-0.1-0.4-0.1-0.6-0.1c-0.5,0.1-0.8,0.4-0.9,0.8
		c-1.7,7.8-2,16.8-1.2,26.6c0,0,0,0,0,0c-0.2,0-0.4,0.1-0.5,0.2c-0.2,0.2-0.4,0.5-0.3,0.8l0,0.3c0,2.1,0.2,8.4,2.5,10
		c0.4,0.3,0.8,0.4,1.3,0.4c0.3,0,0.6-0.1,0.9-0.2c1.6-0.5,2.1-2.1,1.6-4.8c0.7,0.5,1.7,1,2.6,1c0.3,0,0.7-0.1,0.9-0.3
		c0.7-0.5,0.8-1.8,0.2-3.6c-0.4-1.3-1.3-3.1-2.6-4.1c-0.6-0.5-1.1-0.7-1.5-0.9c-0.7-0.3-1.2-0.5-1.3-1.8c-0.6-5.3,0.5-12.6,2.6-17.7
		c0-0.1,0.1-0.2,0.1-0.3c3.5,4.7,7.9,8.5,12.5,10.7c2.6,1.3,5.7,1.8,8.7,2.4c0.8,0.2,1.7,0.3,2.5,0.5c0.1,0,0.3,0.1,0.4,0.1l0.1,0
		c-0.1,1-0.3,1.9-0.5,2.9c-0.3,1.7-0.6,3.6-0.7,5.4c-0.1,1.4-0.1,2.7-0.2,4.1c0,0.6,0,1.2-0.1,1.9c0,0.6-0.1,1.4-0.2,2.2
		c-0.2,1.2-0.4,2.5-0.2,3.5c0.4,3,4.5,5.7,7.2,6.2c0.1,0,0.2,0,0.3,0c0.3,0,0.6-0.1,0.8-0.4c0.3-0.3,0.4-0.8,0.3-1.2
		c-0.1-0.3-0.4-0.6-0.8-0.7c-1.3-0.3-3.6-1.8-4.5-2.8c-1-1.2-0.8-3-0.6-4.7c0.1-0.5,0.1-1,0.1-1.5c0.2-4.4,0.6-8.7,1.4-14.5
		c0,0,0-0.1,0-0.1c3,0.4,6.2,0.4,9.2,0.4l0.4,0c0.1,0,0.1,0,0.2,0c-0.4,0.1-0.8,0.5-0.8,1c-0.2,2.5-0.3,5-0.4,7.5
		c-0.2,4.2-0.3,8.5-1,12.6c-0.1,0.6,0.2,1.1,0.8,1.4c0.4,0.1,1.8,0.5,3.5,0.9c2,0.5,5,1.3,5.5,1.5c0.1,0.3,0.3,0.6,0.6,0.7
		c0.1,0,0.2,0.1,0.4,0.1c0.3,0,0.6-0.1,0.8-0.3c0.3-0.3,0.5-0.7,0.4-1.1l0-0.2c-0.1-0.4-0.4-0.8-0.8-0.8c-2.6-0.5-5.6-1.4-8.7-2.5
		c0.6-4,0.7-8.1,0.9-12c0.1-2.5,0.2-5,0.4-7.5c0-0.6-0.3-1-0.8-1.1c7.4-0.2,15.3-3.1,21.3-7.9c0.8-0.7,1.6-1.5,2.4-2.3
		c0,2-0.4,4.3-0.8,6l-0.1,0.6c-0.4,2-1,4.1-2.1,6.8c-1,2.5-2.3,4.3-3.9,6.3c-0.3,0.4-0.6,0.7-0.8,1.1l-0.1,0.1
		c-0.7,0.9-1.3,1.8-1.2,3c0,0.6,0.5,1.1,1.2,1.1c0.6,0,1.1-0.2,1.6-0.4c0.1,0.6,0.6,1.1,1.2,1.3c0.2,0.1,0.5,0.1,0.7,0.1
		c0.4,0,0.9-0.1,1.3-0.4c0.2,0.6,0.6,1.1,1.1,1.5c0.5,0.4,1,0.5,1.5,0.5c0.3,0,0.5-0.1,0.8-0.2c1.6-0.7,2.3-3.7,2.4-5.2
		c0.1-0.6,0-1.2,0-1.7c0-0.8,0-1.5,0.3-2.4c0.2-0.5,0.4-1,0.6-1.5c1-2.6,2-5.1,2.5-7.9c1-5.5,1-12-0.3-20c0.8-2.4,1.4-4.8,1.9-6.8
		c1.8-7.2,0.8-15.7-2.9-23.9c-1-2.1-2-4.1-3.1-5.9C71.5,70.5,71.7,70.5,71.9,70.5C71.9,70.5,71.9,70.5,71.9,70.5z M6.5,137.4
		c-0.4-0.6-1.1-0.6-1.6-0.4c-0.5,0.3-0.7,0.8-0.5,1.4c0,0,0,0.1,0.1,0.1l0.1,0.4c0.5,1.1,1.3,3.2,1,4.1c-0.1,0.2-0.1,0.3-0.1,0.3
		c-0.1,0-0.4-0.2-1-1.5c-0.6-1.2-0.6-3.1-0.6-4.7c0-0.4,0-0.7,0-1.1c0,0,0,0,0,0c0.2,0,0.4-0.1,0.5-0.3c0.2-0.2,0.2-0.4,0.3-0.6
		c0.1,0.1,0.2,0.1,0.3,0.2c0.1,0.1,0.3,0.1,0.6,0.4c0,0,0.1,0.1,0.1,0.1c1.7,0.5,2.8,1.5,3.4,3c0.4,1.2,0.4,1.6,0.4,1.8
		c-0.1-0.1-0.4-0.2-0.8-0.7c0,0,0,0-0.1-0.1C7.8,139.3,7,138.3,6.5,137.4z M7.5,112.8c-0.4,0.1-0.8,0.3-0.9,0.7
		c-1.1,2.8-1.8,5.8-2.2,9.6c-0.1,1-0.1,2-0.2,3.1c-0.1-6.2,0.4-12,1.5-17.2c0.7,1.3,1.5,2.6,2.3,3.9C7.9,112.8,7.7,112.7,7.5,112.8z
		 M73.9,103.5c-0.3,0.8-0.5,1.5-0.7,2.3l-0.1,0.5l0,0c-0.9,2.8-1.7,5.3-3.3,7.7c-0.4,0.2-0.8,0.6-0.8,1c0,0,0,0.1,0,0.1
		c-4,5.1-10.9,9.1-18.4,10.6c-7.1,1.5-14.9-0.1-21.8-1.5l-0.1,0c-7.5-1.5-14.8-6.5-19.1-13.2c-9.2-14.2-8.2-36.6,2.2-50
		c0.1-0.2,0.2-0.4,0.2-0.6c4.5-4.2,10.5-7.6,15.7-8.6c9.7-2,20.3,2,25.7,4.5c13,6.1,22.7,22,22.5,37C75.7,96.5,75.2,99.5,73.9,103.5
		z M9.9,59c-0.7,0.6-1.3,1.3-2,2.1c-0.3,0.4-0.4,0.9-0.1,1.3c-0.7,1-1.3,2.1-1.8,3.2c-0.2-1-0.5-2.1-0.7-3.1
		c-0.6-2.3-1.2-4.7-1.5-7.2c-0.3-2.6-0.3-5.2-0.3-7.8c0-2.1,0-4.3-0.2-6.4C3,35.7,2.8,30.5,2.7,25.3c0-0.7,0-1.4-0.1-2.2
		c-0.1-4.8-0.3-9.7,2.2-13.7c0.8-1.3,3-4.3,5.3-4.3c1.1,0,2.2,0.6,3.1,1.9c1,1.4,0.9,4.4,0.8,6.6c0,0.6-0.1,1.1-0.1,1.6
		c0,5.3-0.3,10.1-0.8,14.6c-0.3,2.5-0.5,5-0.8,7.5C11.7,44.5,11,51.8,9.9,59z M65.6,141.4C65.6,141.4,65.6,141.4,65.6,141.4
		c0-0.3,0.3-1,0.5-1.3l0.1-0.2c0,0,0,0,0,0c0.1-0.2,0.2-0.3,0.2-0.4c0.2-0.5,0-0.9-0.4-1.2c-0.1-0.1-0.3-0.2-0.5-0.2
		c0.1-0.1,0.2-0.3,0.3-0.5c1.8-2.4,2.8-5.4,3.8-8.6c1.9-5.9,2.4-10.4,1.6-13.4c0.8-1.2,1.5-2.5,2.2-4c0.4,3.7,0.5,7.4,0.3,10.8
		c-0.3,5.5-2.2,10.1-4.3,15c0,0,0,0.1,0,0.1c-0.1,0.4,0,0.9,0.3,1.2c0.3,0.3,0.1,2.6-0.1,3c-0.2,0.4-0.5,0.7-0.7,0.7
		c-0.2,0-0.4-0.3-0.6-0.6c0.4-0.7,0.8-1.5,0.9-2.1c0.1-0.5-0.1-1-0.6-1.3c-0.4-0.2-0.8-0.2-1.2,0c-0.7,0.5-1.2,1.3-1.4,2.3
		C65.8,141.3,65.6,141.4,65.6,141.4z M70.8,69.1c0,0.1-0.1,0.2-0.1,0.3c-2.4-3.9-5-7.1-7.7-9.6c0.1,0,0.2-0.1,0.2-0.2
		c0.2-0.2,0.3-0.5,0.3-0.8C63.4,47,63,36.7,62.3,27.3c-0.4-4.8-0.8-10.2,0-15.5c0.1-0.4,0.1-0.9,0.2-1.5c0.2-1.7,0.4-3.9,1-4.9
		c1-1.6,2-2.3,3.1-2.2c2.4,0.2,4.5,4.4,5.3,6.2c4.3,9.8,5.5,21.7,5.8,29.9c0.2,5.6-0.4,10.7-1.7,15.9c-0.1,0.5-0.3,1.1-0.4,1.7
		c-0.6,2.4-1.2,4.9-2.1,7.2c-0.4,0.9-0.9,1.8-1.3,2.7C71.6,67.4,71.2,68.2,70.8,69.1z"/>
	<line class="st3" x1="61.1" y1="77.6" x2="61.1" y2="77.6"/>
	<path class="st2" d="M60.2,109.6C60.2,109.6,60.2,109.6,60.2,109.6c-0.1-0.7-0.5-1.1-1.2-1.1c-0.3,0-0.6,0.1-0.9,0.4
		c-0.2,0.2-0.3,0.5-0.3,0.8c0.1,1,0.2,2,0.7,2.8c0.2,0.4,0.6,0.5,0.9,0.5c0.2,0,0.5-0.1,0.7-0.2c0.5-0.3,0.7-0.9,0.3-1.5
		C60.3,110.8,60.2,110.2,60.2,109.6z"/>
	<path class="st2" d="M60.1,115.4c-0.5-0.3-1.2-0.2-1.5,0.4c-0.3,0.6-0.6,1.2-0.8,1.8c-0.1,0.3-0.2,0.6-0.3,0.9c0,0.1,0,0.1,0,0.2
		c0,0.1,0,0.4-0.1,0.4c-0.3,0.3-0.4,0.8-0.2,1.2c0.2,0.4,0.5,0.7,0.9,0.8c0.1,0,0.1,0,0.2,0c0.3,0,0.6-0.1,0.8-0.4
		c0.4-0.5,0.5-1,0.7-1.5c0-0.1,0.1-0.2,0.1-0.3c0.2-0.6,0.4-1.2,0.8-2c0,0,0,0,0,0C61,116.3,60.6,115.6,60.1,115.4z"/>
	<path class="st2" d="M56,117C56,117,56,117,56,117c-0.3-0.2-0.6-0.2-1-0.1c-0.3,0.1-0.5,0.3-0.6,0.5c-0.2,0.4-0.3,0.8-0.3,1.1
		c-0.1,0.5-0.2,1-0.5,1.3c-0.4,0.6-0.1,1.2,0.3,1.5c0.2,0.1,0.5,0.2,0.7,0.2c0.4,0,0.7-0.2,1-0.5c0.3-0.5,0.4-1,0.6-1.5
		c0.1-0.4,0.2-0.7,0.3-1C56.7,118,56.5,117.3,56,117z"/>
	<path class="st2" d="M63.2,93.2c0.2-0.6-0.1-1.1-0.7-1.4c-0.6-0.2-1.3,0-1.6,0.7c-0.6,1.6-2.6,3.3-5.6,4.7
		c-0.3-0.8-0.7-1.6-1.1-2.4c-0.2-0.3-0.3-0.5-0.4-0.8l0,0c-0.8-1.5-1.7-2.8-3.3-2.9c-1.5-0.1-2.8,1-3.4,2.9
		c-0.3,0.9-0.4,1.9-0.4,2.7c0,0.4-0.1,0.9-0.1,1.3c-0.1,0.6-0.1,1.1-0.1,1.7c-1.1,0.2-2.3,0.4-3.4,0.5c-2.2,0.3-5.4,0.5-8.9,0.2
		c0-0.1,0.1-0.1,0.1-0.2c0.1-0.3,0.2-0.6,0.3-1c0.2-0.5,0.4-1.1,0.4-1.7c0.1-0.8-0.1-1.7-0.4-2.6c-0.7-1.7-2.1-2.6-3.7-2.4
		c-2.9,0.3-3.6,3.7-4.1,6C25,98,23.5,97,22.5,95.7c-0.4-0.5-1-0.5-1.5-0.1c-0.5,0.4-0.7,1.1-0.2,1.7c3.9,4.6,11,5.9,17,5.9
		c2.4,0,4.6-0.2,6.4-0.5l0.1,0c3-0.5,7.1-1.2,10.8-2.6c0,0,0,0,0,0C59.5,98.4,62.2,96.1,63.2,93.2C63.2,93.2,63.2,93.2,63.2,93.2z
		 M50,93.6c0.2-0.1,0.3-0.2,0.6-0.1c0.6,0.1,1.1,1.1,1.4,1.8c0.1,0.2,0.2,0.4,0.2,0.5c0.1,0.2,0.2,0.4,0.3,0.6
		c0.3,0.5,0.6,1.1,0.8,1.7c0,0,0,0.1-0.1,0.1c-0.4,0.1-0.7,0.2-1,0.3c-1.1,0.3-2.3,0.6-3.5,0.9c0-0.8,0.1-1.5,0.2-2.3
		c0-0.3,0.1-0.6,0.1-0.8C49.3,94.5,49.7,93.9,50,93.6z M30.6,95.3C30.6,95.3,30.6,95.3,30.6,95.3c0.3-0.2,0.6-0.2,0.9-0.1
		c0.4,0.1,0.8,0.6,1,1.2c0.3,1,0.1,1.7-0.2,2.6c-0.1,0.3-0.2,0.6-0.3,1c0,0.2,0,0.3,0,0.5c-1.1-0.2-2.1-0.4-3-0.7
		c0-0.2,0.1-0.3,0.1-0.5C29.3,97.8,29.6,95.9,30.6,95.3z"/>
	<path class="st2" d="M55.5,71.9c-0.1-0.1-0.2-0.3-0.3-0.4l-0.3-0.2c-0.3-0.2-0.9-0.2-1.2,0c-0.2,0.2-0.4,0.4-0.6,0.6
		c-0.4,0-0.8,0-1.1-0.1c-1.6-0.1-3.3-0.2-4.9,0.1c-0.4,0.1-0.7,0.3-0.8,0.7c-0.1,0.4,0,0.9,0.3,1.2c0.2,0.3,0.5,0.4,0.8,0.4
		c0.1,0,0.2,0,0.3,0c1.5-0.3,3.1-0.2,4.6-0.1c-0.1,1.5,0.4,3.2,1.5,4.8c1.2,1.6,2.7,2.7,4.1,3c0.3,0,0.5,0.1,0.8,0.1
		c2,0,3.8-1.2,4.9-3.4c0.1-0.2,0.2-0.5,0.4-0.7c0,0,0,0,0,0c1-2.3,1.9-5.4,1.3-7.4c0,0,0,0,0,0c-0.1-0.3-0.3-0.6-0.6-0.7
		c-0.3-0.1-0.6-0.2-0.8-0.1l-1,0.4C60.3,70.9,58.2,71.8,55.5,71.9z M61.1,77.6L61.1,77.6L61.1,77.6z M62.3,75.6
		c-0.4-0.1-0.8-0.1-1.2,0c-0.1,0-0.2,0-0.2,0c-0.5,0.1-0.9,0.3-1.2,0.7c-0.6,0.9-0.6,2.3-0.5,3c0,0,0,0,0,0.1
		c-1.6,0.4-3.1-0.9-4-2.5c-0.2-0.3-0.3-1.3-0.4-2.1c0-0.2-0.1-0.4-0.1-0.6c0.9,0,1.6,0,2.3-0.1c2.2-0.3,4.1-1,6-1.8
		C63,73.3,62.7,74.5,62.3,75.6z"/>
	<path class="st2" d="M54.2,112.4c0.5-0.3,0.9-0.9,0.6-1.6c0,0,0,0,0,0c-0.1-0.3-0.3-0.5-0.4-0.8l-0.1-0.3c-0.3-0.6-0.9-0.8-1.5-0.5
		c-0.5,0.3-0.9,0.9-0.6,1.6c0.1,0.3,0.3,0.6,0.4,0.9l0.1,0.3c0.2,0.4,0.5,0.6,0.9,0.6C53.8,112.5,54,112.4,54.2,112.4z"/>
	<path class="st2" d="M50.3,119.5c-0.2-0.4-0.6-0.6-1-0.7c-0.4,0-0.8,0.2-1,0.5c-0.6,1-0.6,2.3,0,3.2c0.3,0.3,0.6,0.5,1,0.5
		c0.2,0,0.4,0,0.6-0.2c0.3-0.2,0.5-0.5,0.6-0.8c0.1-0.3,0-0.6-0.2-0.8c-0.2-0.2-0.2-0.4,0-0.8C50.5,120.2,50.5,119.8,50.3,119.5z"/>
	<path class="st2" d="M49.2,114.2C49.2,114.2,49.2,114.2,49.2,114.2c0.4,0,0.9-0.2,1.1-0.6c0.2-0.3,0.2-0.8,0-1.1
		c-0.2-0.3-0.4-0.7-0.4-1.1c-0.1-0.7-0.5-1.1-1.1-1.1c-0.3,0-0.6,0.1-0.9,0.4c-0.2,0.2-0.3,0.5-0.3,0.8c0.1,0.8,0.3,1.5,0.7,2.2
		C48.5,113.9,48.8,114.1,49.2,114.2z"/>
	<path class="st2" d="M45.7,122.4c0-0.2-0.1-0.3-0.1-0.5c-0.1-0.2-0.1-0.3-0.2-0.5c-0.2-0.4-0.3-0.8-0.3-1.2c0-0.7-0.6-1.1-1.2-1.1
		c-0.6,0-1.1,0.4-1.1,1.1c0,0.7,0.2,1.3,0.4,2l0.1,0.4c0.1,0.2,0.1,0.3,0.1,0.5c0.1,0.5,0.2,1,0.6,1.4c0.3,0.3,0.6,0.5,1,0.5
		c0.3,0,0.6-0.1,0.8-0.3c0.5-0.4,0.6-1,0.2-1.4C45.9,123,45.8,122.7,45.7,122.4z"/>
	<path class="st2" d="M44.3,115.5c0.3,0,0.6-0.1,0.8-0.3c0.2-0.2,0.3-0.5,0.3-0.9c0-0.3-0.1-0.6-0.3-0.8c-0.2-0.2-0.3-0.5-0.4-0.9
		c0-0.1-0.1-0.2-0.1-0.3c-0.1-0.4-0.4-0.7-0.9-0.8c-0.4-0.1-0.9,0.1-1.2,0.4c-0.2,0.3-0.3,0.7-0.2,1l0.1,0.2c0.2,0.7,0.5,1.4,1.1,2
		C43.7,115.4,44,115.5,44.3,115.5z"/>
	<path class="st2" d="M40.3,86.5c0,0.1,0.1,0.2,0.2,0.3c0.3,0.4,0.9,1.2,1.7,1.2c0.2,0,0.5-0.1,0.8-0.2c0.8-0.5,1.6-1.6,1.5-2.6
		c-0.1-1.1-1.1-2-2.2-2c-0.9,0-1.5,0.5-2.1,1c-0.1,0.1-0.3,0.2-0.4,0.3c-0.2,0.2-0.3,0.4-0.4,0.7c0,0.3,0.1,0.7,0.3,0.9
		C40,86.3,40.1,86.4,40.3,86.5z"/>
	<path class="st2" d="M38.8,112.6c0-0.3-0.1-0.5-0.1-0.7c-0.1-0.4-0.4-0.7-0.8-0.8c-0.4-0.1-0.9,0-1.2,0.3c-0.3,0.3-0.4,0.7-0.3,1.1
		c0.1,0.2,0.1,0.4,0.2,0.6c0.2,0.8,0.4,1.6,0.9,2.4c0.2,0.2,0.4,0.3,0.7,0.4c0,0,0,0,0.1,0c0.3,0,0.6-0.1,0.9-0.3
		c0.4-0.4,0.4-1.1,0-1.6C39,113.6,38.9,113.1,38.8,112.6z"/>
	<path class="st2" d="M38.6,120.3c-0.1-0.3-0.3-0.4-0.6-0.5c-0.3-0.1-0.7-0.1-1,0.1c-0.5,0.3-0.7,1-0.4,1.5c0.3,0.7,0.6,1.6,0.7,2.5
		c0.1,0.4,0.3,0.7,0.6,0.8c0.1,0,0.2,0.1,0.4,0.1c0.3,0,0.6-0.1,0.8-0.3c0.3-0.3,0.5-0.7,0.4-1.1C39.3,122.3,39,121.3,38.6,120.3z"
		/>
	<path class="st2" d="M33.5,121.9c-0.2-0.4-0.4-0.7-0.4-1.1c0-1.5-2.3-1.5-2.3,0c0,0.6,0.2,1.2,0.5,1.9c0.1,0.1,0.1,0.2,0.2,0.4
		c0.2,0.3,0.4,0.6,0.4,0.9c0.1,0.7,0.7,1.1,1.2,1.1c0,0,0.1,0,0.1,0c0.6-0.1,1-0.5,1-1.1c-0.1-0.6-0.2-1.1-0.6-1.7L33.5,121.9z"/>
	<path class="st2" d="M34.2,113.3c-0.1-0.7-0.5-1.1-1.2-1.1c-0.3,0-0.6,0.1-0.9,0.4c-0.2,0.2-0.3,0.5-0.3,0.8c0,0.1,0,0.2,0,0.3
		c-0.1,0.3,0,0.5,0.1,0.8l0.2,0.4c0.2,0.4,0.5,0.6,0.9,0.6c0.1,0,0.3,0,0.4-0.1c0.5-0.2,1-0.7,0.8-1.4
		C34.3,113.7,34.3,113.5,34.2,113.3z"/>
	<path class="st2" d="M27.5,112.7v1.7c0,0.7,0.6,1.1,1.2,1.1c0.6,0,1.2-0.4,1.2-1.1v-1.7C29.8,111.2,27.5,111.2,27.5,112.7z"/>
	<path class="st2" d="M24.4,111c-0.6,0-1.1,0.5-1.2,1.1c0,0.3-0.1,0.5-0.1,0.8c-0.1,0.5-0.2,1.1-0.1,1.7c0,0.3,0.2,0.5,0.5,0.7
		c0.2,0.1,0.5,0.2,0.7,0.2c0.1,0,0.2,0,0.3,0c0.6-0.2,0.9-0.7,0.8-1.4c0-0.3,0.1-0.7,0.1-1.1c0.1-0.3,0.1-0.6,0.2-0.9
		c0-0.3-0.1-0.6-0.3-0.8C25.1,111.2,24.7,111,24.4,111z"/>
	<path class="st2" d="M24.4,118l-0.1-0.2c-0.1-0.3-0.4-0.4-0.6-0.5c-0.3-0.1-0.7-0.1-0.9,0.1c-0.5,0.3-0.7,1-0.4,1.6l0.3-0.1
		l-0.3,0.2c0.3,0.6,0.5,1.1,1,1.6c0.2,0.2,0.5,0.3,0.8,0.3c0.1,0,0.2,0,0.3,0c0.4-0.1,0.8-0.5,0.9-0.9c0.1-0.4,0-0.8-0.3-1.1
		C24.7,118.7,24.6,118.3,24.4,118z"/>
	<path class="st2" d="M25.5,82.8c0.6,0.2,1.1,0.3,1.6,0.3c1.5,0,2.8-0.8,3.9-2.3c0,0,0,0,0,0c1.3-1.8,2.2-4.8,2.7-8.7
		c0-0.3-0.1-0.6-0.3-0.8c-0.3-0.3-0.7-0.4-1.1-0.3c-0.6,0.1-1,0.4-1.4,0.6c-0.2,0.1-0.4,0.2-0.6,0.3c-2,1-4.3,1.2-6.7,1.4
		c-0.9,0.1-1.8,0.1-2.7,0.1c-0.2-0.1-0.4-0.1-0.5,0l-0.6,0c-1.9,0-3.9,0-5.8,0.3c-0.4,0.1-0.7,0.3-0.8,0.6c-0.1,0.4-0.1,0.8,0.2,1.2
		c0.2,0.3,0.6,0.4,0.9,0.4c0.1,0,0.1,0,0.2,0c1.6-0.3,3.2-0.3,4.8-0.3C19.6,78.3,23.9,82.3,25.5,82.8z M30.3,76.2
		c-0.3-0.2-0.6-0.4-0.9-0.4c-0.6,0-1.2,0.4-1.5,1c-0.5,0.8-0.9,2.1-0.7,3.2c0,0.1,0.1,0.1,0.1,0.2c-0.7,0.2-1.4,0.1-2.1-0.4
		c-0.3-0.3-2.9-3.3-3.7-4.4c1.4,0,3,0,4.6-0.2l0.5-0.1c1.4-0.2,2.8-0.4,4-0.9c0.2-0.1,0.3-0.2,0.5-0.2
		C30.8,74.9,30.6,75.6,30.3,76.2z"/>
	<path class="st2" d="M19.6,111.2c0-0.2,0-0.4,0.1-0.7c0-0.4-0.1-0.7-0.3-0.8c-0.2-0.2-0.4-0.3-0.7-0.3c-0.6-0.1-1.3,0.3-1.3,1.1
		l-0.1,0.5c-0.1,1.1-0.2,2.2,0.1,3.4c0.2,0.6,0.6,0.8,1.1,0.8c0.1,0,0.2,0,0.3,0c0.6-0.1,1-0.7,0.8-1.4
		C19.5,113,19.5,112.1,19.6,111.2z"/>
	<path class="st2" d="M10.5,24.5c-0.3,0-0.6,0.3-0.8,0.6c-0.6,1.3-1.1,2.8-1.3,4.4c-0.1,0.6,0.3,1.1,1,1.1c0,0,0.1,0,0.1,0
		c0.6,0,1.2-0.4,1.2-1.1c0.1-1.2,0.5-2.3,1-3.4c0.2-0.4,0.1-0.8-0.1-1.2C11.3,24.6,10.9,24.4,10.5,24.5z"/>
	<path class="st2" d="M9.7,15.1c-0.4,0.2-0.6,0.5-0.7,1c0,0,0,0,0,0c0,0.4-0.1,0.7-0.1,1.1c-0.1,0.7-0.2,1.3-0.1,2
		c0.1,0.7,0.6,1.1,1.2,1.1c0,0,0.1,0,0.1,0c0.6,0,1-0.5,1-1.1c0-0.6,0-1.2,0.1-1.9c0.1-0.4,0.1-0.8,0.1-1.1c0-0.4-0.1-0.7-0.4-0.9
		C10.6,15,10.1,14.9,9.7,15.1z"/>
	<path class="st2" d="M9.4,12.8c0.1,0,0.2,0,0.3,0c0.4-0.1,0.6-0.4,0.7-0.8c0.2-1,0.4-2.1,0.5-3.1l0.1-0.8c0.1-0.6-0.3-1.1-0.9-1.1
		C9.6,6.9,8.9,7.2,8.8,8v0L8.7,8.5c-0.1,1-0.2,2-0.5,2.9c-0.1,0.4,0,0.8,0.3,1.1C8.8,12.7,9.1,12.8,9.4,12.8z"/>
	<path class="st2" d="M9.5,33.2C8.9,33,8.4,33.4,8.2,34c-0.1,0.3-0.1,0.6-0.2,0.9c-0.2,1-0.5,2-0.4,3.1C7.7,38.6,8.3,39,8.9,39
		c0,0,0.1,0,0.1,0c0.6-0.1,1-0.5,0.9-1.1c-0.1-0.8,0.1-1.6,0.3-2.5c0.1-0.3,0.1-0.5,0.2-0.8c0,0,0,0,0,0
		C10.6,33.8,10.1,33.3,9.5,33.2z"/>
	<path class="st2" d="M6.4,46.6c-0.4,0.1-0.6,0.4-0.7,0.8l-0.1,0.2c-0.2,1-0.5,2-0.5,3.1c-0.1,0.6,0.3,1.1,1,1.1c0,0,0.1,0,0.1,0
		c0.6,0,1.2-0.4,1.2-1.1c0.1-0.8,0.3-1.6,0.4-2.4L8,48c0,0,0,0,0,0c0.1-0.4,0-0.8-0.3-1.1C7.3,46.6,6.8,46.5,6.4,46.6z"/>
	<path class="st2" d="M6.3,39.1l0.1-0.7c0.1-0.6,0.2-1.2,0.2-1.8c0-0.4-0.1-0.7-0.3-0.8c-0.2-0.2-0.4-0.3-0.7-0.3
		c-0.6,0-1.2,0.3-1.3,1.1c0,0.6-0.1,1.2-0.2,1.8L4,39c0,0.3,0.1,0.5,0.3,0.8c0.2,0.3,0.6,0.4,0.9,0.4C5.8,40.2,6.2,39.7,6.3,39.1z"
		/>
	<path class="st2" d="M4.6,16.7C4.6,16.7,4.6,16.7,4.6,16.7c0.3,0,0.6-0.1,0.8-0.3c0.2-0.2,0.4-0.5,0.4-0.8c0-0.8,0.1-1.6,0.2-2.4
		C6,12.8,6,12.4,6,12c0,0,0,0,0,0c0-0.4-0.1-0.7-0.3-0.8C5.6,11,5.3,10.8,5,10.8c-0.6,0-1.2,0.3-1.3,1.1c0,0.4-0.1,0.8-0.1,1.2
		c-0.1,0.8-0.2,1.6-0.2,2.4c0,0.3,0.1,0.6,0.4,0.8C4.1,16.6,4.3,16.7,4.6,16.7z"/>
	<path class="st2" d="M4.7,29.3c0.3,0,0.6-0.1,0.7-0.3c0.2-0.1,0.3-0.4,0.3-0.8c0-0.5,0.1-1,0.2-1.5c0-0.2,0.1-0.4,0.1-0.6
		c0.1-0.7,0.3-1.4,0.5-2.1c0,0,0,0,0,0c0.2-0.7-0.3-1.2-0.8-1.4c-0.5-0.2-1.2,0.1-1.4,0.8c-0.2,0.8-0.4,1.6-0.5,2.5
		c0,0.2-0.1,0.4-0.1,0.6c-0.1,0.6-0.2,1.1-0.2,1.7C3.5,28.9,4.1,29.3,4.7,29.3C4.7,29.3,4.7,29.3,4.7,29.3z"/>
</g>
</svg>
