<?xml version="1.0" encoding="utf-8"?>
<!-- Generator: Adobe Illustrator 21.0.2, SVG Export Plug-In . SVG Version: 6.00 Build 0)  -->
<svg version="1.1" id="Layer_1" xmlns="http://www.w3.org/2000/svg" xmlns:xlink="http://www.w3.org/1999/xlink" x="0px" y="0px"
	 viewBox="0 0 407.7 191.9" style="enable-background:new 0 0 407.7 191.9;" xml:space="preserve">
<style type="text/css">
	.st0{fill:#D2DD57;}
	.st1{fill:#2B5240;}
	.st2{fill:#FFFFFF;}
	.st3{fill:#312E2A;}
</style>
<g>
	<rect y="95.9" class="st0" width="407.7" height="95.9"/>
	<g>
		<rect class="st1" width="407.7" height="95.9"/>
		<g>
			<path class="st2" d="M63.9,30.2c-11.4,0-17,8-17,17.8s5.6,17.8,17,17.8s17-8,17-17.8S75.3,30.2,63.9,30.2z M63.9,63.5
				c-6.8,0-9.7-6.9-9.7-15.4s2.9-15.4,9.7-15.4s9.7,6.9,9.7,15.4S70.7,63.5,63.9,63.5z"/>
			<path class="st2" d="M130.4,62.5V31h-7.2v31.6h-9.7V31h-7.2v31.6h-9.7V35.4c0-2.2-2.3-4.4-4.5-4.4h-5.6v1.5c1.5,0,3,1.5,3,2.9
				v27.2v2.4h7.2h9.7h7.2h9.7h6.8v8.7h3l1.8-11.1H130.4z"/>
			<path class="st2" d="M170.6,59.3L159.2,31l0,0h-3.1l-15.6,34h3.5l3.9-8.7h14.3l2.7,6c0.8,1.6,1.8,2.7,4.6,2.7h4.8v-1.8
				C172.9,62.8,171.5,61.4,170.6,59.3z M149,53.9l6.7-15l5.6,15H149z"/>
			<path class="st2" d="M281.9,59.3L270.5,31l0,0h-3.1l-15.6,34h3.5l3.9-8.7h14.3l2.7,6c0.8,1.6,1.8,2.7,4.6,2.7h4.8v-1.8
				C284.2,62.8,282.8,61.4,281.9,59.3z M260.3,53.9l6.8-15l5.5,15H260.3z"/>
			<path class="st2" d="M214,62.5c-1.3,0-2.6-1.1-3.4-3.1L199.1,31h0h-2.2H196l-14.5,31.6h-2.9l1.8,11.1h3v-8.7h25.8v8.7h3L214,62.5
				L214,62.5L214,62.5z M195.6,38.9l7.7,20.3c0.8,2,1.8,2.8,3.1,3.3H185L195.6,38.9z"/>
			<path class="st2" d="M235.4,44.8h-7.2l0-11.5h13.4v5.5h3l1.8-7.9h-28.3v1.5c1.5,0,3,1.5,3,2.9l0,29.6h14.3c9.6,0,12-4.8,12-10
				S245,44.8,235.4,44.8z M234.1,62.5h-5.9V47.2h5.9c5.2,0,6.1,3.7,6.1,7.7C240.2,58.8,239.3,62.5,234.1,62.5z"/>
			<path class="st2" d="M311.9,31v15.8h-13.1V35.4c0-2.2-2.3-4.4-4.5-4.4h-5.6v1.5c1.5,0,3,1.5,3,2.9l0,29.6h7.2V49.2h13.1v15.7h7.2
				V31H311.9z"/>
			<path class="st2" d="M355.8,60l-12.5-15.7L356.9,31H353l-16,15.7V35.4c0-2.2-2.3-4.4-4.5-4.4h-5.6v1.5c1.5,0,3,1.5,3,2.9l0,29.6
				h7.2V50.2l1.4-1.4l9.4,12.2c2.9,3.6,5.5,3.9,8.5,3.9h4.3v-1.8C359.2,62.8,357.4,62,355.8,60z"/>
		</g>
	</g>
	<g>
		<path class="st3" d="M51,132.9h2.6l4.8,11.6l5.1-11.6h2.6l3.1,18.3h-3.6l-1.6-11.3L59,151.2h-1.2l-4.7-11.3l-1.9,11.3h-3.6
			L51,132.9z"/>
		<path class="st3" d="M76.5,132.9v18.3h-3.6v-18.3H76.5z"/>
		<path class="st3" d="M84.7,132.9v12.2l10-12.2h2.5v18.3h-3.6V139l-10,12.2h-2.5v-18.3H84.7z M86.8,127.1c0.6,1.5,2.1,1.6,2.5,1.6
			c0.4,0,1.9-0.1,2.5-1.6l2.5,1c-0.7,1.9-2.4,3.1-4.9,3.1c-2.5,0-4.2-1.2-4.9-3.1L86.8,127.1z"/>
		<path class="st3" d="M108.9,132.9h10.6v3.1h-7v4.2h2.5c1.4,0,3.1,0.2,4.6,1.5c1,0.9,1.7,2.3,1.7,4.1c0,1.2-0.4,2.4-1,3.3
			c-1.4,2-3.7,2.2-5.3,2.2h-6V132.9z M112.5,148.1h1.7c2.8,0,3.4-1.3,3.4-2.4c0-1.1-0.6-2.5-3.3-2.5h-1.8V148.1z"/>
		<path class="st3" d="M135.3,147.4h-7.4l-1.6,3.8h-3.9l7.9-18.3h2.8l7.6,18.3h-3.8L135.3,147.4z M134.2,144.5l-2.6-6.6l-2.6,6.6
			H134.2z"/>
		<path class="st3" d="M147,140h7.7v-7.1h3.6v18.3h-3.6v-8.1H147v8.1h-3.6v-18.3h3.6V140z"/>
		<path class="st3" d="M166.5,140.7l6.7-7.7h4.5l-7.7,8.4l8.1,9.8h-4.7l-6.5-8.2l-0.4,0.4v7.8H163v-18.3h3.6V140.7z"/>
		<path class="st3" d="M182.3,147.3c1.2,0,2.1,0.9,2.1,2.1c0,1.2-0.9,2.1-2.1,2.1s-2.1-0.9-2.1-2.1
			C180.2,148.2,181.1,147.3,182.3,147.3z"/>
		<path class="st3" d="M197.8,132.9h2.6l4.8,11.6l5.1-11.6h2.6l3.1,18.3h-3.6l-1.6-11.3l-4.9,11.3h-1.2l-4.7-11.3l-1.9,11.3h-3.6
			L197.8,132.9z"/>
		<path class="st3" d="M238.3,142.1c0,5.6-4,9.5-9.7,9.5c-5.7,0-9.7-4-9.7-9.5c0-5.6,4-9.6,9.7-9.6
			C234.3,132.5,238.3,136.5,238.3,142.1z M234.6,142.1c0-3.7-2.5-6.3-6.1-6.3c-3.6,0-6.1,2.6-6.1,6.3c0,3.7,2.5,6.3,6.1,6.3
			C232.1,148.4,234.6,145.8,234.6,142.1z"/>
		<path class="st3" d="M253.5,151.2h-3.6v-7.1h-0.7l-4.7,7.1h-4.3l5.4-7.4c-0.7-0.1-1.4-0.4-2-0.8c-1.1-0.8-2.1-2.3-2.1-4.4
			c0-2,0.8-3.4,1.8-4.2c1.4-1.3,3.1-1.4,4.7-1.4h5.3V151.2z M248.8,135.8c-0.7,0-3.4,0-3.4,2.7c0,2.8,2.8,2.8,3.5,2.8h1v-5.5H248.8z
			"/>
		<path class="st3" d="M268.7,140.7l6.7-7.7h4.5l-7.7,8.4l8.1,9.8h-4.7l-6.5-8.2l-0.4,0.4v7.8h-3.6v-18.3h3.6V140.7z"/>
		<path class="st3" d="M288.4,132.9c2.1,0,3.5,0.2,4.8,1.4c1.5,1.3,1.9,3.1,1.9,4.4c0,0.7-0.1,2.7-1.5,4.1c-1,1-2.5,1.6-4.6,1.6
			h-2.3v6.8h-3.6v-18.3H288.4z M286.6,141.4h1.4c0.7,0,1.6,0,2.3-0.6c0.7-0.5,1-1.3,1-2.1c0-1-0.5-1.7-1-2.1
			c-0.7-0.5-1.7-0.6-2.5-0.6h-1.2V141.4z"/>
		<path class="st3" d="M307.9,147.4h-7.4l-1.6,3.8H295l7.9-18.3h2.8l7.6,18.3h-3.8L307.9,147.4z M306.8,144.5l-2.6-6.6l-2.6,6.6
			H306.8z"/>
		<path class="st3" d="M315.7,127c0.9,0,1.6,0.9,1.6,2c0,1-0.7,2-1.6,2c-0.9,0-1.6-0.9-1.6-2C314.1,128,314.8,127,315.7,127z
			 M319.6,132.9v18.3H316v-18.3H319.6z M319.8,127c0.9,0,1.6,0.9,1.6,2c0,1-0.7,2-1.6,2c-0.9,0-1.6-0.9-1.6-2
			C318.2,128,318.9,127,319.8,127z"/>
		<path class="st3" d="M327.8,140h7.7v-7.1h3.6v18.3h-3.6v-8.1h-7.7v8.1h-3.6v-18.3h3.6V140z"/>
		<path class="st3" d="M354.6,147.4h-7.4l-1.6,3.8h-3.9l7.9-18.3h2.8l7.6,18.3h-3.8L354.6,147.4z M353.6,144.5l-2.6-6.6l-2.6,6.6
			H353.6z"/>
	</g>
</g>
</svg>
