<?xml version="1.0" encoding="utf-8"?>
<!-- Generator: Adobe Illustrator 21.0.2, SVG Export Plug-In . SVG Version: 6.00 Build 0)  -->
<svg version="1.1" id="Layer_1" xmlns="http://www.w3.org/2000/svg" xmlns:xlink="http://www.w3.org/1999/xlink" x="0px" y="0px"
	 viewBox="0 0 241.3 104" style="enable-background:new 0 0 241.3 104;" xml:space="preserve">
<style type="text/css">
	.st0{fill:#FFFFFF;}
</style>
<g>
	<rect x="3.5" y="54.5" transform="matrix(0.9684 -0.2493 0.2493 0.9684 -17.0046 3.9676)" class="st0" width="7.3" height="29.3"/>
	<path class="st0" d="M16.3,78.9l1.8-4.6c2.2,1,5,1,7,0.5c2.2-0.6,3.1-1.5,2.9-2.5c-0.3-1.1-1.7-1.5-4-0.9l-3.9,1l-1.3-4.9l3.9-1
		c2.4-0.6,3-1.5,2.7-2.5c-0.2-0.9-1.7-1.2-3.5-0.7c-2.4,0.6-4.2,1.9-5.3,3.7l-4-3c1.4-2.5,4.1-4.7,7.6-5.6
		c6.5-1.7,10.4-0.3,11.4,3.1c0.6,2.4-1.3,4.9-3.9,6.1c2.5-0.5,6,0.5,6.7,3.4c1,3.6-2.2,7.1-8.2,8.7C22.4,80.9,18.8,80.3,16.3,78.9"
		/>
	<path class="st0" d="M32.2,49.9c-0.5-2.1,0.6-4.2,2.6-4.7c2-0.5,4,0.7,4.6,2.8c0.5,2.1-0.6,4.2-2.6,4.7
		C34.8,53.3,32.7,52,32.2,49.9 M39.4,75.9l-5.3-20.5l6.3-1.6l5.3,20.5L39.4,75.9z"/>
	<path class="st0" d="M54.4,78.5L51.2,77c1.1-1,2.4-3.3,2.4-4.9c-0.2,0.1-0.5,0.3-0.9,0.4c-1.8,0.5-3.5-0.6-4.1-2.7
		c-0.6-2.2,0.7-4.4,2.7-4.9c2.2-0.6,4.6,0.7,5.4,3.8C57.7,72.2,56.7,75.7,54.4,78.5"/>
	<path class="st0" d="M71.1,67.8l2.4-8.2c-2.1-0.2-4.8-1.6-5.8-5.4c-1-3.7,0.8-7.6,5.4-8.8l12.8-3.3l5.3,20.5l-6.3,1.6l-1.7-6.6
		l-3.5,0.9L78.1,66L71.1,67.8z M81.9,52.4L81,49l-5.4,1.4c-1.1,0.3-1.7,1.2-1.5,2.2c0.3,1,1.2,1.5,2.4,1.2L81.9,52.4z"/>
	<polygon class="st0" points="108.1,58.2 101.9,52.1 100.7,54.9 101.9,59.8 95.7,61.5 90.4,40.9 96.7,39.3 98.8,47.5 102.7,37.8 
		110.2,35.8 105.4,47 115.9,56.3 	"/>
	<path class="st0" d="M124.4,43.1c-1.7-6.4,1.8-11.9,8-13.5c4.2-1.1,7.4,0.2,9.1,1.7l-3.1,5c-1.1-1-2.5-1.4-4.2-1
		c-2.6,0.7-4.1,3.1-3.3,6.2c0.8,3.1,3.3,4.5,5.9,3.8c1.7-0.4,2.7-1.6,3.2-3l5.1,2.9c-0.7,2.1-2.9,4.8-7.1,5.9
		C131.8,52.7,126.1,49.5,124.4,43.1"/>
	<polygon class="st0" points="152.6,46.8 148.7,32 143.4,33.4 141.9,27.7 158.9,23.3 160.4,29 155,30.4 158.9,45.2 	"/>
	<path class="st0" d="M163.2,33.1c-1.5-5.8,1.3-11.8,8-13.5c6.8-1.7,12.1,2.2,13.6,8c1.5,5.8-1.2,11.8-8,13.6
		C170,42.9,164.7,38.9,163.2,33.1 M178.3,29.2c-0.7-2.7-2.8-4.6-5.6-3.9c-2.7,0.7-3.7,3.3-3,6.1c0.7,2.8,2.8,4.6,5.5,3.9
		C178,34.6,179,32,178.3,29.2"/>
	<path class="st0" d="M196.3,33l2.6,10.2l-6.3,1.6l-7.3-28.4l6.3-1.6l0.6,2.4c1-2.4,2.8-3.8,5.1-4.4c4.9-1.3,9.6,1.6,11.4,8.5
		c1.8,7-0.9,11.8-5.9,13C200.7,35,198.5,34.6,196.3,33 M202.4,23c-0.8-3.1-3.2-4.5-5.6-3.9c-1.3,0.3-2.8,1.5-3.3,2.8l1.6,6.3
		c1,0.9,2.9,1.3,4.2,0.9C201.8,28.5,203.2,26.1,202.4,23"/>
	<path class="st0" d="M207.5,4.8c-0.5-2.1,0.6-4.2,2.6-4.7c2-0.5,4,0.7,4.6,2.8c0.5,2.1-0.6,4.2-2.6,4.7
		C210.1,8.2,208.1,6.9,207.5,4.8 M214.7,30.8l-5.3-20.5l6.3-1.6l5.3,20.5L214.7,30.8z"/>
	<path class="st0" d="M222.9,25.8l1.8-4.6c2.2,1,5,1,7,0.5c2.2-0.6,3.1-1.5,2.9-2.5c-0.3-1.1-1.7-1.5-4-0.9l-3.9,1l-1.3-4.9l3.9-1
		c2.4-0.6,3-1.5,2.7-2.5c-0.2-0.9-1.7-1.2-3.5-0.7c-2.4,0.6-4.2,1.9-5.3,3.7l-4-3c1.4-2.5,4.1-4.7,7.6-5.6
		c6.5-1.7,10.5-0.3,11.4,3.1c0.6,2.4-1.3,4.9-3.9,6.1c2.5-0.5,6,0.5,6.7,3.4c1,3.6-2.2,7.1-8.2,8.7
		C228.9,27.7,225.3,27.2,222.9,25.8"/>
	<path class="st0" d="M65.7,102.6l1.8-4.6c2.2,1,5,1,7,0.5c2.2-0.6,3.1-1.5,2.9-2.5c-0.3-1.1-1.7-1.5-4-0.9l-3.9,1l-1.3-4.9l3.9-1
		c2.4-0.6,3-1.5,2.7-2.5c-0.2-0.9-1.7-1.2-3.5-0.7c-2.4,0.6-4.2,1.9-5.3,3.7l-4-3c1.4-2.5,4.1-4.7,7.6-5.6
		c6.5-1.7,10.4-0.3,11.4,3.1c0.6,2.4-1.3,4.9-3.9,6.1c2.5-0.5,6,0.5,6.7,3.4c1,3.6-2.2,7.1-8.2,8.7C71.7,104.5,68.1,104,65.7,102.6"
		/>
	<path class="st0" d="M100.4,96.6l-0.5-2c-0.8,1.8-2.9,3.5-5.5,4.1c-3,0.8-7.3-0.4-8.5-5c-1.3-5,2.1-7.6,5.1-8.3
		c2.6-0.7,5.2-0.4,6.7,0.8L97,83.7c-0.5-1.8-2.2-2.6-4.8-1.9c-2,0.5-3.8,1.8-5,3.6l-3.3-3.5c2-2.9,5.1-4.7,8.1-5.5
		c4.7-1.2,9.7-0.5,11.3,5.8l3.3,12.8L100.4,96.6z M99,91.3l-0.5-1.8c-0.9-0.8-2.5-0.9-3.9-0.5c-1.7,0.4-2.9,1.6-2.5,3.2
		s2.1,2,3.8,1.6C97.3,93.4,98.6,92.5,99,91.3"/>
	<path class="st0" d="M108.4,89.4c1.5-0.4,2.1-2,1.5-6.6l-1.2-10.2l16.9-4.3l5.3,20.5l-6.3,1.6l-3.8-14.8l-5.1,1.3l0.7,5.2
		c0.9,6.9-0.7,11.2-6.5,12.7L108.4,89.4z"/>
	<polygon class="st0" points="135.4,87.6 130.1,67 136.4,65.4 139.2,76.2 143.5,63.6 149.8,62 155.1,82.5 148.8,84.1 145.9,72.8 
		141.4,86 	"/>
	<polygon class="st0" points="163.4,80.4 159.6,65.5 154.2,66.9 152.7,61.2 169.8,56.8 171.2,62.5 165.9,63.9 169.7,78.8 	"/>
	<polygon class="st0" points="178,76.6 172.7,56.1 179,54.5 181.7,65.2 186,52.7 192.3,51 197.6,71.6 191.3,73.2 188.4,61.9 
		184,75.1 	"/>
</g>
</svg>
