<?xml version="1.0" encoding="utf-8"?>
<!-- Generator: Adobe Illustrator 21.0.2, SVG Export Plug-In . SVG Version: 6.00 Build 0)  -->
<svg version="1.1" id="Layer_1" xmlns="http://www.w3.org/2000/svg" xmlns:xlink="http://www.w3.org/1999/xlink" x="0px" y="0px"
	 viewBox="0 0 498.4 51.4" style="enable-background:new 0 0 498.4 51.4;" xml:space="preserve">
<style type="text/css">
	.st0{fill:#FFFFFF;}
	.st1{opacity:0.7;}
	.st2{clip-path:url(#SVGID_2_);fill:#FFFFFF;}
	.st3{opacity:0.6;}
	.st4{clip-path:url(#SVGID_4_);fill:none;stroke:#FFFFFF;stroke-width:1.961;stroke-linecap:round;stroke-miterlimit:10;}
	.st5{clip-path:url(#SVGID_6_);fill:none;stroke:#FFFFFF;stroke-width:1.961;stroke-linecap:round;stroke-miterlimit:10;}
	.st6{fill:none;stroke:#FFFFFF;stroke-width:1.961;stroke-linecap:round;stroke-miterlimit:10;}
</style>
<path class="st0" d="M57.6,41.8c0.4,0.3,1,0.6,1.5,0.8c0.5,0.2,1,0.3,1.4,0.3c0.3,0,0.7-0.1,0.9-0.3c0.2-0.2,0.2-0.3,0.2-0.5
	c0-0.2,0-0.3-0.2-0.5c-0.2-0.2-0.6-0.3-1-0.4l-1-0.2c-0.5-0.1-1.2-0.3-1.8-0.9c-0.4-0.4-0.7-1-0.7-1.8c0-1,0.4-1.9,1-2.5
	c0.8-0.8,2.2-1.2,3.7-1.2c1.5,0,2.7,0.4,3.3,0.7l-1.2,2.3c-0.5-0.2-1.3-0.5-1.9-0.5c-0.4,0-0.6,0.1-0.8,0.2
	c-0.2,0.1-0.3,0.3-0.3,0.5c0,0.3,0.2,0.5,0.4,0.6c0.3,0.1,0.6,0.1,1.2,0.3l0.7,0.2c0.5,0.1,1.2,0.5,1.5,0.8c0.5,0.5,0.8,1.3,0.8,2
	c0,1.2-0.5,2.1-1,2.5c-1.2,1.2-2.9,1.3-3.8,1.3c-0.9,0-2.4-0.1-4.1-1.2L57.6,41.8z"/>
<polygon class="st0" points="71.1,37.9 71.1,45.1 67.4,45.1 67.4,37.9 66.3,37.9 66.3,34.9 67.4,34.9 67.4,31.5 71.1,31.5 
	71.1,34.9 73.2,34.9 73.2,37.9 "/>
<path class="st0" d="M78.2,34.9v5.7c0,0.4,0.1,1.1,0.5,1.5c0.4,0.3,0.8,0.4,1.3,0.4c0.5,0,0.9,0,1.3-0.4c0.5-0.5,0.5-1,0.5-1.4v-5.7
	h3.7v6.4c0,0.9-0.1,1.8-1,2.7c-1.3,1.3-3,1.4-4.4,1.4c-1.5,0-3.4-0.2-4.6-1.5c-0.8-0.8-1-1.7-1-2.7v-6.4H78.2z"/>
<path class="st0" d="M99.6,45.1H96V44c-1,1.3-2.4,1.5-3.1,1.5c-1.5,0-2.6-0.5-3.6-1.4c-1-1-1.6-2.4-1.6-4.1c0-1.7,0.7-3.2,1.7-4.1
	c1-1,2.4-1.4,3.6-1.4c1.4,0,2.4,0.6,3,1.3v-7.4h3.7V45.1z M95.3,41.8c0.5-0.4,0.8-1.1,0.8-1.7c0-0.6-0.3-1.3-0.7-1.6
	c-0.4-0.4-1-0.7-1.7-0.7c-0.8,0-1.3,0.3-1.6,0.7c-0.4,0.4-0.7,1.1-0.7,1.7c0,0.5,0.2,1.1,0.7,1.6c0.5,0.5,1.1,0.7,1.6,0.7
	C94.3,42.4,94.9,42.1,95.3,41.8"/>
<path class="st0" d="M113,40.7h-7.6c0,0.5,0.2,1.3,0.6,1.7c0.2,0.2,0.7,0.5,1.5,0.5c0.1,0,0.7,0,1.2-0.3c0.2-0.1,0.5-0.4,0.6-0.7
	h3.5c-0.2,0.6-0.5,1.4-1.2,2.1c-0.8,0.7-1.9,1.4-4.2,1.4c-1.3,0-3-0.3-4.2-1.6c-0.7-0.7-1.5-1.9-1.5-3.9c0-1.7,0.6-3.1,1.5-4
	c0.8-0.8,2.2-1.5,4.2-1.5c1.2,0,2.7,0.3,3.9,1.4c1.4,1.4,1.6,3.2,1.6,4.3V40.7z M109.6,38.6c-0.1-0.4-0.3-0.8-0.6-1.1
	c-0.5-0.5-1.1-0.5-1.5-0.5c-0.6,0-1.1,0.2-1.5,0.5c-0.3,0.3-0.5,0.6-0.5,1.1H109.6z"/>
<path class="st0" d="M115.1,34.9h3.7v1.3c1-1.3,2.4-1.5,3.2-1.5c1.1,0,2.2,0.3,3,1.1c0.9,0.9,1,1.7,1,2.9v6.5h-3.7V40
	c0-0.6,0-1.5-0.5-2c-0.3-0.4-0.8-0.4-1.2-0.4c-0.6,0-1.1,0.2-1.4,0.5c-0.4,0.3-0.6,1-0.6,1.6v5.5h-3.7V34.9z"/>
<polygon class="st0" points="132.5,37.9 132.5,45.1 128.9,45.1 128.9,37.9 127.7,37.9 127.7,34.9 128.9,34.9 128.9,31.5 132.5,31.5 
	132.5,34.9 134.6,34.9 134.6,37.9 "/>
<path class="st0" d="M137.8,28.6c1.1,0,2.1,0.9,2.1,2.1c0,1.1-0.9,2.1-2.1,2.1c-1.1,0-2.1-0.9-2.1-2.1
	C135.8,29.5,136.7,28.6,137.8,28.6 M139.7,45.1H136V34.9h3.7V45.1z"/>
<polygon class="st0" points="145.8,28.5 145.8,38.6 149.3,34.9 154.2,34.9 149.4,39.6 154.6,45.1 149.5,45.1 145.8,41 145.8,45.1 
	142.2,45.1 142.2,28.5 "/>
<g class="st1">
	<g>
		<defs>
			<rect id="SVGID_1_" x="163.1" y="29.6" width="36.7" height="15.5"/>
		</defs>
		<clipPath id="SVGID_2_">
			<use xlink:href="#SVGID_1_"  style="overflow:visible;"/>
		</clipPath>
		<path class="st2" d="M173.3,45.1h-10.3l5.3-6.4c0.5-0.6,1.3-1.6,1.8-2.4c0.4-0.6,0.8-1.3,0.8-2.2c0-1.3-0.8-2.5-2.5-2.5
			c-1.7,0-2.6,1.3-2.7,2.8h-2.2c0.1-1.5,0.7-2.7,1.3-3.3c0.5-0.6,1.6-1.5,3.6-1.5c3.2,0,4.9,2.2,4.9,4.6c0,1.3-0.5,2.3-1.1,3.2
			c-0.5,0.8-1.3,1.7-2.2,2.7l-2.4,2.8h5.7V45.1z"/>
		<polygon class="st2" points="177.9,32 175.2,32 176.5,29.9 180.2,29.9 180.2,45.1 177.9,45.1 		"/>
		<path class="st2" d="M186.6,35.5h2.2v0.9c0.8-0.9,1.6-1.1,2.4-1.1c1,0,1.9,0.5,2.5,1.4c0.8-1.1,2-1.4,2.9-1.4
			c1.2,0,2.2,0.5,2.7,1.5c0.2,0.3,0.5,1,0.5,2.4v6h-2.2v-5.3c0-1.1-0.1-1.5-0.2-1.7c-0.1-0.4-0.5-0.8-1.3-0.8c-0.6,0-1,0.3-1.3,0.7
			c-0.4,0.5-0.4,1.4-0.4,2.2v5H192v-5.3c0-1.1-0.1-1.5-0.2-1.7c-0.1-0.4-0.5-0.8-1.3-0.8c-0.6,0-1,0.3-1.3,0.7
			c-0.4,0.5-0.4,1.4-0.4,2.2v5h-2.2V35.5z"/>
	</g>
</g>
<g class="st3">
	<g>
		<defs>
			<rect id="SVGID_3_" x="252.7" y="0" width="245.7" height="2"/>
		</defs>
		<clipPath id="SVGID_4_">
			<use xlink:href="#SVGID_3_"  style="overflow:visible;"/>
		</clipPath>
		<line class="st4" x1="497.4" y1="1" x2="253.7" y2="1"/>
	</g>
</g>
<g class="st3">
	<g>
		<defs>
			<rect id="SVGID_5_" x="0" y="0" width="245.7" height="2"/>
		</defs>
		<clipPath id="SVGID_6_">
			<use xlink:href="#SVGID_5_"  style="overflow:visible;"/>
		</clipPath>
		<line class="st5" x1="244.7" y1="1" x2="1" y2="1"/>
	</g>
</g>
<line class="st6" x1="62.4" y1="1" x2="1" y2="1"/>
</svg>
