<?xml version="1.0" encoding="utf-8"?>
<!-- Generator: Adobe Illustrator 21.0.2, SVG Export Plug-In . SVG Version: 6.00 Build 0)  -->
<svg version="1.1" id="Layer_1" xmlns="http://www.w3.org/2000/svg" xmlns:xlink="http://www.w3.org/1999/xlink" x="0px" y="0px"
	 viewBox="0 0 365.4 362" style="enable-background:new 0 0 365.4 362;" xml:space="preserve">
<style type="text/css">
	.st0{fill:#C54F45;}
	.st1{fill:#F4EF82;}
	.st2{fill:#D96C5E;}
	.st3{fill:#DE8264;}
	.st4{fill:#E5A068;}
	.st5{fill:#EDC272;}
	.st6{fill:#DA7175;}
	.st7{fill:#393B61;}
	.st8{fill:#657FB5;}
	.st9{fill:#84C8ED;}
	.st10{opacity:0.35;}
	.st11{clip-path:url(#SVGID_2_);}
	.st12{fill:#FFFFFF;}
	.st13{fill:#8D8B8B;}
	.st14{fill:#71A4C1;}
	.st15{clip-path:url(#SVGID_6_);}
</style>
<path class="st0" d="M255.7,26.4c-0.2-3.2,0.6-6.4,1.7-9.5c1.6-4.4,7.6-6.7,11.3-5.9c3.6,0.8,4.7,3.9,5.5,6.8
	c1.1,4.5,1,9.3-1.3,13.3c-2.2,3.9-5.6,6.8-9.9,8.3c-3,1-4.2,0.2-5.3-2.7C256.3,33.5,255.6,30.1,255.7,26.4"/>
<path class="st0" d="M259.3,41.1c0,0.8,0.1,1.5,0.1,2.1c0,0.4,0.3,1.2-0.4,1.2c-0.5,0-1.2,0-1.6-0.6c-0.4-0.6,0-1,0.3-1.4
	C258.1,42,258.7,41.6,259.3,41.1"/>
<path class="st1" d="M272.9,152.5c1.1-1.8,2.3-3.2,3.6-4.5c-1.4,0-2.3,0.7-3.1,1.7c-1.1,1.5-1.9,2.4-4.1,1.1
	c-4.2-2.5-9.1-3.8-13.3-6.5c-3.6-2.4-7-5.2-6.4-10.1c0.6-4.7,2.2-9.3,6.8-11.4c4.4-2,6.6-5.7,9.1-9.3c3.5-4.9,6.6-10.2,10.9-14.4
	c5.9-5.8,13.1-8.3,20.6-1.3c5.9,5.5,5.9,12.1,5.1,19.1c-0.6,5.9-2,11.6-3.7,17.3c-0.8,2.6,0.3,5.2,0.9,7.7c0.9,4.2-0.9,10-4.3,11.9
	c-2.8,1.5-6.1,1.3-9.2,1.4C281.4,155.3,277.3,153.7,272.9,152.5 M284,116.1c3.4,0,4.8-1,5.7-3.4c1.4-3.9-1.1-6.8-4.4-8.3
	c-1.9-0.8-3.8-1.3-4.8-3.3c-0.2-0.5-0.7-0.5-1.2-0.4c-1.9,0.3-4.3,2-4.7,3.9C273.6,109.5,279,116.1,284,116.1 M295.5,140.2
	c-0.1,4.2-1.6,6.4-4,6.7c-3.6,0.6-7.9-3.5-7.7-7.1c0.1-1.8-1.1-3.3-2.8-3.4c-0.9-0.1-1.4,0.4-1.8,1.1c-0.3,0.7,0,1.5,0.6,1.7
	c2.2,0.8,3,2.7,4,4.5c1.1,2,3.1,3.2,5.2,4.1c1.8,0.9,5.1-0.3,6.2-2.1c1.8-2.8,0.5-13.3-2-15.5c-0.2-0.2-0.5-0.4-0.8-0.1
	c-0.2,0.2-0.3,0.6-0.3,0.8c0.2,0.5,0.5,0.9,0.7,1.3C294.1,135.1,295.1,138,295.5,140.2 M295.9,111.4c0-0.6-0.4-0.7-0.8-0.8
	c-0.6-0.1-1,0.2-1.1,0.8c-0.1,0.5,0.5,0.8,0.9,0.9C295.4,112.5,295.6,111.8,295.9,111.4"/>
<path class="st2" d="M309.7,84.8c0.5,1.6,0.8,3.2,0.4,4.9c-0.2,1-0.2,1.4-1.3,0.6c-5-3.8-10.3-7.1-16.6-8.3
	c-0.8-0.2-1.7-0.3-2.6-0.5c1.9-2.8,4.3-3.5,8.2-2.2c3.6,1.2,7.2,2.6,10.2,5C308.5,84.6,309,85.1,309.7,84.8L309.7,84.8z"/>
<path class="st3" d="M309.7,84.8c-2.4-3.6-6.3-4.7-10-6.1c-1.6-0.6-3.4-0.9-5.2-1.3c2.6-3.2,4.1-3.6,8-2.5c2.9,0.8,5.3,2.3,7.4,4.4
	C311.5,80.8,311.4,83.6,309.7,84.8L309.7,84.8z"/>
<path class="st4" d="M311.2,78.6c-1.5-0.2-2-1.6-3.1-2.4c-2.3-1.5-4.8-2.1-7.4-2.7c-0.3-0.1-0.8,0.1-0.9-0.4
	c-0.1-0.5,0.4-0.6,0.7-0.8c2.7-2.3,5.7-2.1,8.8,0.1C311.6,74,312.1,75.9,311.2,78.6"/>
<path class="st5" d="M311.1,67.1c1,1.8,1.7,3.7,0.5,5.9c-2-1.8-4.6-2.7-7.1-3.6C306.2,66.9,308.3,65.9,311.1,67.1L311.1,67.1z"/>
<path class="st1" d="M309.6,64.7c0.9-0.4,1.6-1,2.2-1.8c0.3-0.1,0.8-0.4,0.8-0.3c0.9,1.4-0.1,2.7-0.1,4.1c0,0.9-1-0.1-1.4,0.3l0,0
	c0.2-0.9-0.6-1-1.1-1.2C309.3,65.7,309.4,65.3,309.6,64.7"/>
<path class="st6" d="M283.2,114.1c0.9-1.1,1.4-1.8,2.1-2.5c0.7-0.8,1.5-0.9,2.3-0.1c0.7,0.8,0.8,1.7,0,2.6c-1.3,1.3-5.5,1.3-6.7,0
	c-0.4-0.4-0.7-0.9-0.4-1.4c0.3-0.5,0.6-1.1,1.3-1.2c0.5,0,0.9,0.5,1.1,0.9C282.9,112.9,283,113.3,283.2,114.1"/>
<path class="st7" d="M177,143.1c0.4,0.6,0.6,1.3-0.5,0.9c-2-0.9-4-1.8-5.8-3.1c-0.8-0.6-0.4-1.5-0.2-2.2c2.2-7.3,4.5-14.5,6.8-21.8
	c1.8-5.8,3.6-11.7,5.4-17.5c0.6-1.9,0.1-3.1-1.4-4.6c-3.2-3.2-5.7-7.1-6.4-11.8c0-0.2-0.2-0.3-0.5-0.6c-0.4,3.7-2.4,7-2.7,10.8
	c-0.1,1.5-0.7,3-1.1,4.5c-1.4,5.6-3.2,11.1-4.7,16.7c-1.7,6.3-4.2,12.3-8.1,17.7c-1.1,1.5-2.5,2.7-4.2,3.4c-1.1,0.5-2.5,0.3-3.1-0.7
	c-0.7-1.1-1.6-1.1-2.6-1.1c0.2-1.2,0.4-2.3,1.2-3.3c0.6-0.7,0.8-2.2,1.8-2c0.9,0.2,1,1.6,1.5,2.5c0.5,0.9,0.6,1.7-0.6,2.1
	c-0.3,0.1-0.7,0.5-0.4,0.9c0.3,0.4,0.6,0.7,1.3,0.5c1.4-0.4,2.5-1.1,3.4-2.2c2.5-2.8,4.2-6.2,5.6-9.7c1.2-3.1,2.8-6.1,3.5-9.3
	c0.7-3.5,2-6.7,2.7-10.2c0.5-2.9,1.3-5.9,2.2-8.8c0.9-2.9,1.6-5.8,2.3-8.8c0.8-3.4,1.4-7,2.3-10.4c0.9-3.4,3.3-6.3,6.3-8.6
	c3.7-2.8,8.2-4.1,11.6-7.3c0.5-0.5,0.9-1,1.3-1.7c4.2-7.9,6.5-16.4,8.6-25c1.2-4.7,2-9.8,4.8-13.7c1.9-2.7,0-4.6,0.1-6.8
	c0.1-2.2,2.5-5.3,4.7-5.4c0.5,0,1-0.2,1.2,0.4c0.2,0.5-0.2,1.8,1.1,1.2c1-0.5,2.8,0.2,2.8-1.9c0-0.8,1.1-0.7,1.4-0.7
	c2.4,0.2,4.8,0.6,7.3,0.8c0.8,0.1,1.8,0.2,2.7,0.3c1.2,0.1,2.1,0.2,2.5,1.6c0.1,0.5,0.8,1.1,1.2,0.7c2.1-1.7,4.3-0.1,6.4-0.1
	c1.3,0,2.8,0.4,4.2,0.6c2.1,0.3,3.2,2.4,2.5,5c-0.1,0.6-0.3,1.2-0.5,1.8c0,0.1,0.8,0.9,0.9,1c0.3,0.1,0.6,0.1,0.8,0.3
	c1.2,1.1,1.6,5.1,0.9,6.5c-0.8,1.5-2.2,1.8-3.7,1.8c-0.1,1,0.9,1.2,1.2,1.1c1-0.1,1.4,0.9,1.3,1.2c-0.2,0.7-0.4,1.7-1.5,1.6
	c-0.8-0.1-0.6,0.3-0.7,0.9c-0.3,2.2-0.6,4.4-0.9,6.6c-0.8,4.9-2,9.8-2.7,14.8c-0.3,2.1-1.2,4.1-1.9,6.1c-1.2,3.5-1.2,6.9,0.4,10.2
	c1.5,3.3,4.4,5,7.8,4.5c2.1-0.3,2.3-2.4,2.7-3.8c0.4-1.5,1.8-3.3,0.1-5.1c-0.4-0.4,0.4-1.6,1-2.2c2.2-2.1,2.9-4.5,2.7-7.5
	c-0.2-2.2,1.3-4,2.9-5.2c1.1-0.8,1.4-1.8,1.4-2.7c0-0.9-0.7-2.1-2.2-1.6c-0.2,0.1-1-0.7-0.2-1.3c0.2-0.2,0.5-0.4,0.7-0.6
	c1.3-1.5,1.8-2.7,0.8-4.9c-2.3-5.2-3-10.7-1.9-16.5c0.7-3.4,1.8-6.2,4-8.7c1.9-2.2,8.4-3.7,11.1-2.6c3.4,1.5,4.5,4.7,5.3,7.8
	c0.7,2.7,0.5,5.8,0.1,8.6c-0.4,2.8-1.6,5.4-3.5,7.6c-2.4,2.8-5.2,4.8-8.5,6.3c-1,0.5-2.1,0-3.2,0.4c0.6,1.4-0.5,3,0.2,4.5
	c0.1,0.3-0.2,0.8-0.6,0.6c-0.5-0.2-0.9,0.1-0.9,0.3c-0.1,2.3-1.8,3.2-3.1,4.7c-1.5,1.6-1.6,3.6-1.2,5.8c0.3,1.4-0.1,3-1.9,4.2
	c1.2,0.1,2,0.4,2.2,1.4c0.2,0.8,1.1,1.8-0.6,1.9c-0.2,0-0.3,0.1-0.2,0.2c0.1,0.1,0.4,0.2,0.5,0.3c0.2,0.2,0.8,0.6,0.1,0.7
	c-2.2,0.3-2,2.2-2.4,3.6c-0.3,1.4-1.2,2.5-2.1,3.3c-2.1,1.8-2.1,4.5-3.1,6.8c-0.6,1.3-1.2,2.6-1.5,4c-1,3.8-1.8,7.7-3.3,11.4
	c-0.3,0.8-0.7,1.2-1.6,1.4c2.8-7.3,3.8-15,7.4-22.3c-3,0.7-5.6-0.1-7.7-1.6c-2.1-1.6-3.2-4.1-3.4-6.9c-1.3,0.6-0.9,2-1.2,2.9
	c-1.2,3.7-2.4,7.4-4.1,11c-2.1,4.5-4.7,8.7-7.8,12.6c-2.7,3.5-5.9,6.5-9.8,8.6c-2.7,1.5-6,1.9-9,2.4c-1.3,0.2-2.1,0.8-2.5,2.3
	c-1,3.8-2.1,7.7-3.3,11.4c-1.8,5.5-3.5,11-5.3,16.5c-1,3.1-1.9,6.2-2.9,9.4c-0.4,1.1-0.4,1.2,1,1.1c1.3-0.1,2.6,0.9,4.1,0.8
	c0.6,0,1.8,0.6,0.4,1.5c-0.2,0.1-0.4,0.2-0.4,0.4c-0.1,0.3-1.1,0.8-1.5,0.6c-1.4-0.7-2.9-1.3-4.3-2.1c-0.9-0.4-1.3-0.7-0.7-2.1
	c1.5-3.9,2.7-7.9,3.9-11.9c0.6-2.1,1.3-4.1,2-6.1c1-2.9,1.6-6,2.5-8.9c1.2-3.7,2.5-7.3,3.4-11.1c0.2-0.8,0.5-0.9-0.8-1.2
	c-5.7-1-11.5-2-16.2-6c-0.9,2.6-1.8,5.2-2.6,7.9c-1.9,6.2-3.7,12.3-5.6,18.5c-1.4,4.5-2.9,9.1-4.4,13.6c-0.5,1.6-0.7,2.8,1.7,2.6
	c1.2-0.1,2.4,0.6,3.5,1.1c0.5,0.3,1.5,1,0.1,1.5c-0.5-0.5-1-0.9-1.8-0.7C175.9,142.8,176.6,142.7,177,143.1 M216.6,11.5
	c-0.6,0.2-0.4,0.7-0.4,1c-0.5,4-1.9,5.2-5.8,4.9c-0.7,0-1,0.2-1.2,0.7c-0.6,1.1-1.3,2.2-1.8,3.3c-1.8,4.3-2.9,8.8-4,13.2
	c-1.6,6.3-3.4,12.5-5.9,18.5c-1.2,2.9-2.5,5.9-5.2,7.9c-3.2,2.5-7.1,3.8-10.3,6.4c-5.1,4-7.5,12-5.2,18.1c1.2,3.1,3.1,5.6,5.2,8
	c0.5,0.5,0.7,1.4,1.7,1.3c0.9-0.1,0.6-1.1,0.9-1.6c0.3-0.5,0.2-1.7,1.1-1.4c0.8,0.3,0.2,1.2,0.2,1.8c0,0.3-0.2,0.6-0.3,0.8
	c-0.8,1.3-0.4,2,0.8,3c2.1,1.6,4.5,2.3,6.9,3.2c7.5,2.9,14.9,1.4,21.7-2c5.3-2.7,8.9-7.6,12.1-12.6c5.5-8.6,8.2-18.3,10.9-28
	c2.3-8.1,3.4-16.5,4.9-24.8c0.7-4,0-7.9-0.3-12.1c-2.1,1.3-3.7,2.3-6,1.5c-3.4-1.2-4.1-4.3-4.4-7.4c-0.1-1,0.8-2.5-0.5-2.8
	c-1.4-0.4-1.2,1.4-1.6,2.2c-1.7,3.2-4.1,4.7-7.5,4c-3-0.7-5.3-2.3-5.5-6.1C217,12.2,217.3,11.8,216.6,11.5 M255.7,26.4
	c-0.1,3.7,0.6,7.1,1.9,10.4c1.1,2.8,2.4,3.7,5.3,2.7c4.3-1.5,7.7-4.5,9.9-8.3c2.3-4.1,2.5-8.8,1.3-13.3c-0.7-2.9-1.9-6-5.5-6.8
	c-3.7-0.8-9.7,1.5-11.3,5.9C256.3,20,255.5,23.1,255.7,26.4 M215,12.4c0.2-1-0.3-1.6-1.3-1.8c-0.6-0.1-1.2-0.5-1.3-1.1
	c-0.2-2-1.1-1.1-2-0.5c-1.2,0.7-1.3,2-1.5,3.1c-0.4,1.9,1.5,4.2,3.3,4.3C213.6,16.5,215,14.6,215,12.4 M247.1,21.6
	c-0.4-0.7,0.5-2.5-1.4-2.4c-1.4,0.1-2.7,1-1.9,2.9c0.2,0.4,0.1,0.9,0.2,1.3c0,0.5-0.3,1,0.4,1.3c0.6,0.2,1.1,0.1,1.6-0.3
	C246.9,23.8,247.2,22.9,247.1,21.6 M259.3,41.1c-0.6,0.5-1.2,0.9-1.6,1.3c-0.3,0.4-0.7,0.8-0.3,1.4c0.4,0.6,1.1,0.6,1.6,0.6
	c0.7,0,0.4-0.8,0.4-1.2C259.4,42.6,259.3,41.9,259.3,41.1 M251.8,65.7c-0.6,1.9-1,3.2-1.4,4.5c0.2,0,0.4,0.1,0.6,0.1
	C251.2,68.9,252.3,67.8,251.8,65.7 M195.3,145.1c-0.3,0-0.6,0-0.7,0.4c0,0.4,0.3,0.5,0.6,0.4c0.3,0,0.8,0.2,0.7-0.4
	C195.9,145.2,195.6,145.1,195.3,145.1"/>
<path class="st7" d="M299.9,134c-1.2,2.5-0.1,5.1,0.4,7.5c1,4.7-0.2,8.7-3.2,12.3c-0.5,0.6-1.4,1.1-2.4,1.4
	c-7.3,2-14.5,1.4-21.4-1.5c-1.3-0.6-1.8,0.2-2,1c-0.9,3.3-2.9,6.3-3.3,9.8c-0.4,2.9-0.9,5.8-0.3,8.7c0.4,1.8-0.3,2.2-1.7,1.9
	c-1-0.2-1.9-0.7-3-0.8c-0.7-0.1-1-0.4-0.8-1c0.2-0.7,0.6-0.2,1-0.1c1.1,0.1,2.2,1.3,3,0.6c0.5-0.4,0-1.9,0-2.9
	c0.3-5.8,1.5-11.4,4.1-16.6c0.5-1,0.5-1.2-0.8-1.9c-3.6-2.2-7.8-3.3-11.4-5.6c-1-0.7-2.3-0.9-3.3-1.7c-0.4-0.3-0.9-0.5-1.3,0.2
	c-1.7,3.3-4,6.4-5,10.1c-0.5,1.8-1.1,3.7-0.8,5.5c0.2,1.3-0.1,1-0.9,0.8c-1.5-0.3-2.9-1.2-4.5-1c-0.5,0.1-0.6-0.3-0.6-0.7
	c0-0.5,0.3-0.6,0.7-0.6c0.2,0,0.3,0,0.5,0c1.3,0.2,2.9,1.8,3.8,0.4c0.5-0.8,0.1-2.7,0.5-3.9c1-2.7,2.1-5.3,3.4-7.8
	c0.4-0.7,0.7-1.6,1.5-2.3c0.7-0.5,1.3-1.6-0.2-3c-4-3.6-4.6-9.4-1.8-14.2c1.4-2.5,2.8-5.1,5.7-6.6c-1.9-1.6-2.9-3.5-2.8-5.9
	c0-1.1-1.9-1.6-0.9-3.1c0.5-0.8,0.6-2.2,2.1-1.7c1.5,0.6,1.4,1.9,1,3c-1.5,3.9-1.5,4.3,1.6,7.1c5.4-2.9,7.2-8.7,10.9-13.1
	c2.4-2.9,4.5-6.2,7-9c0.8-0.9,2.3-1.8,1.9-3.5c-0.1-0.6,0.2-1.1,0.7-1.3c0.4-0.2,0.8,0.1,0.9,0.4c0.9,1.8,1.7,0.2,2.4-0.1
	c2.3-1.1,4.5-2.2,7.1-2.2c0.8,0,1.4,0.2,2.2,0.4c1.7,0.6,3.3,1.6,5-0.4c1.1-1.3,3.9-0.1,5,1.6c0.7,1.1,1.1,2.7,3,1.5
	c0.1-0.1,0.5,0.2,0.7,0.4c0.4,0.5-0.2,0.6-0.4,0.8c-1.1,0.8-2.9,0.2-3.7-1.4c-0.9-1.8-2.2-2.5-4.2-2c-0.5,0.2-0.9,0.4-0.2,1
	c1.6,1.3,3.1,2.9,4.6,4.4c1.8,1.8,2.9,4.2,3.4,7c0.7,4.2,1,8.3,0.2,12.5c-0.3,1.3,0.2,1,1,0.8c3.2-0.5,6.2-0.2,9.1,1.5
	c1.2,0.7,1.4,2.4,1.2,2.5c-1.3,1.1,0.3,1.6,0.5,1.7c1.3,0.7,2,1.7,1.4,3.2c-0.6,1.6-2.1,2-3.6,2.1c-1.2,0.1-3-0.8-3.4-0.3
	c-0.8,0.9,0.9,2,1,3.1c0.2,2.7-0.7,4-3.5,3.9C304.1,136.8,301.8,135.9,299.9,134 M272.9,152.5c4.4,1.2,8.5,2.8,12.9,2.7
	c3.1-0.1,6.4,0.1,9.2-1.4c3.5-1.8,5.3-7.6,4.3-11.8c-0.5-2.5-1.6-5.1-0.9-7.7c1.7-5.7,3-11.4,3.7-17.3c0.8-7,0.8-13.6-5.1-19.1
	c-7.5-7-14.7-4.5-20.6,1.3c-4.3,4.2-7.4,9.5-10.9,14.4c-2.6,3.6-4.7,7.3-9.1,9.3c-4.6,2.1-6.2,6.7-6.8,11.4
	c-0.6,4.9,2.8,7.7,6.4,10.1c4.1,2.7,9,4,13.3,6.5c2.2,1.3,3.1,0.5,4.1-1c0.7-1.1,1.7-1.7,3.1-1.7C275.1,149.3,274,150.7,272.9,152.5
	 M305.7,129.1c1.4-0.5,2.7-0.5,4.1-0.2c1.6,0.3,3.2,0.9,4.8,0c1.2-0.7,1.5-1.4,0.5-2.4c-3.4-3.4-7.7-2.6-11.7-2
	c-2.7,0.4-1.7,3.4-2.5,5.1c0,0.1-0.1,0.1-0.1,0.2c-1.4,2.6,0.2,4.5,2.6,5.4c1.4,0.5,2.8,0.5,4.2,0.8c1,0.2,1.7-0.4,1.8-1.5
	c0.1-1.5-0.2-2.9-1.7-3.6C306.9,130.4,306.2,129.9,305.7,129.1 M311.9,123.5c0.7-0.1,1.3,0,1.5-0.7c0.2-0.6-0.2-1-0.7-1.2
	c-2.1-1-4.3-1.7-6.6-1.6c-0.9,0-1.7,0.4-2.5,0.8c-0.9,0.3-0.9,1.1-0.8,1.9c0.2,1.1,0.9,0.4,1.4,0.4
	C306.8,123.5,309.5,122.4,311.9,123.5"/>
<path class="st7" d="M311.5,62.6c0-1.2,1.1-1.3,1.8-1.7c1-0.5,1.1,0.4,1,1.1c-1.1,6.9-1.5,13.8-2.4,20.7c-0.4,2.9-0.8,5.9-0.8,8.9
	c0,1.7-0.8,2.3-2.5,2.3c-3.1,0-5.6-1.5-8.2-2.7c-4.3-2-8.3-4.3-12.1-7.1c-1.4-1-1.8-1.4-0.3-2.9c3.6-3.6,7.9-6.3,11.7-9.6
	c2.3-2,5-3.4,6.9-5.9c0.6-0.8,1.6-1.2,2.7-1.3c0.1,0.1,0.3,0.2,0.4,0.4c-0.2,0.5-0.3,0.9,0.4,1.2c0.5,0.2,1.3,0.3,1.1,1.2
	c-2.8-1.2-4.9-0.2-6.6,2.3c2.5,0.9,5.1,1.8,7.1,3.6c1.1-2.2,0.4-4.1-0.5-5.9c0.4-0.4,1.4,0.6,1.4-0.3c0-1.4,1-2.7,0.1-4.1
	c0,0-0.5,0.2-0.8,0.3C311.7,62.8,311.6,62.7,311.5,62.6 M309.7,84.8c-0.8,0.3-1.2-0.2-1.7-0.6c-3-2.4-6.6-3.8-10.2-5
	c-3.9-1.3-6.3-0.5-8.2,2.2c0.9,0.2,1.7,0.3,2.6,0.5c6.3,1.3,11.6,4.5,16.6,8.3c1.1,0.8,1.1,0.5,1.3-0.6
	C310.5,88,310.2,86.4,309.7,84.8c1.7-1.3,1.8-4.1,0.3-5.6c-2.1-2.1-4.5-3.6-7.4-4.4c-3.9-1.1-5.4-0.7-8,2.5c1.7,0.4,3.5,0.7,5.2,1.3
	C303.4,80.1,307.4,81.2,309.7,84.8 M311.2,78.6c0.9-2.6,0.4-4.5-1.9-6.2c-3.1-2.2-6.1-2.4-8.8-0.1c-0.3,0.2-0.8,0.3-0.7,0.8
	c0.1,0.5,0.6,0.3,0.9,0.4c2.6,0.6,5.2,1.2,7.4,2.7C309.2,76.9,309.7,78.3,311.2,78.6"/>
<path class="st7" d="M309.2,64.4c0.6-0.8,1.1-1.7,2.3-1.8c0.1,0.1,0.2,0.3,0.3,0.4c-0.6,0.8-1.3,1.4-2.2,1.8
	C309.5,64.6,309.4,64.5,309.2,64.4"/>
<path class="st8" d="M216.6,11.5c0.6,0.3,0.4,0.7,0.4,1.1c0.2,3.8,2.5,5.4,5.5,6.1c3.3,0.7,5.8-0.8,7.5-4c0.4-0.8,0.2-2.6,1.6-2.2
	c1.3,0.3,0.4,1.8,0.5,2.8c0.3,3.1,1,6.2,4.4,7.4c2.3,0.8,3.9-0.2,6-1.5c0.3,4.2,1.1,8.1,0.3,12.1c-1.5,8.3-2.6,16.7-4.9,24.8
	c-2.7,9.7-5.4,19.4-10.9,28c-3.2,5-6.8,9.9-12.1,12.6c-6.8,3.4-14.2,4.9-21.7,2c-2.4-0.9-4.8-1.6-6.9-3.2c-1.2-0.9-1.6-1.7-0.8-3
	c0.2-0.3,0.3-0.6,0.3-0.8c0-0.6,0.6-1.6-0.2-1.8c-0.9-0.3-0.8,0.9-1.1,1.4c-0.3,0.5,0,1.5-0.9,1.6c-0.9,0.1-1.2-0.8-1.7-1.3
	c-2.1-2.4-4-4.9-5.2-8c-2.3-6.1,0.1-14.1,5.2-18.1c3.2-2.5,7.1-3.9,10.3-6.4c2.7-2,3.9-5,5.2-7.9c2.5-6,4.3-12.2,5.9-18.5
	c1.1-4.5,2.2-9,4-13.2c0.5-1.1,1.2-2.2,1.8-3.3c0.3-0.4,0.5-0.7,1.2-0.7c3.9,0.3,5.3-0.9,5.8-4.9C216.3,12.2,216.1,11.7,216.6,11.5
	 M188.9,89.1c-0.8,0-1,0.4-1,1.1c0,0.6,0.3,1,0.9,1.2c1.6,0.6,2.5-0.1,3.3-1.5c2.9-5.5,4.6-11.5,6.8-17.3c3.3-8.5,4.9-17.4,7.8-26
	c0.2-0.5,0.9-1.4-0.4-2.1c-0.8,2.4-1.9,4.6-2.4,7c-2.2,9.7-5.6,19.1-8.9,28.4c-0.8,2.2-1.5,4.4-2.4,6.5c-0.3,0.6-0.4,2.3-1.8,1.3
	c-0.3-0.2-0.4-1-1-0.8c-0.9,0.3-0.5,1.1-0.4,1.8C189.2,88.8,189,89,188.9,89.1 M238.9,27.4c-0.4,0.4,0,0.7,0.1,1
	c0.4,1.2,1.7,2.4,0.6,3.7c-1.2,1.4-2.8,1.1-4.4,0.9c-0.7-0.1-1.3-0.4-1.9-0.6c-4.5-1.2-8.7-3.2-13.2-4.2c-1.8-0.4-3.6-0.6-4.1-2.8
	c-0.1-0.4-0.5-0.6-0.9-0.5c-0.5,0.2-0.5,0.6-0.3,0.9c0.6,1-0.1,2-0.1,3c2.1-0.6,21.1,4.8,21.5,6.1c-0.3,0.6-1.3,0.3-1.4,1.2
	c1,0.8,2,0.4,2.3-0.4c0.5-1.3,1.6-1.6,2.6-2.3C241.9,32.2,241.4,28.3,238.9,27.4 M215.1,21.2c1.1,0.1,1.5-0.5,1.5-1.2
	c0-0.9-0.3-1.9-1.4-1.9c-0.7,0-1.5,0.3-1.6,1.2C213.5,20.5,214.4,21,215.1,21.2"/>
<path class="st7" d="M215,12.4c0,2.2-1.4,4.1-2.9,4c-1.8-0.1-3.6-2.4-3.3-4.3c0.2-1.1,0.3-2.4,1.5-3.1c0.9-0.5,1.8-1.5,2,0.5
	c0.1,0.6,0.7,1,1.3,1.1C214.7,10.9,215.2,11.5,215,12.4"/>
<path class="st7" d="M247.1,21.6c0.1,1.3-0.2,2.1-1,2.8c-0.5,0.4-1,0.5-1.6,0.3c-0.8-0.3-0.4-0.8-0.4-1.3c0-0.4,0-0.9-0.2-1.3
	c-0.8-1.9,0.5-2.8,1.9-2.9C247.6,19.1,246.7,21,247.1,21.6"/>
<path class="st9" d="M305.7,129.1c0.5,0.8,1.2,1.3,2,1.7c1.5,0.8,1.8,2.1,1.7,3.6c-0.1,1.1-0.8,1.7-1.8,1.5
	c-1.4-0.3-2.8-0.3-4.2-0.8c-2.3-0.9-3.9-2.8-2.6-5.4c0-0.1,0.1-0.1,0.1-0.2c0.8-1.7-0.2-4.7,2.5-5.1c4-0.6,8.3-1.4,11.7,2
	c1,1,0.7,1.8-0.5,2.4c-1.6,0.9-3.3,0.3-4.8,0C308.4,128.6,307.1,128.6,305.7,129.1"/>
<path class="st9" d="M311.9,123.5c-2.4-1.1-5.1,0-7.7-0.4c-0.5-0.1-1.2,0.6-1.4-0.4c-0.1-0.8-0.1-1.6,0.8-1.9
	c0.8-0.3,1.7-0.7,2.5-0.8c2.3,0,4.5,0.7,6.6,1.6c0.5,0.2,0.9,0.7,0.7,1.2C313.3,123.5,312.6,123.4,311.9,123.5"/>
<path class="st7" d="M189.3,88.7c-0.1-0.6-0.5-1.4,0.4-1.8c0.6-0.2,0.7,0.6,1,0.8c1.4,1,1.6-0.7,1.9-1.3c0.9-2.1,1.7-4.3,2.4-6.5
	c3.3-9.4,6.7-18.7,8.9-28.4c0.5-2.4,1.6-4.6,2.4-7c1.3,0.7,0.6,1.6,0.4,2.1c-2.9,8.6-4.6,17.5-7.8,26c-2.2,5.8-3.9,11.8-6.8,17.3
	c-0.7,1.4-1.7,2.1-3.3,1.5c-0.5-0.2-0.9-0.6-0.9-1.2c0-0.7,0.2-1.1,1-1.1c0.1,0.6,0.1,1.2,1,1.2c0.4,0,0.6-0.3,0.9-0.6
	C190.3,89.4,189.8,89,189.3,88.7"/>
<path class="st7" d="M238.9,27.4c2.5,0.8,3,4.7,0.8,6.1c-1,0.6-2,1-2.6,2.3c-0.3,0.8-1.3,1.2-2.3,0.4c0.1-0.9,1.1-0.6,1.4-1.2
	c-0.4-1.2-19.4-6.7-21.5-6.1c0-1,0.7-2,0.1-3c-0.2-0.3-0.2-0.8,0.3-0.9c0.4-0.1,0.8,0,0.9,0.5c0.5,2.2,2.3,2.5,4.1,2.8
	c4.6,0.9,8.8,2.9,13.2,4.2c0.6,0.2,1.3,0.5,1.9,0.6c1.6,0.3,3.2,0.6,4.4-0.9c1.1-1.3-0.2-2.5-0.6-3.7
	C238.8,28.1,238.5,27.8,238.9,27.4"/>
<path class="st7" d="M215.1,21.2c-0.7-0.3-1.6-0.7-1.5-1.9c0-1,0.9-1.3,1.6-1.2c1.1,0.1,1.4,1,1.4,1.9
	C216.6,20.7,216.3,21.3,215.1,21.2"/>
<path class="st7" d="M284,116.1c-5,0-10.4-6.6-9.4-11.5c0.4-2,2.8-3.7,4.7-3.9c0.5-0.1,1,0,1.2,0.4c1,2.1,2.9,2.5,4.8,3.3
	c3.3,1.4,5.9,4.4,4.4,8.3C288.8,115.1,287.4,116,284,116.1 M283.2,114.1c-0.2-0.8-0.3-1.2-0.5-1.6c-0.2-0.5-0.6-1-1.1-0.9
	c-0.6,0-1,0.6-1.3,1.2s0,1,0.4,1.4c1.3,1.3,5.4,1.2,6.7,0c0.9-0.9,0.7-1.7,0-2.6c-0.7-0.9-1.6-0.7-2.3,0.1
	C284.7,112.3,284.1,113,283.2,114.1 M282.8,104.7c-0.9-0.1-1.3-1.3-2.6-0.9C281,104.8,281.4,105.9,282.8,104.7 M285.6,106
	c-0.4-0.3-0.7-0.6-1.1-0.8c-0.3-0.1-0.6,0.2-0.5,0.5c0,0.5,0.2,1.1,0.7,1.2C285.1,107,285.3,106.4,285.6,106"/>
<path class="st7" d="M295.5,140.2c-0.4-2.2-1.4-5-2.5-7.8c-0.2-0.5-0.6-0.9-0.7-1.3c-0.1-0.2,0.1-0.6,0.3-0.8
	c0.3-0.3,0.5-0.1,0.8,0.1c2.4,2.2,3.8,12.7,2,15.5c-1.1,1.7-4.4,2.9-6.2,2.1c-2-1-4.1-2.1-5.2-4.1c-1-1.8-1.7-3.8-4-4.5
	c-0.7-0.2-0.9-1-0.6-1.7c0.3-0.7,0.8-1.2,1.8-1.1c1.7,0.1,3,1.6,2.8,3.4c-0.3,3.6,4.1,7.7,7.7,7.1
	C293.9,146.5,295.4,144.3,295.5,140.2 M280.4,138.7c0.1-0.2,0.2-0.4,0.3-0.6c0.1-0.3,0.5-0.8-0.2-0.6
	C280,137.6,280.3,138.2,280.4,138.7"/>
<path class="st7" d="M295.9,111.4c-0.3,0.4-0.4,1.1-1.1,0.9c-0.4-0.1-0.9-0.4-0.9-0.9c0.1-0.5,0.5-0.9,1.1-0.8
	C295.5,110.7,295.9,110.8,295.9,111.4"/>
<path class="st7" d="M189.3,88.7c0.5,0.3,0.9,0.7,1.4,1c-0.2,0.3-0.4,0.6-0.9,0.6c-0.9,0-0.9-0.6-1-1.2
	C189,88.9,189.2,88.8,189.3,88.7"/>
<g class="st10">
	<g>
		<defs>
			<rect id="SVGID_1_" y="98.5" width="370.3" height="264"/>
		</defs>
		<clipPath id="SVGID_2_">
			<use xlink:href="#SVGID_1_"  style="overflow:visible;"/>
		</clipPath>
		<g class="st11">
			<defs>
				<rect id="SVGID_3_" y="98.5" width="370.3" height="264"/>
			</defs>
			<clipPath id="SVGID_4_">
				<use xlink:href="#SVGID_3_"  style="overflow:visible;"/>
			</clipPath>
			<g style="clip-path:url(#SVGID_4_);">
				
					<image style="overflow:visible;" width="1543" height="1100" xlink:href="C81E6B36C866FF78.png"  transform="matrix(0.24 0 0 0.24 0 98.4825)">
				</image>
			</g>
		</g>
	</g>
</g>
<path class="st12" d="M298.6,346.4L14.3,258c-6.4-2-10-8.8-8-15.2l40.4-130.1c2-6.4,8.8-10,15.2-8l284.4,88.4c6.4,2,10,8.8,8,15.2
	l-40.4,130.1C311.8,344.8,305,348.4,298.6,346.4"/>
<path class="st13" d="M289.9,304.6L42.4,227.7c-2.8-0.9-4.3-3.8-3.4-6.5c0.9-2.8,3.8-4.3,6.5-3.4L293,294.6c2.8,0.9,4.3,3.8,3.4,6.5
	C295.5,303.9,292.6,305.5,289.9,304.6"/>
<path class="st14" d="M85.1,149l3.1-2.2c0.9,1.9,3.2,3.5,5.2,4.1c2.7,0.8,4.5,0.2,5-1.3c0.5-1.6-0.7-2.8-3.7-3.7l-4.1-1.3l1.2-3.8
	l4.1,1.3c2.4,0.7,4.3,0.6,4.8-0.9c0.5-1.6-1.1-3-3.4-3.7c-2-0.6-4.3-0.5-6.1,0.4l-1.3-3.4c2.2-1.3,5.5-1.8,9.1-0.7
	c4.7,1.5,7.3,4.6,6.3,8c-0.8,2.5-3.5,3.5-5.8,3.2c2,0.8,4.1,3.3,3.2,6.3c-1.1,3.5-5.3,4.9-10.2,3.4C88.7,153.7,86.1,151.3,85.1,149"
	/>
<path class="st14" d="M112.8,160.8l0.5-1.5c-1.4,0.9-3.3,1-5.2,0.4c-2.3-0.7-4.6-3.2-3.6-6.4c1.1-3.4,4.2-3.9,6.6-3.1
	c1.9,0.6,3.5,1.8,4.1,3.2l0.6-2c0.5-1.5-0.5-2.9-2.5-3.5c-1.6-0.5-3.2-0.4-4.8,0.4l-0.7-3c2.3-1,4.8-1,7.1-0.3c3.3,1,6,3.3,4.7,7.5
	l-2.9,9.5L112.8,160.8z M113.9,157.3l0.6-1.8c-0.4-1-1.5-1.9-2.7-2.2c-1.5-0.5-3-0.1-3.4,1.4c-0.4,1.4,0.6,2.5,2.1,3
	C111.7,158,113,157.9,113.9,157.3"/>
<polygon class="st14" points="132,166.7 120.5,163.2 125.1,148.5 128.9,149.7 125.4,161 131.5,162.9 135,151.6 138.8,152.8 
	135.3,164.1 136.9,164.6 134.7,171.7 130.9,170.5 "/>
<path class="st14" d="M138.3,168.7l4.6-14.7l3.9,1.2l-4.6,14.7L138.3,168.7z M143.7,150c0.4-1.3,1.8-1.9,3-1.6c1.3,0.4,2,1.7,1.6,3
	c-0.4,1.3-1.7,2-3,1.6C144,152.7,143.3,151.3,143.7,150"/>
<polygon class="st14" points="146,171.1 150.5,156.4 154.4,157.6 152.7,163.1 158.8,164.9 160.5,159.5 164.3,160.7 159.8,175.4 
	155.9,174.2 157.7,168.3 151.7,166.4 149.8,172.3 "/>
<path class="st14" d="M163.6,176.5l4.6-14.7l3.9,1.2l-4.6,14.7L163.6,176.5z M168.9,157.9c0.4-1.3,1.8-1.9,3-1.6
	c1.3,0.4,2,1.7,1.6,3c-0.4,1.3-1.7,2-3,1.6C169.3,160.5,168.5,159.2,168.9,157.9"/>
<polygon class="st14" points="173.9,179.8 177.5,168.5 173.4,167.2 174.4,163.8 186.5,167.6 185.4,171 181.3,169.7 177.8,181 "/>
<path class="st14" d="M192.8,169.6l-1.6,5l5,1.6c3.4,1.1,4.4,3.8,3.6,6.4c-0.8,2.6-3.3,4.3-6.6,3.2l-8.9-2.8l4.6-14.7L192.8,169.6z
	 M190.2,177.8l-1,3.2l4.4,1.4c1.1,0.3,1.9-0.1,2.2-1c0.3-0.9-0.1-1.8-1.2-2.1L190.2,177.8z"/>
<rect x="220.2" y="174.4" transform="matrix(0.297 -0.9549 0.9549 0.297 -22.2223 343.0763)" class="st14" width="3.4" height="24.6"/>
<polygon class="st14" points="253.4,204.5 241.9,200.9 246.5,186.3 250.3,187.5 246.8,198.7 252.9,200.6 256.4,189.3 260.2,190.5 
	256.7,201.8 258.3,202.3 256.1,209.4 252.3,208.2 "/>
<path class="st14" d="M261.1,198.8c1.3-4.2,5.5-6.7,10-5.3c4.4,1.4,6.3,5.6,4.8,10.4l-0.3,0.8l-10.9-3.4c-0.3,1.9,0.7,3.9,3.2,4.7
	c1.2,0.4,3.1,0.4,4.4-0.2l0.9,3c-1.9,0.9-4.4,0.9-6.7,0.2C262,207.6,259.6,203.5,261.1,198.8 M270.1,196.6c-2.4-0.7-4,0.7-4.6,2.1
	l7.2,2.2C273,199.5,272.6,197.3,270.1,196.6"/>
<polygon class="st14" points="282.4,213.5 290.8,207.3 287.1,198.9 291.8,200.4 294.7,207.1 296.3,201.8 300.2,203 298.6,208.3 
	304.7,204.4 309.4,205.8 301.6,210.7 305.1,220.5 300.3,219.1 298.1,212.2 297.2,212.7 295.7,217.6 291.8,216.4 293.3,211.5 
	292.8,210.6 287.2,215 "/>
<path class="st14" d="M117.3,189.5c2.2-7.1,5.8-9.5,11-8.6c2.6,0.4,3.5,0.3,3.7-0.2l4,1.2c-0.9,2.9-4.8,2.5-7.3,2
	c-3.6-0.6-5.5,0.5-6.4,2c1.7-1.2,3.7-1.5,5.8-0.8c4.2,1.3,5.8,5.7,4.5,9.8c-1.3,4.1-5.3,6.8-10.1,5.3
	C117.5,198.8,115.8,194.3,117.3,189.5 M128.6,193.7c0.7-2.2-0.1-4.6-2.5-5.4c-2.4-0.7-4.3,0.8-5,3c-0.7,2.4,0,4.8,2.4,5.5
	C125.9,197.6,127.8,196.1,128.6,193.7"/>
<path class="st14" d="M134.6,195.6c1.3-4.2,5.3-6.8,10.1-5.3c4.9,1.5,6.7,5.9,5.4,10.1c-1.3,4.2-5.3,6.8-10.2,5.3
	C135.1,204.2,133.3,199.8,134.6,195.6 M146.1,199.2c0.7-2.3,0-4.7-2.4-5.4c-2.4-0.7-4.3,0.8-5.1,3.1c-0.7,2.3,0,4.7,2.4,5.4
	C143.4,203.1,145.3,201.5,146.1,199.2"/>
<polygon class="st14" points="164.1,212.9 167.1,203.3 160.2,211.6 158.4,211.1 157.4,200.3 154.5,209.9 150.6,208.7 155.2,194 
	160.2,195.6 161.1,205.5 167.4,197.8 172.5,199.4 167.9,214.1 "/>
<path class="st14" d="M173.3,206.9c2.2-7.1,5.8-9.5,11-8.6c2.6,0.4,3.5,0.3,3.7-0.2l4,1.2c-0.9,2.9-4.8,2.5-7.3,2
	c-3.6-0.6-5.5,0.5-6.4,2c1.7-1.2,3.7-1.5,5.8-0.8c4.2,1.3,5.8,5.7,4.5,9.8c-1.3,4.1-5.3,6.8-10.1,5.3
	C173.6,216.2,171.8,211.7,173.3,206.9 M184.6,211.1c0.7-2.2-0.1-4.6-2.5-5.4c-2.4-0.7-4.3,0.8-5,3c-0.7,2.4,0,4.8,2.4,5.5
	C181.9,215,183.9,213.5,184.6,211.1"/>
<path class="st14" d="M190.6,213.1c1.3-4.2,5.5-6.7,10-5.3c4.4,1.4,6.3,5.6,4.8,10.4l-0.3,0.8l-10.9-3.4c-0.3,1.9,0.7,3.9,3.2,4.7
	c1.2,0.4,3.1,0.4,4.4-0.2l0.9,3c-1.9,0.9-4.4,0.9-6.7,0.2C191.6,221.8,189.1,217.8,190.6,213.1 M199.6,210.8c-2.4-0.7-4,0.7-4.6,2.1
	l7.2,2.2C202.6,213.7,202.2,211.6,199.6,210.8"/>
<path class="st14" d="M205.2,223.5l2.5-1.8c1,1.6,2.8,2.7,4.5,3.2c2,0.6,3.2,0.3,3.5-0.6c0.3-1.1-0.8-2-2.8-2.7l-3-0.9l0.9-3l3,0.9
	c2,0.6,3.2,0.4,3.5-0.6c0.3-0.9-0.8-1.9-2.5-2.4c-1.9-0.6-3.6-0.5-5.1,0.3l-1.2-2.9c1.9-1,4.3-1.3,7-0.5c4.6,1.4,6.7,3.7,5.9,6.2
	c-0.6,1.9-2.9,2.6-4.9,2.3c1.8,0.7,3.7,2.6,3,4.8c-0.8,2.6-4.1,3.6-8.4,2.2C208.2,227,206.2,225.3,205.2,223.5"/>
<polygon class="st14" points="221.3,230.7 225.9,216 229.7,217.2 228,222.6 234.1,224.5 235.8,219.1 239.6,220.3 235.1,234.9 
	231.2,233.7 233.1,227.9 227,226 225.2,231.9 "/>
<path class="st14" d="M240.3,228.5c1.3-4.2,5.3-6.8,10.1-5.3c4.9,1.5,6.7,5.9,5.4,10.1c-1.3,4.2-5.3,6.8-10.2,5.3
	C240.8,237.1,239,232.7,240.3,228.5 M251.7,232.1c0.7-2.3,0-4.7-2.4-5.4c-2.4-0.7-4.3,0.8-5.1,3.1c-0.7,2.3,0,4.7,2.4,5.4
	C249.1,235.9,251,234.4,251.7,232.1"/>
<path class="st14" d="M256.5,239.3c0.4-1.3,1.9-2.1,3.2-1.7c1.3,0.4,2.1,1.9,1.7,3.2c-0.4,1.3-1.9,2.1-3.2,1.7
	C256.9,242,256.1,240.6,256.5,239.3 M258.6,235l3.6-13.8l4.6,1.4l-4.9,13.5L258.6,235z"/>
<g>
	<defs>
		
			<rect id="SVGID_5_" x="30.9" y="184" transform="matrix(0.2969 -0.9549 0.9549 0.2969 -162.5968 215.7988)" width="68.7" height="68.7"/>
	</defs>
	<clipPath id="SVGID_6_">
		<use xlink:href="#SVGID_5_"  style="overflow:visible;"/>
	</clipPath>
	<g class="st15">
		<defs>
			
				<rect id="SVGID_7_" x="30.9" y="184" transform="matrix(0.2969 -0.9549 0.9549 0.2969 -162.5968 215.8006)" width="68.7" height="68.7"/>
		</defs>
		<clipPath id="SVGID_8_">
			<use xlink:href="#SVGID_7_"  style="overflow:visible;"/>
		</clipPath>
		<g transform="matrix(1 0 0 1 -3.814697e-06 0)" style="clip-path:url(#SVGID_8_);">
			
				<image style="overflow:visible;" width="160" height="160" xlink:href="C81E6B36C866FF79.png"  transform="matrix(0.4099 0.1274 -0.1274 0.4099 42.6546 175.333)">
			</image>
		</g>
	</g>
</g>
</svg>
